<?xml version="1.0" encoding="utf-8"?>
<!-- Generator: Adobe Illustrator 16.0.0, SVG Export Plug-In . SVG Version: 6.00 Build 0)  -->
<!DOCTYPE svg PUBLIC "-//W3C//DTD SVG 1.1//EN" "http://www.w3.org/Graphics/SVG/1.1/DTD/svg11.dtd">
<svg version="1.1" id="Layer_1" xmlns="http://www.w3.org/2000/svg" xmlns:xlink="http://www.w3.org/1999/xlink" x="0px" y="0px"
	 width="23.611px" height="32px" viewBox="13.688 10.258 23.611 32" enable-background="new 13.688 10.258 23.611 32"
	 xml:space="preserve">
<g>
	<path fill="#FFFFFF" d="M18.038,41.359c0,0,6.776,0.727,10.547,0.317c3.77-0.409,7.295-1.057,8.714-2.37
		c0,0,0.219,2.342-8.628,2.842C20.186,42.63,18.038,41.359,18.038,41.359z"/>
	<path fill="#FFFFFF" d="M13.688,39.188c0-1.013,4.039-2.305,5.051-1.724c0,0-3.005,0.485-3.005,1.175
		c0,0.688,5.053,1.264,7.953,1.264c2.901,0,11.82-0.416,11.82-1.865c0-0.27-0.158-0.398-0.158-0.398s0.531,0.215,0.531,0.57
		c0,0.502-1.932,2.498-12.25,2.498C20.819,40.707,13.688,40.363,13.688,39.188z"/>
	<path fill="#FFFFFF" d="M21.207,35.042c0,0-1.422,0.397-1.422,1.022s1.972,1.572,4.922,1.572c3.677,0,5.784-1.142,5.784-1.142
		l-1.681-0.797c0,0-2.854,0.452-4.093,0.452c-1.238,0-3.802-0.205-3.802-0.664C20.916,35.229,21.207,35.042,21.207,35.042z"/>
	<path fill="#FFFFFF" d="M20.514,31.516c0,0-1.68,0.519-1.68,1.164c0,0.646,3.698,2.514,12.25,0.445c0,0-1.038-0.37-1.285-0.77
		c0,0-9.659,1.447-9.659-0.312C20.14,31.82,20.514,31.516,20.514,31.516z"/>
	<path fill="#FFFFFF" d="M21.799,27.826c0,0-5.472,0.688-5.472,1.744c0,1.056,8.595,1.811,14.52,0.258l1.379-0.775
		c-0.186,0.025-11.998,1.902-13.592,0.273C18.208,28.891,21.799,27.826,21.799,27.826z"/>
	<path fill="#FFFFFF" d="M37.299,29.861c0-1.411-1.379-2.381-2.628-2.338c-1.25,0.043-1.67,0.668-1.67,0.668s2.467-1.17,3.026,1.67
		c0.33,1.674-3.802,3.941-3.802,3.941S37.299,32.758,37.299,29.861z"/>
	<path fill="#FFFFFF" d="M25.547,27.782c-0.072,0.071-4.244-3.425-4.244-5.751c0-2.327,3.996-4.708,5.148-5.859
		c1.151-1.153,2.42-2.392,2.42-3.842c0-1.451-0.186-2.072-0.186-2.072s0.874,0.592,0.874,2.818c0,1.924-2.248,4.072-2.686,4.51
		c-1.106,1.107-3.906,2.714-3.906,5.047C22.969,24.572,25.755,27.574,25.547,27.782z"/>
	<path fill="#FFFFFF" d="M32.678,16.811c0,0-7.124,1.896-7.124,5.543c0,2.392,2.025,3.145,2.025,4.553
		c0,1.178-0.934,1.967-0.934,1.967s2.542-1.181,2.542-3.148c0-1.529-1.788-2.258-1.788-4.125
		C27.4,19.734,32.678,16.811,32.678,16.811z"/>
</g>
</svg>
