<?xml version="1.0" encoding="utf-8"?>
<!-- Generator: Adobe Illustrator 16.0.0, SVG Export Plug-In . SVG Version: 6.00 Build 0)  -->
<!DOCTYPE svg PUBLIC "-//W3C//DTD SVG 1.1//EN" "http://www.w3.org/Graphics/SVG/1.1/DTD/svg11.dtd">
<svg version="1.1" id="Layer_1" xmlns="http://www.w3.org/2000/svg" xmlns:xlink="http://www.w3.org/1999/xlink" x="0px" y="0px"
	 width="32px" height="32px" viewBox="0 0 32 32" enable-background="new 0 0 32 32" xml:space="preserve">
<path fill="#FFFFFF" d="M0,0v32h32V0H0z M17.3,25.9c-0.1,0.3-0.6,3.5-4.3,3.5c-3.2,0-4.4-2.5-4.4-2.5l2.2-1.5
	c0.3,0.8,1.1,1.5,2.1,1.5c1,0,1.5-0.6,1.5-1.2l0-11h2.9V25.9z M24.3,29.5c-3.7,0-5.2-2.9-5.2-2.9l2.4-1.4c0.5,1,2,1.7,2.9,1.7
	c1,0,2.1-0.2,2.1-1.4c0-1.2-0.7-1.4-2.7-2.3c-1.9-0.9-3.9-2.3-3.9-4.5c0-2.2,1.9-4.2,4.5-4.1c2.6,0.1,4.1,2.4,4.1,2.4l-2.2,1.4
	c0,0-1-1.2-1.9-1.2s-1.6,0.4-1.6,1.3c0,0.9-0.1,0.8,2.5,2.1c3.3,1.3,4,3.2,4,4.9C29.4,27.2,28,29.4,24.3,29.5z"/>
</svg>
