<?xml version="1.0" encoding="utf-8"?>
<!-- Generator: Adobe Illustrator 16.0.0, SVG Export Plug-In . SVG Version: 6.00 Build 0)  -->
<!DOCTYPE svg PUBLIC "-//W3C//DTD SVG 1.1//EN" "http://www.w3.org/Graphics/SVG/1.1/DTD/svg11.dtd">
<svg version="1.1" id="Layer_1" xmlns="http://www.w3.org/2000/svg" xmlns:xlink="http://www.w3.org/1999/xlink" x="0px" y="0px"
	 width="756px" height="32px" viewBox="0 0 756 32" enable-background="new 0 0 756 32" xml:space="preserve">
<g>
	<polygon fill="#485566" points="756,0 647.8,0 658.8,16.1 647.9,32 756,32 	"/>
	<g>
		<path fill="#FFFFFF" d="M689.4,16.7c-0.1-1-0.1-2.2-0.1-3.1h0c-0.2,0.8-0.5,1.7-0.9,2.7l-1.3,3.4h-0.7l-1.1-3.4
			c-0.3-1-0.6-1.9-0.8-2.8h0c0,0.9-0.1,2.1-0.1,3.1l-0.2,3h-0.9l0.5-7.1h1.2l1.2,3.4c0.3,0.9,0.5,1.6,0.7,2.4h0
			c0.2-0.7,0.4-1.5,0.7-2.4l1.3-3.4h1.2l0.4,7.1h-0.9L689.4,16.7z"/>
		<path fill="#FFFFFF" d="M693.4,17.6l-0.7,2.2h-0.9l2.4-7.1h1.1l2.4,7.1h-1l-0.8-2.2H693.4z M695.7,16.9l-0.7-2
			c-0.2-0.5-0.3-0.9-0.4-1.3h0c-0.1,0.4-0.2,0.9-0.4,1.3l-0.7,2H695.7z"/>
		<path fill="#FFFFFF" d="M698.9,18.7c0.4,0.3,1,0.5,1.6,0.5c0.9,0,1.5-0.5,1.5-1.2c0-0.7-0.4-1-1.3-1.4c-1.2-0.4-1.9-1-1.9-2
			c0-1.1,0.9-1.9,2.3-1.9c0.7,0,1.3,0.2,1.6,0.3l-0.3,0.7c-0.2-0.1-0.7-0.3-1.3-0.3c-1,0-1.3,0.6-1.3,1.1c0,0.7,0.4,1,1.4,1.4
			c1.2,0.5,1.8,1,1.8,2.1c0,1.1-0.8,2-2.5,2c-0.7,0-1.4-0.2-1.8-0.5L698.9,18.7z"/>
		<path fill="#FFFFFF" d="M706,13.5h-2.2v-0.8h5.2v0.8h-2.2v6.3H706V13.5z"/>
		<path fill="#FFFFFF" d="M714,16.5h-2.8V19h3.1v0.8h-4v-7.1h3.8v0.8h-2.9v2.2h2.8V16.5z"/>
		<path fill="#FFFFFF" d="M715.9,12.8c0.5-0.1,1.1-0.1,1.8-0.1c1,0,1.6,0.2,2,0.6c0.4,0.3,0.6,0.8,0.6,1.3c0,0.9-0.6,1.6-1.3,1.8v0
			c0.5,0.2,0.9,0.7,1,1.4c0.2,1,0.4,1.7,0.5,1.9h-0.9c-0.1-0.2-0.3-0.8-0.5-1.7c-0.2-1-0.6-1.3-1.4-1.4h-0.9v3.1h-0.9V12.8z
			 M716.8,16h0.9c1,0,1.6-0.5,1.6-1.3c0-0.9-0.7-1.3-1.6-1.3c-0.4,0-0.8,0-0.9,0.1V16z"/>
	</g>
</g>
<g>
	<polygon fill="#485566" points="629.9,0 532.5,0 543.5,16.1 532.6,32 629.9,32 640.7,16.1 	"/>
	<g>
		<path fill="#FFFFFF" d="M573.4,16.5h-2.8V19h3.1v0.8h-4v-7.1h3.8v0.8h-2.9v2.2h2.8V16.5z"/>
		<path fill="#FFFFFF" d="M579.2,19.8l-0.9-1.6c-0.4-0.6-0.6-1-0.8-1.4h0c-0.2,0.4-0.4,0.8-0.8,1.4l-0.8,1.6h-1l2.2-3.6l-2.1-3.5
			h1.1l0.9,1.7c0.3,0.5,0.5,0.8,0.7,1.2h0c0.2-0.4,0.4-0.7,0.6-1.2l1-1.7h1l-2.2,3.4l2.2,3.6H579.2z"/>
		<path fill="#FFFFFF" d="M581.7,12.8c0.4-0.1,1-0.1,1.8-0.1c0.9,0,1.6,0.2,2,0.6c0.4,0.3,0.6,0.9,0.6,1.5c0,0.6-0.2,1.1-0.5,1.5
			c-0.5,0.5-1.3,0.8-2.2,0.8c-0.3,0-0.5,0-0.7-0.1v2.8h-0.9V12.8z M582.6,16.2c0.2,0.1,0.5,0.1,0.8,0.1c1.1,0,1.8-0.5,1.8-1.5
			c0-0.9-0.7-1.4-1.7-1.4c-0.4,0-0.7,0-0.9,0.1V16.2z"/>
		<path fill="#FFFFFF" d="M591.4,16.5h-2.8V19h3.1v0.8h-4v-7.1h3.8v0.8h-2.9v2.2h2.8V16.5z"/>
		<path fill="#FFFFFF" d="M593.3,12.8c0.5-0.1,1.1-0.1,1.8-0.1c1,0,1.6,0.2,2,0.6c0.4,0.3,0.6,0.8,0.6,1.3c0,0.9-0.6,1.6-1.3,1.8v0
			c0.5,0.2,0.9,0.7,1,1.4c0.2,1,0.4,1.7,0.5,1.9H597c-0.1-0.2-0.3-0.8-0.5-1.7c-0.2-1-0.6-1.3-1.4-1.4h-0.9v3.1h-0.9V12.8z
			 M594.2,16h0.9c1,0,1.6-0.5,1.6-1.3c0-0.9-0.7-1.3-1.6-1.3c-0.4,0-0.8,0-0.9,0.1V16z"/>
		<path fill="#FFFFFF" d="M600.8,13.5h-2.2v-0.8h5.2v0.8h-2.2v6.3h-0.9V13.5z"/>
	</g>
</g>
<g>
	<polygon fill="#485566" points="514.6,0 417.2,0 428.2,16.1 417.3,32 514.6,32 525.4,16.1 	"/>
	<g>
		<path fill="#FFFFFF" d="M442.7,12.7v7.1h-0.9v-7.1H442.7z"/>
		<path fill="#FFFFFF" d="M444.7,19.8v-7.1h1l2.3,3.6c0.5,0.8,0.9,1.6,1.3,2.3l0,0c-0.1-0.9-0.1-1.8-0.1-2.9v-3h0.9v7.1h-0.9
			l-2.2-3.6c-0.5-0.8-1-1.6-1.3-2.4l0,0c0.1,0.9,0.1,1.7,0.1,2.9v3H444.7z"/>
		<path fill="#FFFFFF" d="M451.9,18.7c0.4,0.3,1,0.5,1.6,0.5c0.9,0,1.5-0.5,1.5-1.2c0-0.7-0.4-1-1.3-1.4c-1.2-0.4-1.9-1-1.9-2
			c0-1.1,0.9-1.9,2.3-1.9c0.7,0,1.3,0.2,1.6,0.3l-0.3,0.7c-0.2-0.1-0.7-0.3-1.3-0.3c-1,0-1.3,0.6-1.3,1.1c0,0.7,0.4,1,1.4,1.4
			c1.2,0.5,1.8,1,1.8,2.1c0,1.1-0.8,2-2.5,2c-0.7,0-1.4-0.2-1.8-0.5L451.9,18.7z"/>
		<path fill="#FFFFFF" d="M459,13.5h-2.2v-0.8h5.2v0.8h-2.2v6.3H459V13.5z"/>
		<path fill="#FFFFFF" d="M463.3,12.8c0.5-0.1,1.1-0.1,1.8-0.1c1,0,1.6,0.2,2,0.6c0.4,0.3,0.6,0.8,0.6,1.3c0,0.9-0.6,1.6-1.3,1.8v0
			c0.5,0.2,0.9,0.7,1,1.4c0.2,1,0.4,1.7,0.5,1.9h-0.9c-0.1-0.2-0.3-0.8-0.5-1.7c-0.2-1-0.6-1.3-1.4-1.4h-0.9v3.1h-0.9V12.8z
			 M464.2,16h0.9c1,0,1.6-0.5,1.6-1.3c0-0.9-0.7-1.3-1.6-1.3c-0.4,0-0.8,0-0.9,0.1V16z"/>
		<path fill="#FFFFFF" d="M470.2,12.7v4.2c0,1.6,0.7,2.3,1.6,2.3c1.1,0,1.7-0.7,1.7-2.3v-4.2h0.9v4.1c0,2.2-1.1,3.1-2.7,3.1
			c-1.4,0-2.5-0.8-2.5-3v-4.2H470.2z"/>
		<path fill="#FFFFFF" d="M481.5,19.6c-0.3,0.2-1,0.3-1.9,0.3c-2,0-3.5-1.3-3.5-3.6c0-2.2,1.5-3.7,3.7-3.7c0.9,0,1.4,0.2,1.7,0.3
			l-0.2,0.7c-0.3-0.2-0.8-0.3-1.4-0.3c-1.7,0-2.8,1.1-2.8,2.9c0,1.7,1,2.8,2.7,2.8c0.6,0,1.1-0.1,1.5-0.3L481.5,19.6z"/>
		<path fill="#FFFFFF" d="M484.7,13.5h-2.2v-0.8h5.2v0.8h-2.2v6.3h-0.9V13.5z"/>
		<path fill="#FFFFFF" d="M494.7,16.2c0,2.4-1.5,3.7-3.3,3.7c-1.9,0-3.2-1.4-3.2-3.6c0-2.2,1.4-3.7,3.3-3.7
			C493.5,12.6,494.7,14.1,494.7,16.2z M489.2,16.3c0,1.5,0.8,2.9,2.3,2.9c1.4,0,2.3-1.3,2.3-2.9c0-1.4-0.7-2.9-2.3-2.9
			C490,13.4,489.2,14.7,489.2,16.3z"/>
		<path fill="#FFFFFF" d="M496.3,12.8c0.5-0.1,1.1-0.1,1.8-0.1c1,0,1.6,0.2,2,0.6c0.4,0.3,0.6,0.8,0.6,1.3c0,0.9-0.6,1.6-1.3,1.8v0
			c0.5,0.2,0.9,0.7,1,1.4c0.2,1,0.4,1.7,0.5,1.9H500c-0.1-0.2-0.3-0.8-0.5-1.7c-0.2-1-0.6-1.3-1.4-1.4h-0.9v3.1h-0.9V12.8z
			 M497.3,16h0.9c1,0,1.6-0.5,1.6-1.3c0-0.9-0.7-1.3-1.6-1.3c-0.4,0-0.8,0-0.9,0.1V16z"/>
	</g>
</g>
<g>
	<polygon fill="#485566" points="399.2,0 301.9,0 312.9,16.1 302,32 399.2,32 410.1,16.1 	"/>
	<g>
		<path fill="#FFFFFF" d="M328.7,12.8c0.4-0.1,1-0.1,1.8-0.1c0.9,0,1.6,0.2,2,0.6c0.4,0.3,0.6,0.9,0.6,1.5c0,0.6-0.2,1.1-0.5,1.5
			c-0.5,0.5-1.3,0.8-2.2,0.8c-0.3,0-0.5,0-0.7-0.1v2.8h-0.9V12.8z M329.6,16.2c0.2,0.1,0.5,0.1,0.8,0.1c1.1,0,1.8-0.5,1.8-1.5
			c0-0.9-0.7-1.4-1.7-1.4c-0.4,0-0.7,0-0.9,0.1V16.2z"/>
		<path fill="#FFFFFF" d="M334.7,12.8c0.5-0.1,1.1-0.1,1.8-0.1c1,0,1.6,0.2,2,0.6c0.4,0.3,0.6,0.8,0.6,1.3c0,0.9-0.6,1.6-1.3,1.8v0
			c0.5,0.2,0.9,0.7,1,1.4c0.2,1,0.4,1.7,0.5,1.9h-0.9c-0.1-0.2-0.3-0.8-0.5-1.7c-0.2-1-0.6-1.3-1.4-1.4h-0.9v3.1h-0.9V12.8z
			 M335.6,16h0.9c1,0,1.6-0.5,1.6-1.3c0-0.9-0.7-1.3-1.6-1.3c-0.4,0-0.8,0-0.9,0.1V16z"/>
		<path fill="#FFFFFF" d="M346.8,16.2c0,2.4-1.5,3.7-3.3,3.7c-1.9,0-3.2-1.4-3.2-3.6c0-2.2,1.4-3.7,3.3-3.7
			C345.6,12.6,346.8,14.1,346.8,16.2z M341.3,16.3c0,1.5,0.8,2.9,2.3,2.9c1.4,0,2.3-1.3,2.3-2.9c0-1.4-0.7-2.9-2.3-2.9
			C342.1,13.4,341.3,14.7,341.3,16.3z"/>
		<path fill="#FFFFFF" d="M348.4,12.7h3.8v0.8h-2.9v2.4h2.7v0.8h-2.7v3.2h-0.9V12.7z"/>
		<path fill="#FFFFFF" d="M354.9,12.7v7.1H354v-7.1H354.9z"/>
		<path fill="#FFFFFF" d="M361.8,19.6c-0.3,0.2-1,0.3-1.9,0.3c-2,0-3.5-1.3-3.5-3.6c0-2.2,1.5-3.7,3.7-3.7c0.9,0,1.4,0.2,1.7,0.3
			l-0.2,0.7c-0.3-0.2-0.8-0.3-1.4-0.3c-1.7,0-2.8,1.1-2.8,2.9c0,1.7,1,2.8,2.7,2.8c0.6,0,1.1-0.1,1.5-0.3L361.8,19.6z"/>
		<path fill="#FFFFFF" d="M364.3,12.7v7.1h-0.9v-7.1H364.3z"/>
		<path fill="#FFFFFF" d="M370,16.5h-2.8V19h3.1v0.8h-4v-7.1h3.8v0.8h-2.9v2.2h2.8V16.5z"/>
		<path fill="#FFFFFF" d="M371.9,19.8v-7.1h1l2.3,3.6c0.5,0.8,0.9,1.6,1.3,2.3l0,0c-0.1-0.9-0.1-1.8-0.1-2.9v-3h0.9v7.1h-0.9
			l-2.2-3.6c-0.5-0.8-1-1.6-1.3-2.4l0,0c0.1,0.9,0.1,1.7,0.1,2.9v3H371.9z"/>
		<path fill="#FFFFFF" d="M380.6,13.5h-2.2v-0.8h5.2v0.8h-2.2v6.3h-0.9V13.5z"/>
	</g>
</g>
<g>
	<polygon fill="#485566" points="283.9,0 186.6,0 197.6,16.1 186.7,32 283.9,32 294.7,16.1 	"/>
	<g>
		<path fill="#FFFFFF" d="M219.2,12.7h3.8v0.8h-2.9v2.4h2.7v0.8h-2.7v3.2h-0.9V12.7z"/>
		<path fill="#FFFFFF" d="M225.1,17.6l-0.7,2.2h-0.9l2.4-7.1h1.1l2.4,7.1h-1l-0.8-2.2H225.1z M227.4,16.9l-0.7-2
			c-0.2-0.5-0.3-0.9-0.4-1.3h0c-0.1,0.4-0.2,0.9-0.4,1.3l-0.7,2H227.4z"/>
		<path fill="#FFFFFF" d="M236.7,16.7c-0.1-1-0.1-2.2-0.1-3.1h0c-0.2,0.8-0.5,1.7-0.9,2.7l-1.2,3.4h-0.7l-1.1-3.4
			c-0.3-1-0.6-1.9-0.8-2.8h0c0,0.9-0.1,2.1-0.1,3.1l-0.2,3h-0.9l0.5-7.1h1.2l1.2,3.4c0.3,0.9,0.5,1.6,0.7,2.4h0
			c0.2-0.7,0.4-1.5,0.7-2.4l1.3-3.4h1.2l0.4,7.1h-0.9L236.7,16.7z"/>
		<path fill="#FFFFFF" d="M240.5,12.7v7.1h-0.9v-7.1H240.5z"/>
		<path fill="#FFFFFF" d="M242.5,12.7h0.9V19h3v0.8h-3.9V12.7z"/>
		<path fill="#FFFFFF" d="M248.8,12.7v7.1h-0.9v-7.1H248.8z"/>
		<path fill="#FFFFFF" d="M252,17.6l-0.7,2.2h-0.9l2.4-7.1h1.1l2.4,7.1h-1l-0.8-2.2H252z M254.3,16.9l-0.7-2
			c-0.2-0.5-0.3-0.9-0.4-1.3h0c-0.1,0.4-0.2,0.9-0.4,1.3l-0.7,2H254.3z"/>
		<path fill="#FFFFFF" d="M257.7,12.8c0.5-0.1,1.1-0.1,1.8-0.1c1,0,1.6,0.2,2,0.6c0.4,0.3,0.6,0.8,0.6,1.3c0,0.9-0.6,1.6-1.3,1.8v0
			c0.5,0.2,0.9,0.7,1,1.4c0.2,1,0.4,1.7,0.5,1.9h-0.9c-0.1-0.2-0.3-0.8-0.5-1.7c-0.2-1-0.6-1.3-1.4-1.4h-0.9v3.1h-0.9V12.8z
			 M258.6,16h0.9c1,0,1.6-0.5,1.6-1.3c0-0.9-0.7-1.3-1.6-1.3c-0.4,0-0.8,0-0.9,0.1V16z"/>
	</g>
</g>
<g>
	<polygon fill="#485566" points="179.4,16.1 168.6,32 71.4,32 82.2,16.1 71.3,0 168.6,0 	"/>
	<g>
		<path fill="#FFFFFF" d="M102.1,12.8c0.4-0.1,1-0.1,1.7-0.1c0.9,0,1.5,0.2,1.9,0.5c0.4,0.3,0.6,0.7,0.6,1.2c0,0.7-0.5,1.3-1.2,1.6
			v0c0.7,0.2,1.5,0.7,1.5,1.8c0,0.6-0.2,1.1-0.6,1.4c-0.5,0.5-1.3,0.7-2.4,0.7c-0.6,0-1.1,0-1.4-0.1V12.8z M103,15.7h0.8
			c1,0,1.5-0.5,1.5-1.2c0-0.8-0.6-1.2-1.6-1.2c-0.4,0-0.7,0-0.8,0.1V15.7z M103,19.1c0.2,0,0.4,0,0.8,0c0.9,0,1.8-0.3,1.8-1.4
			c0-1-0.8-1.4-1.8-1.4H103V19.1z"/>
		<path fill="#FFFFFF" d="M111.9,16.5h-2.8V19h3.1v0.8h-4v-7.1h3.8v0.8h-2.9v2.2h2.8V16.5z"/>
		<path fill="#FFFFFF" d="M119.2,19.5c-0.4,0.1-1.2,0.4-2.2,0.4c-1.1,0-2-0.3-2.6-0.9c-0.6-0.6-1-1.5-1-2.6c0-2.1,1.5-3.7,3.8-3.7
			c0.8,0,1.5,0.2,1.8,0.3l-0.2,0.7c-0.4-0.2-0.9-0.3-1.6-0.3c-1.7,0-2.8,1.1-2.8,2.8c0,1.8,1.1,2.9,2.7,2.9c0.6,0,1-0.1,1.2-0.2
			v-2.1h-1.4v-0.7h2.3V19.5z"/>
		<path fill="#FFFFFF" d="M121.9,12.7v7.1H121v-7.1H121.9z"/>
		<path fill="#FFFFFF" d="M123.9,19.8v-7.1h1l2.3,3.6c0.5,0.8,0.9,1.6,1.3,2.3l0,0c-0.1-0.9-0.1-1.8-0.1-2.9v-3h0.9v7.1h-0.9
			l-2.2-3.6c-0.5-0.8-1-1.6-1.3-2.4l0,0c0.1,0.9,0.1,1.7,0.1,2.9v3H123.9z"/>
		<path fill="#FFFFFF" d="M131.2,19.8v-7.1h1l2.3,3.6c0.5,0.8,0.9,1.6,1.3,2.3l0,0c-0.1-0.9-0.1-1.8-0.1-2.9v-3h0.9v7.1h-0.9
			l-2.2-3.6c-0.5-0.8-1-1.6-1.3-2.4l0,0c0.1,0.9,0.1,1.7,0.1,2.9v3H131.2z"/>
		<path fill="#FFFFFF" d="M142.2,16.5h-2.8V19h3.1v0.8h-4v-7.1h3.8v0.8h-2.9v2.2h2.8V16.5z"/>
		<path fill="#FFFFFF" d="M144.1,12.8c0.5-0.1,1.1-0.1,1.8-0.1c1,0,1.6,0.2,2,0.6c0.4,0.3,0.6,0.8,0.6,1.3c0,0.9-0.6,1.6-1.3,1.8v0
			c0.5,0.2,0.9,0.7,1,1.4c0.2,1,0.4,1.7,0.5,1.9h-0.9c-0.1-0.2-0.3-0.8-0.5-1.7c-0.2-1-0.6-1.3-1.4-1.4h-0.9v3.1h-0.9V12.8z
			 M145.1,16h0.9c1,0,1.6-0.5,1.6-1.3c0-0.9-0.7-1.3-1.6-1.3c-0.4,0-0.8,0-0.9,0.1V16z"/>
	</g>
</g>
<polygon fill="#485566" points="0,32 53,32 64.1,16.1 53,0 0,0 "/>
</svg>
