<?xml version="1.0" encoding="utf-8"?>
<!-- Generator: Adobe Illustrator 16.0.0, SVG Export Plug-In . SVG Version: 6.00 Build 0)  -->
<!DOCTYPE svg PUBLIC "-//W3C//DTD SVG 1.1//EN" "http://www.w3.org/Graphics/SVG/1.1/DTD/svg11.dtd">
<svg version="1.1" id="Layer_1" xmlns="http://www.w3.org/2000/svg" xmlns:xlink="http://www.w3.org/1999/xlink" x="0px" y="0px"
	 width="32px" height="32px" viewBox="0 0 32 32" enable-background="new 0 0 32 32" xml:space="preserve">
<g>
	<g id="Background_1_">
		<rect x="0.9" y="0.9" fill="#282320" width="30.3" height="30.3"/>
		<g>
			<path fill="#949494" d="M30.3,1.7v28.5H1.7V1.7H30.3 M32,0H0v32h32V0L32,0z"/>
		</g>
	</g>
	<path fill="#949494" d="M22.9,19.7c0-0.3-0.1-0.5-0.2-0.6c-0.1-0.2-0.3-0.3-0.5-0.4c-0.2-0.1-0.5-0.2-0.8-0.3s-0.6-0.1-0.9-0.2
		c-0.4-0.1-0.8-0.2-1.2-0.3c-0.4-0.1-0.7-0.3-1-0.5c-0.3-0.2-0.5-0.5-0.7-0.8s-0.3-0.7-0.3-1.2c0-0.6,0.1-1,0.3-1.4
		c0.2-0.4,0.5-0.7,0.8-1c0.3-0.3,0.7-0.5,1.2-0.6c0.4-0.1,0.9-0.2,1.5-0.2c0.6,0,1.1,0.1,1.7,0.2c0.6,0.1,1,0.3,1.4,0.4v1.6
		c-0.5-0.2-1.1-0.4-1.6-0.5c-0.5-0.1-1-0.1-1.4-0.1c-0.6,0-1.1,0.1-1.5,0.3c-0.3,0.2-0.5,0.6-0.5,1c0,0.3,0.1,0.5,0.2,0.7
		s0.3,0.3,0.5,0.4c0.2,0.1,0.4,0.2,0.7,0.3c0.3,0.1,0.5,0.1,0.8,0.2c0.4,0.1,0.9,0.2,1.3,0.3c0.4,0.1,0.8,0.3,1.1,0.5
		c0.3,0.2,0.6,0.5,0.7,0.9s0.3,0.8,0.3,1.3c0,0.6-0.1,1-0.3,1.5c-0.2,0.4-0.5,0.7-0.9,1c-0.4,0.3-0.8,0.5-1.4,0.6
		c-0.5,0.1-1.1,0.2-1.8,0.2c-0.6,0-1.1-0.1-1.7-0.2c-0.5-0.1-1-0.3-1.4-0.5v-1.6c0.5,0.2,1,0.4,1.5,0.5c0.5,0.1,1,0.2,1.5,0.2
		c0.3,0,0.6,0,0.9-0.1s0.6-0.1,0.8-0.3c0.2-0.1,0.4-0.3,0.6-0.5C22.8,20.3,22.9,20,22.9,19.7z"/>
	<path fill="#949494" d="M6.5,7.9c0,0,2.5,0,4.5,0c2.1,0,3.5,0.4,4.5,1.2c0.9,0.7,1.6,2,1.6,3.4s-0.5,2.7-1.4,3.5
		c-1.1,1.1-2.8,1.6-4.8,1.6c-0.4,0-0.8,0-1.1-0.1v5.3H6.5V7.9z M9.8,14.9c0.3,0.1,0.6,0.1,1.1,0.1c1.8,0,2.9-0.9,2.9-2.4
		c0-1.4-0.9-2.2-2.6-2.2c-0.7,0-1.1,0.1-1.4,0.1V14.9z"/>
</g>
</svg>
