<?xml version="1.0" encoding="utf-8"?>
<!-- Generator: Adobe Illustrator 22.1.0, SVG Export Plug-In . SVG Version: 6.00 Build 0)  -->
<svg version="1.1" id="Layer_1" xmlns="http://www.w3.org/2000/svg" xmlns:xlink="http://www.w3.org/1999/xlink" x="0px" y="0px"
	 viewBox="0 0 112 128" enable-background="new 0 0 112 128" xml:space="preserve">
<g>
	<rect x="-8" y="0" fill="none" width="128" height="128"/>
	<g>
		<g>
			<path fill="#FFFFFF" d="M104.2,26.1l-40.4-24C59-0.7,53-0.7,48.2,2.1l-40.4,24C3,29,0,34.3,0,40v48c0,5.7,3,11,7.8,13.9l40.4,24
				c2.4,1.4,5.1,2.1,7.8,2.1c2.7,0,5.4-0.7,7.8-2.1l40.4-24C109,99,112,93.7,112,88V40C112,34.3,109,29,104.2,26.1z"/>
		</g>
		<g>
			<path fill="#283037" d="M104.2,26.1l-40.4-24C61.4,0.7,58.7,0,56,0c-2.7,0-5.4,0.7-7.8,2.1l-40.4,24C3,29,0,34.3,0,40v48
				c0,5.7,3,11,7.8,13.9l40.4,24c2.4,1.4,5.1,2.1,7.8,2.1c2.7,0,5.4-0.7,7.8-2.1l40.4-24C109,99,112,93.7,112,88V40
				C112,34.3,109,29,104.2,26.1z M49.6,123.4l-40.4-24c-4-2.3-6.4-6.7-6.4-11.4V40c0-4.7,2.5-9.1,6.4-11.4l40.4-24
				c1.9-1.2,4.1-1.8,6.4-1.8s4.4,0.6,6.4,1.8l40.4,24c3.3,2,5.6,5.4,6.2,9.2c-1.3-2.9-4.4-3.6-7.9-1.6L62.9,59.9
				c-4.8,2.8-8.3,5.9-8.3,11.7v47.1c0,3.4,1.4,5.7,3.5,6.3c-0.7,0.1-1.4,0.2-2.1,0.2C53.7,125.2,51.5,124.5,49.6,123.4z"/>
		</g>
		<g>
			<path fill="#4DA825" d="M93.6,92.6l-10.1,6c-0.3,0.2-0.5,0.3-0.5,0.7v2.6c0,0.3,0.2,0.5,0.5,0.3L93.8,96c0.3-0.2,0.3-0.5,0.3-0.8
				v-2.3C94.1,92.6,93.9,92.5,93.6,92.6z"/>
		</g>
		<g>
			<path fill="#FFFFFF" d="M72.2,70.5c0.3-0.2,0.6,0,0.6,0.5l0,3.5c1.5-0.6,2.7-0.7,3.9-0.5c0.2,0.1,0.4,0.4,0.3,0.8l-0.8,3.1
				c-0.1,0.2-0.2,0.5-0.3,0.6c-0.1,0.1-0.1,0.1-0.2,0.1c-0.1,0.1-0.2,0.1-0.3,0c-0.5-0.1-1.8-0.4-3.7,0.6c-2.1,1-2.8,2.8-2.8,4.1
				c0,1.6,0.8,2.1,3.6,2.1c3.7,0.1,5.3,1.7,5.4,5.5c0,3.7-1.9,7.7-4.9,10.1l0.1,3.4c0,0.4-0.3,0.9-0.6,1.1l-2,1.2
				c-0.3,0.2-0.6,0-0.6-0.5l0-3.4c-1.7,0.7-3.5,0.9-4.7,0.4c-0.2-0.1-0.3-0.4-0.2-0.8l0.7-3.1c0.1-0.2,0.2-0.5,0.4-0.6
				c0.1-0.1,0.1-0.1,0.2-0.1c0.1-0.1,0.2-0.1,0.3,0c1.2,0.4,2.8,0.2,4.3-0.5c1.9-1,3.2-2.9,3.2-4.8c0-1.8-1-2.5-3.3-2.5
				c-2.9,0-5.7-0.6-5.7-4.9c0-3.6,1.8-7.3,4.7-9.6l0-3.5c0-0.4,0.3-0.9,0.6-1.1L72.2,70.5z"/>
		</g>
	</g>
</g>
</svg>
