<?xml version="1.0" encoding="utf-8"?>
<!-- Generator: Adobe Illustrator 22.1.0, SVG Export Plug-In . SVG Version: 6.00 Build 0)  -->
<svg version="1.1" id="Icon" xmlns="http://www.w3.org/2000/svg" xmlns:xlink="http://www.w3.org/1999/xlink" x="0px" y="0px"
	 viewBox="0 0 427.4 427.4" enable-background="new 0 0 427.4 427.4" xml:space="preserve">
<path fill="#F64D27" d="M419.3,194.7L232.7,8.1c-10.7-10.7-28.2-10.7-38.9,0l-38.7,38.8L204.2,96c11.4-3.9,24.5-1.3,33.6,7.8
	c9.2,9.2,11.7,22.4,7.8,33.8L293,185c11.5-3.9,24.7-1.4,33.8,7.8c12.8,12.8,12.8,33.5,0,46.3c-12.8,12.8-33.5,12.8-46.3,0
	c-9.6-9.6-12-23.8-7.1-35.6l-44.2-44.2l0,116.3c3.1,1.5,6.1,3.6,8.7,6.2c12.8,12.8,12.8,33.5,0,46.3c-12.8,12.8-33.5,12.8-46.3,0
	c-12.8-12.8-12.8-33.5,0-46.3c3.2-3.2,6.8-5.5,10.7-7.1V157.3c-3.9-1.6-7.6-4-10.7-7.1c-9.7-9.7-12-23.9-7.1-35.8L136,65.8
	L8.1,193.8c-10.8,10.8-10.8,28.2,0,38.9l186.6,186.6c10.7,10.7,28.2,10.7,38.9,0l185.7-185.7C430.1,222.9,430.1,205.4,419.3,194.7"
	/>
</svg>
