<?xml version="1.0" encoding="utf-8"?>
<!-- Generator: Adobe Illustrator 22.1.0, SVG Export Plug-In . SVG Version: 6.00 Build 0)  -->
<svg version="1.1" id="Gopher" xmlns="http://www.w3.org/2000/svg" xmlns:xlink="http://www.w3.org/1999/xlink" x="0px" y="0px"
	 viewBox="0 0 200.7 256.7" enable-background="new 0 0 200.7 256.7" xml:space="preserve">
<g>
	<path fill="#8CC5E7" d="M199.2,33.9c-6.7-13.7-22.9-1.6-27-5.9c-21-21.6-46.4-27-66.3-28c0,0-9,0-11,0c-20,0.5-45.4,6.3-66.3,28
		c-4.1,4.3-20.4-7.8-27,5.9c-7.7,16,15.7,17.6,14.5,24.7c-2.3,12.8-0.8,31.8,1,50.5c2.8,31.7-20.9,107.6,28.4,138.1
		c9.3,5.8,34.4,9,56.2,9.5l0,0h0.1h0.1l0,0c21.8-0.5,43.9-3.7,53.2-9.5c49.4-30.5,25.7-106.4,28.6-138.1c1.7-18.7,3.2-37.7,1-50.5
		C183.5,51.5,206.9,49.8,199.2,33.9z"/>
	<g>
		<path fill="#E0DEDC" d="M135.1,43.6c-33.4,3.9-28.9,38.7-16,50c24,21,49,0,46.2-21.2C162.8,52,145.5,42.4,135.1,43.6z"/>
		<circle fill="#111212" cx="137.4" cy="73.6" r="11.4"/>
		<circle fill="#FFFFFF" cx="134.4" cy="68.7" r="3.6"/>
	</g>
	<g>
		<path fill="#B8937F" d="M100.4,96.3c-16,2.4-21.7,7-20.5,14.2c2,11.8,39.7,10.5,40.9,0.6C121.8,102.6,106.7,95.4,100.4,96.3z"/>
		<path d="M90.1,101.1c-2.7,9.8,21.7,8.3,21.1,2c-0.3-3.7-3.6-8.4-12.3-8.2C95.5,95,91.3,96.5,90.1,101.1z"/>
		<path fill="#E0DEDC" d="M90.9,117c-0.9,0.4-2.4,10.2,2.2,10.7c3.1,0.3,11.6,1.3,13.6,0c3.9-2.5,3.5-8.5,1.3-10
			C104.3,115.3,91.9,116.5,90.9,117z"/>
	</g>
	<g>
		<path fill="#E0DEDC" d="M65.5,43.6c33.4,3.9,28.9,38.7,16,50c-24,21-49,0-46.2-21.2C37.9,52,55.2,42.4,65.5,43.6z"/>
		<circle fill="#111212" cx="63.3" cy="73.6" r="11.4"/>
		<circle fill="#FFFFFF" cx="66.3" cy="68.7" r="3.6"/>
	</g>
	<path fill="#B8937F" d="M185.5,176c11,0.1,5.6-23.5-1.2-18.8c-3.3,2.3-3.9,7.6-3.9,12.1C180.4,171.8,182.4,175.9,185.5,176z"/>
	<path fill="#B8937F" d="M15.2,176c-11,0.1-5.6-23.5,1.2-18.8c3.3,2.3,3.9,7.6,3.9,12.1C20.3,171.8,18.3,175.9,15.2,176z"/>
	<path fill="#B8937F" d="M164.6,248.5c-6-8.9-11.4-2-20.1,2.4c-4.1,2.1,6.8,9.6,19,4C166.7,253.4,166.6,251.4,164.6,248.5z"/>
	<path fill="#B8937F" d="M36.1,249.5c6-8.9,11.4-2,20.1,2.4c4.1,2.1-6.8,9.6-19,4C34,254.4,34.1,252.4,36.1,249.5z"/>
	<path fill="#3C89BF" d="M180.5,36.3c-0.6,2.1,2.1,1.8,3.1,8.3c0.4,2.4,9-3.5,5.5-7.8C186.2,33.2,181,34.2,180.5,36.3z"/>
	<path fill="#3C89BF" d="M20.2,36.3c0.6,2.1-2.1,1.8-3.1,8.3c-0.4,2.4-9-3.5-5.5-7.8C14.4,33.2,19.6,34.2,20.2,36.3z"/>
</g>
</svg>
