<?xml version="1.0" encoding="utf-8"?>
<!-- Generator: Adobe Illustrator 22.1.0, SVG Export Plug-In . SVG Version: 6.00 Build 0)  -->
<svg version="1.1" id="Ps" xmlns="http://www.w3.org/2000/svg" xmlns:xlink="http://www.w3.org/1999/xlink" x="0px" y="0px"
	 viewBox="0 0 190 190" enable-background="new 0 0 190 190" xml:space="preserve">
<g id="Background_2_">
	<polygon fill="#301C10" points="3.5,186.4 3.5,3.5 186.4,3.5 186.5,186.4 	"/>
	<path fill="#F18523" d="M182.9,7l0.1,175.9H7V7H182.9 M189.9,0H0v189.9h190L189.9,0L189.9,0z"/>
</g>
<g>
	<path fill="#F18523" d="M116.5,131.1l-11.5,0l-7.5-20.5l-38.1,0.1L52,131.2l-11.5,0l32.3-85.1l11,0L116.5,131.1z M62.8,101.2
		l31.4-0.1L78.3,56.9L62.8,101.2z"/>
	<path fill="#F18523" d="M127.4,51.7c0-2,0.6-3.7,1.9-5.1c1.3-1.4,3-2.2,5.1-2.2c2.1,0,3.8,0.7,5.1,2.2c1.3,1.4,1.9,3.1,1.9,5.1
		c0,2-0.6,3.7-1.9,5.1c-1.3,1.5-3,2.2-5.1,2.2c-2.1,0-3.8-0.7-5.1-2.2C128.1,55.4,127.5,53.7,127.4,51.7z M129.1,131.1L129,69.8
		l11,0l0.1,61.2L129.1,131.1z"/>
</g>
</svg>
