<?xml version="1.0" encoding="utf-8"?>
<!-- Generator: Adobe Illustrator 22.1.0, SVG Export Plug-In . SVG Version: 6.00 Build 0)  -->
<svg version="1.1" id="Icon" xmlns="http://www.w3.org/2000/svg" xmlns:xlink="http://www.w3.org/1999/xlink" x="0px" y="0px"
	 viewBox="0 0 274.4 371.4" enable-background="new 0 0 274.4 371.4" xml:space="preserve">
<g id="Cup">
	<path fill="#5382A1" d="M50.5,360.9c0,0,78.7,8.4,122.4,3.7s84.7-12.2,101.1-27.5c0,0,2.5,27.2-100.1,33
		C75.4,375.7,50.5,360.9,50.5,360.9z"/>
	<path fill="#5382A1" d="M0,335.8c0-11.8,46.9-26.8,58.6-20c0,0-34.9,5.6-34.9,13.6S82.4,344,116,344s137.2-4.8,137.2-21.7
		c0-3.1-1.8-4.6-1.8-4.6s6.2,2.5,6.2,6.6c0,5.8-22.4,29-142.2,29C82.8,353.4,0,349.4,0,335.8z"/>
	<path fill="#5382A1" d="M87.2,287.6c0,0-16.5,4.6-16.5,11.9s22.9,18.2,57.1,18.2c42.7,0,67.1-13.2,67.1-13.2l-19.5-9.2
		c0,0-33.1,5.2-47.5,5.2s-44.1-2.4-44.1-7.7C83.9,289.8,87.2,287.6,87.2,287.6z"/>
	<path fill="#5382A1" d="M79.2,246.7c0,0-19.5,6-19.5,13.5s42.9,29.2,142.2,5.2c0,0-12-4.3-14.9-8.9c0,0-112.1,16.8-112.1-3.6
		C74.9,250.2,79.2,246.7,79.2,246.7z"/>
	<path fill="#5382A1" d="M94.1,203.9c0,0-63.5,8-63.5,20.2s99.8,21,168.5,3l16-9c-2.2,0.3-139.2,22.1-157.7,3.2
		C52.4,216.2,94.1,203.9,94.1,203.9z"/>
	<path fill="#5382A1" d="M274,227.5c0-16.4-16-27.6-30.5-27.1s-19.4,7.8-19.4,7.8s28.6-13.6,35.1,19.4c3.8,19.4-44.1,45.8-44.1,45.8
		S274,261.1,274,227.5z"/>
</g>
<g id="Steam">
	<path fill="#E76F00" d="M137.6,203.4c-0.8,0.8-49.3-39.8-49.3-66.8s46.4-54.6,59.8-68s28.1-27.7,28.1-44.6s-2.1-24-2.1-24
		s10.1,6.9,10.1,32.7C184.2,55,158.1,80,153,85c-12.8,12.8-45.3,31.5-45.3,58.6C107.7,166.1,140,201,137.6,203.4z"/>
	<path fill="#E76F00" d="M220.4,76c0,0-82.7,22-82.7,64.3c0,27.8,23.5,36.5,23.5,52.8c0,13.7-10.8,22.8-10.8,22.8
		s29.5-13.7,29.5-36.5c0-17.8-20.8-26.2-20.8-47.9S220.4,76,220.4,76z"/>
</g>
</svg>
