<?xml version="1.0" encoding="utf-8"?>
<!-- Generator: Adobe Illustrator 22.1.0, SVG Export Plug-In . SVG Version: 6.00 Build 0)  -->
<svg version="1.1" id="Icon" xmlns="http://www.w3.org/2000/svg" xmlns:xlink="http://www.w3.org/1999/xlink" x="0px" y="0px"
	 viewBox="0 0 200 200" enable-background="new 0 0 200 200" xml:space="preserve">
<rect id="Background" fill="#F0DB4F" width="200" height="200"/>
<path id="S" fill="#323330" d="M164.5,114.4l13.9-9c0,0-9.6-14.4-25.7-14.8s-28.2,11.9-28.2,25.7s12.5,22.5,24.5,28.3
	s16.6,7,16.6,14.4s-6.9,8.6-12.9,8.6s-15.2-4.3-18.4-10.6l-15.1,8.9c0,0,9.2,18.3,32.5,18.1c23.2-0.2,32-14.2,32-24.8
	s-4.2-22.4-25.1-30.8c-16.5-8.1-15.8-7.4-15.8-13.2s4.8-8.3,10-8.3S164.5,114.4,164.5,114.4z"/>
<path id="J" fill="#323330" d="M90,160.9c-0.2,3.6-3.4,7.1-9.6,7.2c-6.2,0.1-11-4.4-12.9-9.5l-13.8,9.4c0,0,7.7,15.7,27.5,15.7
	c23,0,26.4-20,26.9-22V92H90L90,160.9z"/>
</svg>
