<?xml version="1.0" encoding="utf-8"?>
<!-- Generator: Adobe Illustrator 22.0.1, SVG Export Plug-In . SVG Version: 6.00 Build 0)  -->
<svg version="1.1" id="Layer_1" xmlns="http://www.w3.org/2000/svg" xmlns:xlink="http://www.w3.org/1999/xlink" x="0px" y="0px"
	 viewBox="0 0 351.2 87.2" style="enable-background:new 0 0 351.2 87.2;" xml:space="preserve">
<style type="text/css">
	.st0{fill:#FFFFFF;}
	.st1{fill:#AEC912;}
</style>
<title>Lantern_Logo_Purple on white2</title>
<path class="st0" d="M52.3,75.2c9.6,0,17.7-7,17.7-18.1s-8.1-18.2-17.7-18.2C41.9,38.8,35,47,35,57.1S41.9,75.2,52.3,75.2
	 M84.5,28.2v57.6h-14v-9.9c-3.3,5.9-11,11.3-21,11.3c-17.1,0-29.1-13.6-29.1-30.1s12-30.3,29.1-30.3c10,0,17.9,5.2,20.8,11.3v-9.9
	L84.5,28.2z"/>
<path class="st0" d="M107.7,85.8H93.1V28.2h14.1V38c2.7-6.7,10.2-11.2,19.2-11.2c13.9,0,21.6,10.2,21.6,24.5v34.5h-14.6V53.7
	c0-8.2-3.7-14.2-12.4-14.2c-8,0-13.4,5.8-13.4,14.1V85.8z"/>
<path class="st0" d="M155.9,11h14.6v17.2h14.9v12h-14.9v26.2c0,6,2.3,8.7,8,8.7c2.2,0,4.3-0.4,6.4-1v11.6c-3.3,1-6.7,1.5-10.2,1.5
	c-13.6,0-18.7-8.2-18.7-21.5V40.2l0,0v-12l0,0L155.9,11z"/>
<path class="st0" d="M201.4,52.3h32.6c-0.9-8.9-6.8-15.1-16.2-15.1C208.8,37.2,202.5,43,201.4,52.3 M201.5,61.9
	c0.9,8.7,6.5,14.6,16.7,14.6c7,0,12.5-3.1,15.2-7.5H247c-3.9,10.3-15,18.3-28.8,18.3c-19.6,0-31.1-13.1-31.1-30.3
	c0-17.4,12.6-30.1,30.4-30.1c18.1,0,30.3,12.6,30.3,30.4v4.7L201.5,61.9z"/>
<path class="st0" d="M289.3,42.2h-3.1c-11.7,0-17.1,6.8-17.1,18v25.6h-14.5V28.2h14.1v12.5c2.8-9.1,10.5-12.9,20.7-12.9V42.2z"/>
<path class="st0" d="M310.9,85.8h-14.6V28.2h14.1V38c2.7-6.7,10.2-11.2,19.2-11.2c13.9,0,21.6,10.2,21.6,24.5v34.5h-14.5V53.7
	c0-8.2-3.7-14.2-12.4-14.2c-8,0-13.4,5.8-13.4,14.1L310.9,85.8z"/>
<rect y="2.9" class="st0" width="14.6" height="84.3"/>
<polygon class="st1" points="350.8,22 190.5,12.2 190.5,10.6 350.8,0 "/>
</svg>
