<?xml version="1.0" encoding="utf-8"?>
<!-- Generator: Adobe Illustrator 22.1.0, SVG Export Plug-In . SVG Version: 6.00 Build 0)  -->
<svg version="1.1" id="Ps" xmlns="http://www.w3.org/2000/svg" xmlns:xlink="http://www.w3.org/1999/xlink" x="0px" y="0px"
	 viewBox="0 0 190 190" enable-background="new 0 0 190 190" xml:space="preserve">
<g id="Background_2_">
	<polygon fill="#072730" points="3.5,186.4 3.5,3.5 186.4,3.5 186.5,186.4 	"/>
	<path fill="#41C6ED" d="M182.9,7l0.1,175.9H7V7H182.9 M189.9,0H0v189.9h190L189.9,0L189.9,0z"/>
</g>
<g>
	<path fill="#41C6ED" d="M97.7,71c0,4.1-0.8,7.8-2.5,11c-1.7,3.3-4.1,6.1-7.1,8.4s-6.7,4.1-10.8,5.3c-4.2,1.2-8.7,1.9-13.5,1.9
		l-5.6,0l0.1,33.6l-11.3,0l-0.2-85l19.7,0c4.4,0,8.5,0.5,12.3,1.5c3.8,1,7.1,2.6,9.9,4.6c2.8,2.1,5,4.7,6.6,7.8
		C96.9,63.2,97.7,66.9,97.7,71z M86.5,70.9c0-2.8-0.5-5.2-1.6-7.1c-1.1-1.9-2.5-3.5-4.4-4.7c-1.8-1.2-4-2.1-6.5-2.7
		c-2.5-0.5-5.1-0.8-7.9-0.8l-8.1,0l0.1,32.5l6,0c3.3,0,6.3-0.4,9-1.2c2.7-0.8,5.1-1.9,7.1-3.4c2-1.5,3.5-3.3,4.6-5.4
		C85.9,76.1,86.5,73.7,86.5,70.9z"/>
	<path fill="#41C6ED" d="M146.2,113.5c0,2.9-0.6,5.5-1.8,7.8c-1.2,2.3-2.8,4.3-4.9,5.9c-2.1,1.6-4.5,2.9-7.4,3.8
		c-2.9,0.9-6,1.4-9.3,1.4c-1.5,0-3-0.1-4.7-0.2c-1.6-0.2-3.3-0.4-4.9-0.8c-1.6-0.3-3.2-0.7-4.7-1.2c-1.5-0.5-2.8-1-3.9-1.5l1.8-9.1
		c2.1,0.9,4.6,1.8,7.3,2.5c2.7,0.8,5.8,1.1,9.1,1.1c3.5,0,6.5-0.7,8.9-2c2.4-1.3,3.6-3.4,3.6-6.3c0-1.4-0.3-2.6-1-3.6
		c-0.7-1.1-1.5-2-2.6-2.8c-1.1-0.8-2.3-1.5-3.7-2.2c-1.4-0.7-2.9-1.4-4.5-2c-2.1-0.8-4.3-1.8-6.4-2.9c-2.1-1.1-4.1-2.3-5.8-3.8
		c-1.8-1.5-3.2-3.2-4.3-5.2c-1.1-2-1.7-4.3-1.7-7c0-3,0.6-5.5,1.8-7.7c1.2-2.1,2.7-3.9,4.6-5.2c1.9-1.4,4.1-2.4,6.7-3
		c2.5-0.6,5.1-1,7.8-1c3.1,0,6.1,0.3,9.1,1.1c2.9,0.7,5.6,1.7,8,3l-1.8,8.7c-2.4-1.2-4.8-2.1-7.4-2.7c-2.6-0.6-5.2-0.9-7.8-0.9
		c-2.9,0-5.3,0.5-7.2,1.5s-2.9,2.9-2.9,5.6c0,1.3,0.4,2.4,1,3.3c0.7,0.9,1.6,1.7,2.7,2.4c1.1,0.7,2.3,1.4,3.6,2
		c1.3,0.6,2.5,1.2,3.7,1.8c1.1,0.5,2.7,1.2,4.8,2.2c2.1,0.9,4.2,2.1,6.3,3.6c2.1,1.5,3.9,3.3,5.5,5.5
		C145.4,107.7,146.2,110.4,146.2,113.5z"/>
</g>
</svg>
