<?xml version="1.0" encoding="utf-8"?>
<!-- Generator: Adobe Illustrator 23.0.6, SVG Export Plug-In . SVG Version: 6.00 Build 0)  -->
<svg version="1.1" id="Layer_1" xmlns="http://www.w3.org/2000/svg" xmlns:xlink="http://www.w3.org/1999/xlink" x="0px" y="0px"
	 viewBox="0 0 211.31 237.32" enable-background="new 0 0 211.31 237.32" xml:space="preserve">
<path fill="#333333" d="M206.3,186c-1.69,0-3.18,0.84-4.09,2.12c0,0-4.38,4.99-6.73,7.35c-9.98,9.98-21.6,17.81-34.53,23.28
	c-13.39,5.66-27.61,8.53-42.28,8.53c-14.67,0-28.9-2.87-42.28-8.53c-12.94-5.47-24.55-13.31-34.53-23.28
	c-9.98-9.98-17.81-21.6-23.29-34.53c-5.66-13.39-8.53-27.61-8.53-42.28s2.87-28.89,8.53-42.28c5.47-12.93,13.3-24.55,23.29-34.53
	c9.98-9.98,21.6-17.81,34.53-23.29c13.39-5.66,27.61-8.53,42.28-8.53c14.67,0,28.89,2.87,42.28,8.53
	c9.42,3.99,18.14,9.23,26.04,15.64c-0.42,1.24-0.66,2.58-0.66,3.96c0,6.77,5.49,12.26,12.26,12.26c6.77,0,12.26-5.49,12.26-12.26
	c0-6.77-5.49-12.26-12.26-12.26c-1.68,0-3.28,0.34-4.74,0.95C173.37,10.08,147.19,0,118.66,0C53.13,0,0,53.12,0,118.66
	s53.13,118.66,118.66,118.66c36.66,0,69.42-16.64,91.18-42.76c0.91-0.91,1.47-2.16,1.47-3.54C211.31,188.25,209.07,186,206.3,186z"
	/>
<polygon fill="#333333" points="131.12,67.26 106.81,67.26 71.71,158.36 93.7,158.36 99.43,142.93 132.6,142.93 126.6,125.85 
	104.76,125.85 118.96,86.65 144.23,158.36 166.22,158.36 "/>
</svg>
