<?xml version="1.0" encoding="utf-8"?>
<!-- Generator: Adobe Illustrator 23.0.6, SVG Export Plug-In . SVG Version: 6.00 Build 0)  -->
<svg version="1.1"
	 id="svg4136" inkscape:export-filename="C:\Projects\cesium.com\website\images\logos\ion\ion_white.png" inkscape:export-xdpi="97.829803" inkscape:export-ydpi="97.829803" inkscape:version="0.92.2 (5c3e80d, 2017-08-06)" sodipodi:docname="cesiumjs-dark.svg" xmlns:cc="http://creativecommons.org/ns#" xmlns:dc="http://purl.org/dc/elements/1.1/" xmlns:inkscape="http://www.inkscape.org/namespaces/inkscape" xmlns:rdf="http://www.w3.org/1999/02/22-rdf-syntax-ns#" xmlns:sodipodi="http://sodipodi.sourceforge.net/DTD/sodipodi-0.dtd" xmlns:svg="http://www.w3.org/2000/svg"
	 xmlns="http://www.w3.org/2000/svg" xmlns:xlink="http://www.w3.org/1999/xlink" x="0px" y="0px" viewBox="0 0 86.71 87.15"
	 enable-background="new 0 0 86.71 87.15" xml:space="preserve">
<g id="surface22972" transform="translate(-55.115158,-581.21968)">
	<circle id="XMLID_441_-2-7" fill="#FFFFFF" cx="98.69" cy="624.79" r="43.57"/>
	<g id="XMLID_435_-2-8" transform="matrix(1.0576056,0,0,1.0576056,4.8789041,17.51583)">
		<g id="XMLID_440_-5-1">
			<path id="path43-6-9" inkscape:connector-curvature="0" fill="#7A9C49" d="M122,568.8c-1.2,0-2.4,0.7-3.3,1.9l-11.4,15.1
				c-1.9,2.5-4.6,3.9-7.4,3.9l0,0l0,0c-2.8,0-5.5-1.4-7.4-3.9l-11.4-15.1c-0.9-1.2-2.1-1.9-3.3-1.9c-1.2,0-2.4,0.7-3.3,1.9
				l-11.4,15.1c-1.9,2.5-4.5,3.9-7.3,3.9c5.8,12.3,18.3,20.8,32.8,20.8c20,0,36.3-16.2,36.3-36.3c0-1.4-0.1-2.8-0.3-4.2
				C123.9,569.2,123,568.8,122,568.8z"/>
		</g>
		<path id="XMLID_437_-9-6" inkscape:connector-curvature="0" fill="#6DABE4" d="M88.7,537.9c-20,0-36.3,16.2-36.3,36.3
			c0,3.2,0.5,6.3,1.2,9.2c0.7,0.5,1.4,0.8,2.2,0.8c1.2,0,2.4-0.7,3.3-1.9l11.4-15.1c1.9-2.5,4.6-3.9,7.4-3.9c2.8,0,5.5,1.4,7.4,3.9
			l11,14.5l0.5,0.6c0.9,1.2,2.1,1.8,3.2,1.9c1.2,0,2.3-0.7,3.2-1.9l0.5-0.6l11-14.5c1.9-2.5,4.6-3.9,7.4-3.9c0.4,0,0.9,0,1.3,0.1
			C118.8,548.6,105,537.9,88.7,537.9L88.7,537.9z M100.8,560.9c-2.1,0-3.8-1.7-3.8-3.8s1.7-3.8,3.8-3.8c2.1,0,3.8,1.7,3.8,3.8
			S102.9,560.9,100.8,560.9z"/>
	</g>
</g>
</svg>
