<?xml version="1.0" encoding="utf-8"?>
<!-- Generator: Adobe Illustrator 23.0.6, SVG Export Plug-In . SVG Version: 6.00 Build 0)  -->
<svg version="1.1" id="logoHorizontal" xmlns="http://www.w3.org/2000/svg" xmlns:xlink="http://www.w3.org/1999/xlink" x="0px"
	 y="0px" viewBox="0 0 714.54 512.74" enable-background="new 0 0 714.54 512.74" xml:space="preserve">
<path fill="#2496ED" d="M707.49,193.56c-1.94-1.54-20.03-15.2-58.18-15.2c-10.07,0.04-20.13,0.91-30.06,2.58
	c-7.38-50.61-49.23-75.29-51.1-76.39l-10.24-5.91l-6.74,9.72c-8.44,13.06-14.6,27.46-18.21,42.58c-6.83,28.89-2.68,56.03,12,79.23
	c-17.72,9.88-46.15,12.31-51.9,12.52H22.37c-12.29,0.02-22.27,9.95-22.34,22.25c-0.55,41.23,6.44,82.22,20.61,120.95
	c16.21,42.52,40.34,73.84,71.72,93.01c35.17,21.54,92.3,33.84,157.07,33.84c29.26,0.09,58.46-2.56,87.23-7.91
	c39.99-7.34,78.46-21.32,113.84-41.35c29.15-16.88,55.38-38.35,77.69-63.6c37.29-42.21,59.51-89.23,76.03-131.01
	c2.22,0,4.43,0,6.58,0c40.83,0,65.93-16.34,79.78-30.03c9.2-8.73,16.38-19.37,21.04-31.17l2.92-8.55L707.49,193.56z"/>
<path fill="#2496ED" d="M66,228.91h63.07c3.04,0,5.51-2.47,5.51-5.51l0,0v-56.18c0.02-3.04-2.43-5.52-5.48-5.54
	c-0.01,0-0.02,0-0.03,0H66c-3.04,0-5.51,2.47-5.51,5.51c0,0.01,0,0.02,0,0.03v56.18C60.49,226.44,62.95,228.91,66,228.91L66,228.91"
	/>
<path fill="#2496ED" d="M152.91,228.91h63.07c3.04,0,5.51-2.47,5.51-5.51l0,0v-56.18c0.02-3.04-2.43-5.52-5.48-5.54
	c-0.01,0-0.02,0-0.03,0h-63.07c-3.06,0-5.54,2.48-5.54,5.54v56.18C147.39,226.45,149.87,228.91,152.91,228.91"/>
<path fill="#2496ED" d="M241.15,228.91h63.07c3.04,0,5.51-2.47,5.51-5.51l0,0v-56.18c0.02-3.04-2.43-5.52-5.48-5.54
	c-0.01,0-0.02,0-0.03,0h-63.07c-3.04,0-5.51,2.47-5.51,5.51c0,0.01,0,0.02,0,0.03v56.18C235.65,226.44,238.11,228.91,241.15,228.91
	L241.15,228.91"/>
<path fill="#2496ED" d="M328.35,228.91h63.07c3.05,0,5.52-2.46,5.54-5.51v-56.18c0-3.06-2.48-5.54-5.54-5.54l0,0h-63.07
	c-3.04,0-5.51,2.47-5.51,5.51c0,0.01,0,0.02,0,0.03v56.18C322.84,226.44,325.31,228.91,328.35,228.91L328.35,228.91"/>
<path fill="#2496ED" d="M152.91,148.08h63.07c3.05-0.02,5.51-2.49,5.51-5.54V86.36c0-3.04-2.47-5.51-5.51-5.51l0,0h-63.07
	c-3.05,0-5.52,2.46-5.54,5.51v56.18C147.39,145.6,149.86,148.07,152.91,148.08"/>
<path fill="#2496ED" d="M241.15,148.08h63.07c3.05-0.02,5.51-2.49,5.51-5.54V86.36c0-3.04-2.47-5.51-5.51-5.51l0,0h-63.07
	c-3.04,0-5.51,2.47-5.51,5.51l0,0v56.18C235.65,145.59,238.11,148.07,241.15,148.08"/>
<path fill="#2496ED" d="M328.35,148.08h63.07c3.05-0.02,5.52-2.49,5.54-5.54V86.36c-0.02-3.05-2.49-5.51-5.54-5.51h-63.07
	c-3.04,0-5.51,2.47-5.51,5.51l0,0v56.18C322.84,145.59,325.3,148.07,328.35,148.08"/>
<path fill="#2496ED" d="M328.35,67.23h63.07c3.05,0,5.52-2.46,5.54-5.51V5.51C396.94,2.46,394.47,0,391.42,0h-63.07
	c-3.04,0-5.51,2.46-5.51,5.51l0,0v56.21C322.84,64.76,325.31,67.23,328.35,67.23"/>
<path fill="#2496ED" d="M416.31,228.91h63.07c3.05,0,5.52-2.46,5.54-5.51v-56.18c0-3.06-2.48-5.54-5.54-5.54l0,0h-63.07
	c-3.04,0-5.51,2.47-5.51,5.51c0,0.01,0,0.02,0,0.03v56.18C410.81,226.44,413.27,228.91,416.31,228.91"/>
</svg>
