<?xml version="1.0" encoding="utf-8"?>
<!-- Generator: Adobe Illustrator 23.0.6, SVG Export Plug-In . SVG Version: 6.00 Build 0)  -->
<svg version="1.1" id="Layer_1" xmlns="http://www.w3.org/2000/svg" xmlns:xlink="http://www.w3.org/1999/xlink" x="0px" y="0px"
	 viewBox="0 0 91.89 91.89" enable-background="new 0 0 91.89 91.89" xml:space="preserve">
<g>
	<path fill="#F05133" d="M90.15,41.85L50.04,1.73c-2.31-2.31-6.06-2.31-8.37,0l-8.33,8.33L43.9,20.63c2.46-0.83,5.27-0.27,7.23,1.68
		c1.97,1.97,2.52,4.81,1.67,7.27l10.19,10.18c2.46-0.85,5.31-0.3,7.28,1.67c2.75,2.75,2.75,7.21,0,9.96c-2.75,2.75-7.21,2.75-9.96,0
		c-2.07-2.07-2.58-5.11-1.53-7.66l-9.5-9.5v25c0.67,0.33,1.3,0.77,1.86,1.33c2.75,2.75,2.75,7.21,0,9.96
		c-2.75,2.75-7.21,2.75-9.96,0c-2.75-2.75-2.75-7.21,0-9.96c0.68-0.68,1.47-1.19,2.31-1.54V33.81c-0.84-0.34-1.62-0.85-2.31-1.54
		c-2.08-2.08-2.58-5.14-1.52-7.7L29.24,14.16L1.73,41.66c-2.31,2.31-2.31,6.06,0,8.37l40.12,40.12c2.31,2.31,6.06,2.31,8.37,0
		l39.93-39.93C92.47,47.91,92.47,44.16,90.15,41.85z"/>
</g>
</svg>
