<?xml version="1.0" encoding="utf-8"?>
<!-- Generator: Adobe Illustrator 23.0.6, SVG Export Plug-In . SVG Version: 6.00 Build 0)  -->
<svg version="1.1" id="Layer_1" xmlns="http://www.w3.org/2000/svg" xmlns:xlink="http://www.w3.org/1999/xlink" x="0px" y="0px"
	 viewBox="0 0 348.52 391.6" enable-background="new 0 0 348.52 391.6" xml:space="preserve">
<g id="Duke_1_">
	<path fill-rule="evenodd" clip-rule="evenodd" fill="#DA2590" d="M142.8,137.72c3.37,5.66,1.09,45.19-2.85,59.07
		c-3.95,13.88-7.89,31.53-8.81,46.39c-0.4,6.33,0.8,8.82,5.96,8.82c9.09,0,20.63-15.39,35.14-15.04s19.11,17.65,25.9,17.54
		c6.79-0.12,12.26-2.01,12.32-18.85C210.66,185.36,158.14,144.6,142.8,137.72L142.8,137.72z"/>
	<path fill-rule="evenodd" clip-rule="evenodd" fill="#DA2590" d="M188.35,177.9c3.19,4.32,11.34,0.99,11.68-3.88
		c0.35-4.87-0.54-11.02-4.49-11.25c-3.94-0.23-6.76-3.4-10.7-3.63c-3.95-0.23-8.17,2.94-10.02-1.27c-1.84-4.2,4.95-5.98,10.02-6.65
		c-4.52-3.63-7.17-7.65-9.15-11.83c-1.99-4.18-3.45-8.01,2.1-9.65c5.55-1.64,5.09,6.79,11.45,10.65c-1.87-5.68-2.56-8.04-2.41-11.34
		c0.14-3.3-0.14-5.82,5.7-5.18c5.84,0.64,3.31,10.4,7.86,14.37c1.38-3.76,2.21-8.55,5.55-10.51c3.34-1.96,10.94-2.01,6.1,6.05
		c-4.84,8.06,1.41,12.43-0.06,18.78c-1.47,6.35-6.01,5.2-7.97,9.29c-1.96,4.09,1.15,13.4-2.53,17.58
		c-3.68,4.18-4.34,10.63-1.95,15.75C192.18,189.68,188.35,177.9,188.35,177.9L188.35,177.9z"/>
	<path fill-rule="evenodd" clip-rule="evenodd" fill="#DA2590" d="M142.6,183.32c-2.96,16.33-13.27,18.27-13.79,25.04
		c-0.52,6.77,2.73,7.42,2.53,13.68c-0.2,6.26-7.14,8.8-7.97,12.2c-0.84,3.4,3.57,4.48,6.13,4.48c2.56,0,5.12-9.01,6.16-14.74
		c1.04-5.73-3.4-9.1-3.4-13.03c0-3.93,6.42-11.11,5.24-4.81C142.83,199.4,145.36,190.81,142.6,183.32L142.6,183.32z"/>
	<path fill-rule="evenodd" clip-rule="evenodd" fill="#FFFFFF" d="M146.57,189.56c-2.25,8.82-16.26,58.1-9.13,58.73
		c7.14,0.62,17.3-15.25,33.96-15.13c16.66,0.12,23.23,17.79,27.28,17.67c4.06-0.12,6.73,1.16,7.17-18.76
		c0.43-19.92-14.71-45.37-23.66-56.58C170.05,176.11,156.96,183.92,146.57,189.56L146.57,189.56z"/>
	<path fill="#DA2590" d="M160.47,192.75c8.61,0.21,17.38-4.97,17.64-12.5c0.26-7.53-7.6-10.44-14.39-10.12
		c-6.79,0.32-16.58,5.02-16.78,11.07C146.74,187.25,151.86,192.54,160.47,192.75L160.47,192.75z"/>
	<path fill-rule="evenodd" clip-rule="evenodd" fill="#FFFFFF" d="M155.81,175.65c2.47-1.43,5.18-1.8,5.98-0.92
		c0.81,0.92-0.51,2.82-2.93,4.25c-2.41,1.43-5.06,1.85-5.92,0.92C152.12,179.02,153.38,177.09,155.81,175.65L155.81,175.65z"/>
</g>
<path id="Graphql" fill="#DA2590" d="M330.96,246c-2.95-1.7-6.05-2.9-9.2-3.67v-93.04c3.19-0.76,6.32-1.98,9.3-3.69
	c16.7-9.7,22.4-31,12.8-47.7c-9.7-16.7-31-22.4-47.7-12.8c-3,1.74-5.65,3.87-7.91,6.27l-80.54-46.5c0.94-3.16,1.45-6.5,1.45-9.97
	c0-19.3-15.6-34.9-34.9-34.9s-34.9,15.6-34.9,34.9c0,3.45,0.51,6.78,1.43,9.92L60.24,91.33c-2.26-2.39-4.89-4.5-7.88-6.23
	c-16.7-9.6-38.1-3.9-47.7,12.8c-9.6,16.7-3.9,38.1,12.8,47.7c2.98,1.71,6.11,2.93,9.3,3.69v93.03c-3.15,0.76-6.25,1.97-9.2,3.67
	c-16.7,9.7-22.4,31-12.8,47.7c9.6,16.7,30.9,22.4,47.7,12.8c2.96-1.72,5.56-3.8,7.8-6.16l80.52,46.49
	c-0.92,3.13-1.42,6.44-1.42,9.87c0,19.3,15.6,34.9,34.9,34.9s34.9-15.7,34.9-34.9c0-3.84-0.63-7.54-1.77-10.99l80.05-46.22
	c2.42,2.72,5.3,5.1,8.62,7.01c16.7,9.6,38.1,3.9,47.7-12.8C353.46,277,347.76,255.7,330.96,246z M68.93,268
	c-0.76-3.15-1.97-6.25-3.67-9.2c-1.71-2.95-3.79-5.55-6.14-7.78L164.54,68.42c3.08,0.89,6.34,1.38,9.72,1.38
	c3.39,0,6.65-0.49,9.75-1.39l105.4,182.56c-2.36,2.25-4.44,4.86-6.15,7.83c-1.7,2.95-2.9,6.05-3.67,9.2H68.93z M280.05,105.81
	c-2.49,8.76-1.59,18.47,3.31,26.99c4.91,8.55,12.92,14.2,21.8,16.41v93.15c-0.45,0.11-0.9,0.23-1.35,0.36L198.39,60.12
	c0.32-0.3,0.63-0.61,0.93-0.93L280.05,105.81z M149.16,59.16c0.32,0.34,0.66,0.66,0.99,0.99L44.73,242.74
	c-0.45-0.13-0.91-0.25-1.37-0.37v-93.16c8.88-2.21,16.89-7.86,21.8-16.41c4.91-8.54,5.81-18.27,3.29-27.05L149.16,59.16z
	 M200.07,333.19c-6.38-7-15.57-11.39-25.81-11.39c-9.88,0-18.79,4.1-25.13,10.68l-80.6-46.54c0.13-0.45,0.25-0.89,0.36-1.35h210.74
	c0.19,0.77,0.39,1.53,0.64,2.29L200.07,333.19z"/>
</svg>
