<?xml version="1.0" encoding="utf-8"?>
<!-- Generator: Adobe Illustrator 23.0.6, SVG Export Plug-In . SVG Version: 6.00 Build 0)  -->
<svg version="1.1" id="Layer_1" xmlns="http://www.w3.org/2000/svg" xmlns:xlink="http://www.w3.org/1999/xlink" x="0px" y="0px"
	 viewBox="0 0 274.01 371.36" enable-background="new 0 0 274.01 371.36" xml:space="preserve">
<path fill="#5482A2" d="M50.47,360.94c0,0,78.65,8.44,122.4,3.69s84.67-12.25,101.12-27.5c0,0,2.54,27.17-100.12,32.98
	C75.41,375.68,50.47,360.94,50.47,360.94z"/>
<path fill="#5482A2" d="M0,335.75c0-11.75,46.88-26.75,58.62-20c0,0-34.88,5.62-34.88,13.62s58.63,14.67,92.29,14.67
	s137.17-4.83,137.17-21.67c0-3.12-1.83-4.62-1.83-4.62s6.17,2.5,6.17,6.62c0,5.83-22.42,29-142.17,29
	C82.75,353.38,0,349.38,0,335.75z"/>
<path fill="#5482A2" d="M87.25,287.62c0,0-16.5,4.62-16.5,11.88s22.88,18.25,57.12,18.25c42.67,0,67.12-13.25,67.12-13.25
	l-19.5-9.25c0,0-33.12,5.25-47.5,5.25s-44.12-2.38-44.12-7.71C83.88,289.79,87.25,287.62,87.25,287.62z"/>
<path fill="#5482A2" d="M79.21,246.71c0,0-19.5,6-19.5,13.5s42.92,29.17,142.17,5.17c0,0-12.04-4.29-14.92-8.92
	c0,0-112.09,16.79-112.09-3.61C74.87,250.23,79.21,246.71,79.21,246.71z"/>
<path fill="#5482A2" d="M94.12,203.88c0,0-63.5,8-63.5,20.25s99.75,21,168.5,3l16-9c-2.15,0.29-139.23,22.07-157.73,3.17
	C52.44,216.24,94.12,203.88,94.12,203.88z"/>
<path fill="#5482A2" d="M274,227.5c0-16.38-16-27.62-30.5-27.12s-19.38,7.75-19.38,7.75s28.62-13.58,35.12,19.38
	c3.83,19.44-44.12,45.75-44.12,45.75S274,261.12,274,227.5z"/>
<path fill="#E67125" d="M137.63,203.38c-0.83,0.83-49.25-39.75-49.25-66.75s46.38-54.62,59.75-68s28.08-27.75,28.08-44.58
	S174.06,0,174.06,0s10.15,6.88,10.15,32.71c0,22.33-26.08,47.25-31.17,52.33c-12.84,12.84-45.33,31.5-45.33,58.58
	C107.71,166.12,140.04,200.96,137.63,203.38z"/>
<path fill="#E67125" d="M220.38,76.04c0,0-82.67,22-82.67,64.33c0,27.75,23.5,36.5,23.5,52.83c0,13.67-10.83,22.83-10.83,22.83
	s29.5-13.71,29.5-36.54c0-17.75-20.75-26.21-20.75-47.88S220.38,76.04,220.38,76.04z"/>
</svg>
