<?xml version="1.0" encoding="utf-8"?>
<!-- Generator: Adobe Illustrator 23.0.6, SVG Export Plug-In . SVG Version: 6.00 Build 0)  -->
<svg version="1.1" id="Icon" xmlns="http://www.w3.org/2000/svg" xmlns:xlink="http://www.w3.org/1999/xlink" x="0px" y="0px"
	 viewBox="0 0 200 200" enable-background="new 0 0 200 200" xml:space="preserve">
<rect id="Background" fill="#F0DB4F" width="200" height="200"/>
<path id="S" fill="#323330" d="M164.5,114.38l13.88-9c0,0-9.56-14.38-25.69-14.75s-28.19,11.87-28.19,25.71s12.5,22.54,24.5,28.29
	s16.62,7,16.62,14.38s-6.88,8.62-12.88,8.62s-15.25-4.31-18.38-10.56l-15.12,8.88c0,0,9.25,18.31,32.5,18.15
	c23.25-0.17,32-14.17,32-24.83s-4.17-22.42-25.08-30.75c-16.46-8.12-15.79-7.42-15.79-13.21s4.83-8.29,9.96-8.29
	S164.5,114.38,164.5,114.38z"/>
<path id="J" fill="#323330" d="M89.98,160.93c-0.16,3.64-3.4,7.12-9.59,7.24c-6.18,0.12-11.04-4.43-12.91-9.49l-13.82,9.41
	c0,0,7.71,15.67,27.46,15.67c23.02,0,26.38-20.01,26.88-22.01V92H90L89.98,160.93z"/>
</svg>
