<?xml version="1.0" encoding="utf-8"?>
<!-- Generator: Adobe Illustrator 23.0.6, SVG Export Plug-In . SVG Version: 6.00 Build 0)  -->
<svg version="1.1" id="Layer_1" xmlns="http://www.w3.org/2000/svg" xmlns:xlink="http://www.w3.org/1999/xlink" x="0px" y="0px"
	 viewBox="0 0 165.72 193.05" enable-background="new 0 0 165.72 193.05" xml:space="preserve">
<g id="Bottom">
	<polygon fill="#E1CD3E" points="89.88,100.37 158.22,60.96 158.22,140.74 90.29,180.08 	"/>
	<g>
		<path fill="#B4B4B5" d="M150.72,73.95v62.47l-52.99,30.69l-0.32-62.41L150.72,73.95 M165.72,47.98L82.36,96.05l0.5,97l82.86-47.98
			V47.98L165.72,47.98z"/>
	</g>
</g>
<g id="Left">
	<polygon fill="#E1CD3E" points="7.5,140.74 7.5,61.04 74.88,100.37 75.29,180 	"/>
	<g>
		<path fill="#A5A4A4" d="M15,74.1l52.4,30.59l0.32,62.26L15,136.42V74.1 M0,47.98v97.09l82.86,47.98l-0.5-97L0,47.98L0,47.98z"/>
	</g>
</g>
<g id="Top">
	<polygon fill="#FEEA5F" points="14.98,48.04 83.73,8.67 150.79,47.93 82.38,87.38 	"/>
	<path fill="#C3C3C3" d="M83.69,17.33l52.17,30.55L82.4,78.71L29.97,48.1L83.69,17.33 M83.78,0L0,47.98l82.36,48.07l83.36-48.07
		L83.78,0L83.78,0z"/>
</g>
</svg>
