<?xml version="1.0" encoding="utf-8"?>
<!-- Generator: Adobe Illustrator 23.0.6, SVG Export Plug-In . SVG Version: 6.00 Build 0)  -->
<svg version="1.1" id="Layer_1" xmlns="http://www.w3.org/2000/svg" xmlns:xlink="http://www.w3.org/1999/xlink" x="0px" y="0px"
	 viewBox="0 0 186.55 208.39" enable-background="new 0 0 186.55 208.39" xml:space="preserve">
<linearGradient id="SVGID_1_" gradientUnits="userSpaceOnUse" x1="980.8973" y1="-1252.1584" x2="1074.9451" y2="-1252.1584" gradientTransform="matrix(0.986 0.1668 0.1668 -0.986 -754.5725 -1251.4628)">
	<stop  offset="0" style="stop-color:#89C442"/>
	<stop  offset="1" style="stop-color:#74B844"/>
</linearGradient>
<path fill="url(#SVGID_1_)" d="M3.51,92.39c2.23,2.61,46.1,17.22,61.35,34.97c15.25,17.75,21.91,33.6,19.75,48.83
	c-2.15,15.23-11.47,14.98-15.54,20.53c-4.07,5.55-9.69,12.39-20.49,11.66c-14.14-0.95-28.72-8.01-39.25-32.54
	c-10.53-24.53-9.72-47.57-8.88-60.35c0.84-12.78,3.04-23.1,3.04-23.1L3.51,92.39z"/>
<linearGradient id="SVGID_2_" gradientUnits="userSpaceOnUse" x1="983.0204" y1="-1255.9746" x2="1064.2274" y2="-1255.9746" gradientTransform="matrix(0.986 0.1668 0.1668 -0.986 -763.546 -1257.149)">
	<stop  offset="0" style="stop-color:#74B844"/>
	<stop  offset="1" style="stop-color:#4A9634"/>
</linearGradient>
<path fill="url(#SVGID_2_)" d="M0.88,100.6l65.69,97.93l-3.03,3.38"/>
<path fill-rule="evenodd" clip-rule="evenodd" fill="#3C3C3B" d="M-250.89,236.71l0.62-4.34c17.52-9.34,39.34-12.93,57.11-21.94
	c5.33,2.4,7.7-1.06,13.38-0.74c2.06,1.86-2.59,4.35,2.97,3.97c12.65,1.68,24.97-0.68,37.41-1.74c13.12-1.12,26.15,0.13,39.02-0.63
	c4.11-0.24,10.44-5.93,15.48-3.1c2.28,4.13-7.44,4.49-4.83,9.05c25.76,6.06,90.19,31.68,101.21,3.81c0.15,1.7-1.93,5.06,1.11,4.59
	c21.72-9.72,58.63-30.71,65.13-36.21c7.14-6.04,16.66-5.85,26-8c16.82-3.87,34.77-7.81,49.33-16.29c9,6.25,27.84,9.36,37.91,7.18
	c10.51-2.28,26.82-19.73,35.55-25.9c3.43-2.42,8.45-7.13,12.14-4.46c-2.48,1.7,0.44,6.68-2.6,5.82c-1.59-3.04-4.76,0.47-7.07-0.12
	c-8.79,7.21-17.92,13.96-26.88,20.94c-4.18,2.57,4.03,5.23-0.87,6.07c-23.14,4.6-58.38-6.92-72.97,9.07
	c-23.11,7.91-44.98,9.92-67.76,22.2c-13.09,7.06-29.11,19.9-42.73,26.65c-2.31,1.15-5.69,1.55-8.42,3.23
	c-3.32,2.04-4.14,4.6-6.94,5.2c-6.98,1.5-21.4-2.14-30.48-3.46c-30.28-4.4-62.61-16.75-91.18-18.31
	c-11.3-0.62-24.64,1.17-37.41,1.74c-27.15,1.23-44.13,1.87-65.9,9.19c-8.9,3-22.59,10.93-28.36,6.58L-250.89,236.71z"/>
<linearGradient id="SVGID_3_" gradientUnits="userSpaceOnUse" x1="987.5482" y1="2293.0857" x2="1145.3154" y2="2293.0857" gradientTransform="matrix(-0.9481 0.318 0.318 0.9481 405.2612 -2402.4463)">
	<stop  offset="0" style="stop-color:#C1EA71"/>
	<stop  offset="1" style="stop-color:#ACDA55"/>
</linearGradient>
<path fill="url(#SVGID_3_)" d="M168.65,0c-3.05,4.94-72.6,40.81-93.47,74.47c-20.87,33.67-26.83,60.17-19.26,85.09
	c7.57,24.91,22.03,23.79,30.28,32.01c8.25,8.22,19.43,18.19,37.3,14.17c23.4-5.27,45.94-20.89,57.16-64.65
	c11.21-43.76,3.86-82.08-0.88-103.24C175.03,16.69,168.65,0,168.65,0L168.65,0z"/>
<linearGradient id="SVGID_4_" gradientUnits="userSpaceOnUse" x1="991.1382" y1="2284.5093" x2="1128.6172" y2="2284.5093" gradientTransform="matrix(-0.9481 0.318 0.318 0.9481 405.2685 -2402.3027)">
	<stop  offset="0" style="stop-color:#ACDA55"/>
	<stop  offset="1" style="stop-color:#89C442"/>
</linearGradient>
<path fill="url(#SVGID_4_)" d="M167.47,7.39L83.13,188.28l4.95,4.97"/>
</svg>
