<?xml version="1.0" encoding="utf-8"?>
<!-- Generator: Adobe Illustrator 23.0.3, SVG Export Plug-In . SVG Version: 6.00 Build 0)  -->
<svg version="1.1" id="Ps" xmlns="http://www.w3.org/2000/svg" xmlns:xlink="http://www.w3.org/1999/xlink" x="0px" y="0px"
	 viewBox="0 0 190 190" enable-background="new 0 0 190 190" xml:space="preserve">
<g id="Background_2_">
	<polygon fill="#072730" points="3.5,186.4 3.5,3.5 186.4,3.5 186.5,186.4 	"/>
	<path fill="#41C6ED" d="M182.9,7l0.1,175.9H7V7H182.9 M189.9,0H0v189.9h190L189.9,0L189.9,0z"/>
</g>
<path fill="#41C6ED" d="M143.9,81.7c-4.3-3.1-8.8-4.7-13.5-4.7c-2.7,0-4.7,0.6-6,1.7c-1.3,1.2-1.9,2.5-1.9,4.1s0.5,3,1.6,4.2
	c1.1,1.2,3.4,2.6,6.8,4.2c6.4,2.8,10.9,5.8,13.5,9c2.6,3.2,3.9,7.2,3.9,12.2c0,6-2,10.9-6,14.6c-4,3.7-9.4,5.5-16.1,5.5
	c-6.8,0-12.3-1.4-16.7-4.3c-0.5-0.2-0.7-0.6-0.7-1.3v-12.4c0-0.4,0.1-0.6,0.3-0.7c0.2-0.1,0.4-0.1,0.5,0.1c5,4.3,10.4,6.4,16.1,6.4
	c2.7,0,4.8-0.6,6.2-1.7c1.4-1.1,2.1-2.6,2.1-4.3c0-1.9-0.6-3.4-1.7-4.7c-1.2-1.3-3.4-2.7-6.8-4.2c-6.2-2.8-10.5-5.7-12.9-8.9
	c-2.4-3.2-3.6-7.1-3.6-11.9c0-5.5,1.8-10.1,5.4-13.9c3.6-3.7,8.8-5.6,15.5-5.6c6.2,0,11.1,1,14.5,2.9c0.4,0.3,0.6,0.8,0.6,1.7v11.1
	C145,81.9,144.6,82.2,143.9,81.7z"/>
<path fill="#41C6ED" d="M46,130.3v-87c0-0.6,0.3-0.9,0.8-0.9c5.9-0.2,13.3-0.3,22.3-0.3c10.6,0,18.5,2.8,23.4,8.3
	c5,5.5,7.5,12.3,7.5,20.4c0,10.1-3.1,17.5-9.3,22.4c-6.2,4.9-13.9,7.3-23.3,7.3h-6.8v29.6c0,0.7-0.3,1.1-0.9,1.1H46.9
	C46.3,131.3,46,131,46,130.3z M60.7,55v32.8c1.1,0.2,3.6,0.3,7.5,0.3c5.2,0,9.4-1.3,12.6-3.9c3.2-2.6,4.8-6.9,4.8-12.9
	c0-5.2-1.4-9.3-4.2-12.1c-2.8-2.8-6.9-4.3-12.2-4.3c-1.3,0-2.6,0-3.9,0.1C64,55,63,55,62.2,55C61.3,55,60.9,55,60.7,55z"/>
</svg>
