<?xml version="1.0" encoding="utf-8"?>
<!-- Generator: Adobe Illustrator 23.0.6, SVG Export Plug-In . SVG Version: 6.00 Build 0)  -->
<svg version="1.1" id="Layer_1" xmlns="http://www.w3.org/2000/svg" xmlns:xlink="http://www.w3.org/1999/xlink" x="0px" y="0px"
	 viewBox="0 0 122.7 142.8" style="enable-background:new 0 0 122.7 142.8;" xml:space="preserve">
<style type="text/css">
	.st0{fill:#95BF47;}
	.st1{fill:#5E8E3E;}
	.st2{fill:#FFFFFF;}
</style>
<g>
	<g>
		<path class="st0" d="M107.4,27.1c-0.1-0.7-0.7-1.1-1.2-1.1s-10.4-0.2-10.4-0.2s-8.3-8-9.1-8.9c-0.8-0.8-2.4-0.6-3-0.4
			c0,0-1.6,0.5-4.2,1.3c-0.4-1.4-1.1-3.1-2-4.9C74.6,7.3,70.2,4.3,65,4.3l0,0c-0.4,0-0.7,0-1.1,0.1c-0.2-0.2-0.3-0.4-0.5-0.5
			c-2.3-2.4-5.2-3.6-8.7-3.5C48,0.6,41.3,5.5,35.8,14.1c-3.8,6.1-6.7,13.7-7.6,19.6c-7.7,2.4-13.1,4.1-13.3,4.1
			c-3.9,1.2-4,1.3-4.5,5C10.2,45.6,0,124.5,0,124.5l85.6,14.8l37.1-9.2C122.6,130.1,107.5,27.8,107.4,27.1z M75.2,19.2
			c-2,0.6-4.2,1.3-6.6,2.1c0-3.4-0.5-8.2-2-12.2C71.7,9.9,74.2,15.7,75.2,19.2z M64.1,22.6c-4.5,1.4-9.4,2.9-14.3,4.4
			c1.4-5.3,4-10.5,7.2-14c1.2-1.3,2.9-2.7,4.8-3.5C63.8,13.4,64.2,18.9,64.1,22.6z M54.9,4.9c1.6,0,2.9,0.3,4,1.1
			c-1.8,0.9-3.6,2.3-5.2,4.1c-4.3,4.6-7.6,11.7-8.9,18.6c-4.1,1.3-8.1,2.5-11.7,3.6C35.5,21.4,44.6,5.2,54.9,4.9z"/>
		<g>
			<path class="st1" d="M106.2,26c-0.5,0-10.4-0.2-10.4-0.2s-8.3-8-9.1-8.9c-0.3-0.3-0.7-0.5-1.1-0.5v122.9l37.1-9.2
				c0,0-15.1-102.3-15.2-103C107.3,26.4,106.7,26,106.2,26z"/>
			<path class="st2" d="M65,45.1l-4.3,16.1c0,0-4.8-2.2-10.5-1.8c-8.4,0.5-8.4,5.8-8.4,7.1c0.5,7.2,19.4,8.8,20.5,25.7
				c0.8,13.3-7,22.4-18.4,23.1C30.3,116,22.8,108,22.8,108l2.9-12.3c0,0,7.6,5.7,13.6,5.3c3.9-0.2,5.4-3.5,5.2-5.7
				c-0.6-9.4-16-8.8-17-24.3C26.7,58,35.2,44.9,54,43.7C61.3,43.2,65,45.1,65,45.1z"/>
		</g>
	</g>
</g>
</svg>
