<?xml version="1.0" encoding="utf-8"?>
<!-- Generator: Adobe Illustrator 23.0.6, SVG Export Plug-In . SVG Version: 6.00 Build 0)  -->
<svg version="1.1" id="Layer_1" xmlns="http://www.w3.org/2000/svg" xmlns:xlink="http://www.w3.org/1999/xlink" x="0px" y="0px"
	 viewBox="0 0 65.27 58.52" enable-background="new 0 0 65.27 58.52" xml:space="preserve">
<g id="Cube">
	<path id="Right_7_" fill="#A1C3D0" d="M44.7,9.64l-10.36,7.12c-0.27,0.19-0.43,0.49-0.43,0.82v9.93c0,0.81,0.9,1.28,1.57,0.82
		l10.36-7.12c0.27-0.19,0.43-0.49,0.43-0.82v-9.93C46.27,9.66,45.37,9.18,44.7,9.64z"/>
	<path id="Left" fill="#69ACC5" d="M29.79,28.35l-10.36-7.12C19.16,21.04,19,20.73,19,20.4v-9.93c0-0.81,0.9-1.28,1.57-0.82
		l10.36,7.12c0.27,0.19,0.43,0.49,0.43,0.82v9.93C31.36,28.33,30.46,28.8,29.79,28.35z"/>
	<path id="Top" fill="#CCE3EA" d="M44.56,7.43l-11.14,6.01c-0.3,0.16-0.66,0.16-0.96-0.01L21.11,7.11c-0.71-0.4-0.68-1.43,0.06-1.78
		l11.15-5.23c0.27-0.13,0.59-0.13,0.86,0.01l11.34,5.55C45.25,6.01,45.27,7.05,44.56,7.43z"/>
</g>
<g id="Cube_3_">
	<path id="Right_3_" fill="#A1C3D0" d="M25.7,39.64l-10.36,7.12c-0.27,0.19-0.43,0.49-0.43,0.82v9.93c0,0.81,0.9,1.28,1.57,0.82
		l10.36-7.12c0.27-0.19,0.43-0.49,0.43-0.82v-9.93C27.27,39.66,26.37,39.18,25.7,39.64z"/>
	<path id="Left_3_" fill="#69ACC5" d="M10.79,58.35L0.43,51.22C0.16,51.04,0,50.73,0,50.4v-9.93c0-0.81,0.9-1.28,1.57-0.82
		l10.36,7.12c0.27,0.19,0.43,0.49,0.43,0.82v9.93C12.36,58.33,11.46,58.8,10.79,58.35z"/>
	<path id="Top_4_" fill="#CCE3EA" d="M25.56,37.43l-11.14,6.01c-0.3,0.16-0.66,0.16-0.96-0.01L2.11,37.11
		c-0.71-0.4-0.68-1.43,0.06-1.78l11.15-5.23c0.27-0.13,0.59-0.13,0.86,0.01l11.34,5.55C26.25,36.01,26.27,37.05,25.56,37.43z"/>
</g>
<g id="Cube_2_">
	<path id="Right_5_" fill="#A1C3D0" d="M63.7,39.64l-10.36,7.12c-0.27,0.19-0.43,0.49-0.43,0.82v9.93c0,0.81,0.9,1.28,1.57,0.82
		l10.36-7.12c0.27-0.19,0.43-0.49,0.43-0.82v-9.93C65.27,39.66,64.37,39.18,63.7,39.64z"/>
	<path id="Left_5_" fill="#69ACC5" d="M48.79,58.35l-10.36-7.12C38.16,51.04,38,50.73,38,50.4v-9.93c0-0.81,0.9-1.28,1.57-0.82
		l10.36,7.12c0.27,0.19,0.43,0.49,0.43,0.82v9.93C50.36,58.33,49.46,58.8,48.79,58.35z"/>
	<path id="Top_5_" fill="#CCE3EA" d="M63.56,37.43l-11.14,6.01c-0.3,0.16-0.66,0.16-0.96-0.01l-11.35-6.33
		c-0.71-0.4-0.68-1.43,0.06-1.78l11.15-5.23c0.27-0.13,0.59-0.13,0.86,0.01l11.34,5.55C64.25,36.01,64.27,37.05,63.56,37.43z"/>
</g>
</svg>
