<?xml version="1.0" encoding="utf-8"?>
<!-- Generator: Adobe Illustrator 23.0.6, SVG Export Plug-In . SVG Version: 6.00 Build 0)  -->
<svg version="1.1" id="Layer_1" xmlns="http://www.w3.org/2000/svg" xmlns:xlink="http://www.w3.org/1999/xlink" x="0px" y="0px"
	 viewBox="0 0 1187 1187" enable-background="new 0 0 1187 1187" xml:space="preserve">
<rect id="Background" x="0" fill="#2279BE" stroke="#FFFFFF" stroke-miterlimit="10" width="1187" height="1187"/>
<path id="S" fill="#FFFFFF" d="M1058.96,626.86c0,0-33.8-86.2-153.73-86.2c-118.07,0-162.66,77.02-162.66,142.23
	s20.21,117.09,120.61,164.93s117.85,52.61,118.59,89.62c0.8,39.75-38.04,56.6-81.01,55.25c-42.97-1.35-78.52-27.22-102.77-66.98
	l-88.44,52.16c0,0,45.82,111.85,201.47,112.53c155.65,0.67,184.63-112.53,181.93-150.93S1092.79,835,989.19,783.8
	c-95.89-47.39-146.41-55.26-136.78-111.18c8.56-49.74,95.52-43.33,114.77,1.15c2.83,6.54,9.42,8.69,9.42,8.69
	s16.92-10.34,41.5-26.15C1042.67,640.49,1058.96,626.86,1058.96,626.86z"/>
<polygon id="T" fill="#FFFFFF" points="259.42,546.84 259.42,644.31 415.74,644.31 415.74,1082.89 521.97,1082.89 521.97,644.31 
	677.12,644.31 677.12,546.84 "/>
</svg>
