<?xml version="1.0" encoding="utf-8"?>
<!-- Generator: Adobe Illustrator 16.0.0, SVG Export Plug-In . SVG Version: 6.00 Build 0)  -->
<!DOCTYPE svg PUBLIC "-//W3C//DTD SVG 1.1//EN" "http://www.w3.org/Graphics/SVG/1.1/DTD/svg11.dtd">
<svg version="1.1" id="Layer_1" xmlns="http://www.w3.org/2000/svg" xmlns:xlink="http://www.w3.org/1999/xlink" x="0px" y="0px"
	 width="918.5px" height="812px" viewBox="0 0 918.5 812" enable-background="new 0 0 918.5 812" xml:space="preserve">
<g>
	<g>
		<rect x="3" y="2" fill="#FFFFFF" width="686" height="639"/>
		<path fill="#153D71" d="M687,4v635H5V4H687 M691,0H1v643h690V0L691,0z"/>
	</g>
	<g>
		<path fill="#153D71" d="M322,213c0,4.4-3.6,8-8,8h-51c-4.4,0-8-3.6-8-8v-22c0-4.4,3.6-8,8-8h51c4.4,0,8,3.6,8,8V213z"/>
	</g>
	<g>
		<path fill="#153D71" d="M244,213c0,4.4-3.6,8-8,8h-51c-4.4,0-8-3.6-8-8v-22c0-4.4,3.6-8,8-8h51c4.4,0,8,3.6,8,8V213z"/>
	</g>
	<g>
		<path fill="#153D71" d="M284,145c0,4.4-3.6,8-8,8h-62c-4.4,0-8-3.6-8-8v-22c0-4.4,3.6-8,8-8h62c4.4,0,8,3.6,8,8V145z"/>
	</g>
	<g>
		<path fill="#153D71" d="M278,82c0,4.4-3.6,8-8,8h-50c-4.4,0-8-3.6-8-8V60c0-4.4,3.6-8,8-8h50c4.4,0,8,3.6,8,8V82z"/>
	</g>
	<g>
		<path fill="#153D71" d="M421,82c0,4.4-3.6,8-8,8h-50c-4.4,0-8-3.6-8-8V60c0-4.4,3.6-8,8-8h50c4.4,0,8,3.6,8,8V82z"/>
	</g>
	<g>
		<path fill="#153D71" d="M547,82c0,4.4-3.6,8-8,8h-60c-4.4,0-8-3.6-8-8V60c0-4.4,3.6-8,8-8h60c4.4,0,8,3.6,8,8V82z"/>
	</g>
	<g>
		<path fill="#153D71" d="M607,145c0,4.4-3.6,8-8,8h-74c-4.4,0-8-3.6-8-8v-22c0-4.4,3.6-8,8-8h74c4.4,0,8,3.6,8,8V145z"/>
	</g>
	<g>
		<path fill="#153D71" d="M596,213c0,4.4-3.6,8-8,8h-53c-4.4,0-8-3.6-8-8v-22c0-4.4,3.6-8,8-8h53c4.4,0,8,3.6,8,8V213z"/>
	</g>
	<g>
		<path fill="#153D71" d="M500,213c0,4.4-3.6,8-8,8h-60c-4.4,0-8-3.6-8-8v-22c0-4.4,3.6-8,8-8h60c4.4,0,8,3.6,8,8V213z"/>
	</g>
	<g>
		<path fill="#153D71" d="M244,268c0,4.4-3.6,8-8,8h-51c-4.4,0-8-3.6-8-8v-22c0-4.4,3.6-8,8-8h51c4.4,0,8,3.6,8,8V268z"/>
	</g>
	<g>
		<path fill="#153D71" d="M244,319c0,4.4-3.6,8-8,8h-51c-4.4,0-8-3.6-8-8v-22c0-4.4,3.6-8,8-8h51c4.4,0,8,3.6,8,8V319z"/>
	</g>
	<g>
		<path fill="#153D71" d="M177,397c0,4.4-3.6,8-8,8h-52c-4.4,0-8-3.6-8-8v-22c0-4.4,3.6-8,8-8h52c4.4,0,8,3.6,8,8V397z"/>
	</g>
	<g>
		<path fill="#153D71" d="M183,459c0,4.4-3.6,8-8,8h-65c-4.4,0-8-3.6-8-8v-22c0-4.4,3.6-8,8-8h65c4.4,0,8,3.6,8,8V459z"/>
	</g>
	<g>
		<path fill="#153D71" d="M127,539c0,4.4-3.6,8-8,8H25c-4.4,0-8-3.6-8-8v-22c0-4.4,3.6-8,8-8h94c4.4,0,8,3.6,8,8V539z"/>
	</g>
	<g>
		<path fill="#153D71" d="M123,605c0,4.4-3.6,8-8,8H30c-4.4,0-8-3.6-8-8v-22c0-4.4,3.6-8,8-8h85c4.4,0,8,3.6,8,8V605z"/>
	</g>
	<g>
		<path fill="#153D71" d="M287,539c0,4.4-3.6,8-8,8H170c-4.4,0-8-3.6-8-8v-22c0-4.4,3.6-8,8-8h109c4.4,0,8,3.6,8,8V539z"/>
	</g>
	<g>
		<path fill="#153D71" d="M575,397c0,4.4-3.6,8-8,8h-88c-4.4,0-8-3.6-8-8v-22c0-4.4,3.6-8,8-8h88c4.4,0,8,3.6,8,8V397z"/>
	</g>
	<g>
		<path fill="#153D71" d="M513,461c0,4.4-3.6,8-8,8H392c-4.4,0-8-3.6-8-8v-22c0-4.4,3.6-8,8-8h113c4.4,0,8,3.6,8,8V461z"/>
	</g>
	<g>
		<path fill="#153D71" d="M676,461c0,4.4-3.6,8-8,8H546c-4.4,0-8-3.6-8-8v-22c0-4.4,3.6-8,8-8h122c4.4,0,8,3.6,8,8V461z"/>
	</g>
	<line fill="none" x1="468.1" y1="182.8" x2="497.9" y2="101.1"/>
	<text transform="matrix(0.3426 -0.9395 0.9395 0.3426 468.1108 182.7734)"><tspan x="0" y="0" font-family="'MyriadPro-Regular'" font-size="7.7688">.</tspan><tspan x="1.6" y="0" font-family="'MyriadPro-Regular'" font-size="7.7688" rotate="0">.</tspan><tspan x="3.2" y="0" font-family="'MyriadPro-Regular'" font-size="7.7688" rotate="0">.</tspan><tspan x="4.8" y="0" font-family="'MyriadPro-Regular'" font-size="7.7688" rotate="0">.</tspan><tspan x="6.4" y="0" font-family="'MyriadPro-Regular'" font-size="7.7688" rotate="0">.</tspan><tspan x="8.1" y="0" font-family="'MyriadPro-Regular'" font-size="7.7688" rotate="0">.</tspan><tspan x="9.7" y="0" font-family="'MyriadPro-Regular'" font-size="7.7688" rotate="0">.</tspan><tspan x="11.3" y="0" font-family="'MyriadPro-Regular'" font-size="7.7688" rotate="0">.</tspan><tspan x="12.9" y="0" font-family="'MyriadPro-Regular'" font-size="7.7688" rotate="0">.</tspan><tspan x="14.5" y="0" font-family="'MyriadPro-Regular'" font-size="7.7688" rotate="0">.</tspan><tspan x="16.1" y="0" font-family="'MyriadPro-Regular'" font-size="7.7688" rotate="0">.</tspan><tspan x="17.7" y="0" font-family="'MyriadPro-Regular'" font-size="7.7688" rotate="0">.</tspan><tspan x="19.3" y="0" font-family="'MyriadPro-Regular'" font-size="7.7688" rotate="0">.</tspan><tspan x="20.9" y="0" font-family="'MyriadPro-Regular'" font-size="7.7688" rotate="0">.</tspan><tspan x="22.5" y="0" font-family="'MyriadPro-Regular'" font-size="7.7688" rotate="0">.</tspan><tspan x="24.1" y="0" font-family="'MyriadPro-Regular'" font-size="7.7688" rotate="0">.</tspan><tspan x="25.8" y="0" font-family="'MyriadPro-Regular'" font-size="7.7688" rotate="0">.</tspan><tspan x="27.4" y="0" font-family="'MyriadPro-Regular'" font-size="7.7688" rotate="0">.</tspan><tspan x="29" y="0" font-family="'MyriadPro-Regular'" font-size="7.7688" rotate="0">.</tspan><tspan x="30.6" y="0" font-family="'MyriadPro-Regular'" font-size="7.7688" rotate="0">.</tspan><tspan x="32.2" y="0" font-family="'MyriadPro-Regular'" font-size="7.7688" rotate="0">.</tspan><tspan x="33.8" y="0" font-family="'MyriadPro-Regular'" font-size="7.7688" rotate="0">.</tspan><tspan x="35.4" y="0" font-family="'MyriadPro-Regular'" font-size="7.7688" rotate="0">.</tspan><tspan x="37" y="0" font-family="'MyriadPro-Regular'" font-size="7.7688" rotate="0">.</tspan><tspan x="38.6" y="0" font-family="'MyriadPro-Regular'" font-size="7.7688" rotate="0">.</tspan><tspan x="40.2" y="0" font-family="'MyriadPro-Regular'" font-size="7.7688" rotate="0">.</tspan><tspan x="41.8" y="0" font-family="'MyriadPro-Regular'" font-size="7.7688" rotate="0">.</tspan><tspan x="43.5" y="0" font-family="'MyriadPro-Regular'" font-size="7.7688" rotate="0">.</tspan><tspan x="45.1" y="0" font-family="'MyriadPro-Regular'" font-size="7.7688" rotate="0">.</tspan><tspan x="46.7" y="0" font-family="'MyriadPro-Regular'" font-size="7.7688" rotate="0">.</tspan><tspan x="48.3" y="0" font-family="'MyriadPro-Regular'" font-size="7.7688" rotate="0">.</tspan><tspan x="49.9" y="0" font-family="'MyriadPro-Regular'" font-size="7.7688" rotate="0">.</tspan><tspan x="51.5" y="0" font-family="'MyriadPro-Regular'" font-size="7.7688" rotate="0">.</tspan><tspan x="53.1" y="0" font-family="'MyriadPro-Regular'" font-size="7.7688" rotate="0">.</tspan><tspan x="54.7" y="0" font-family="'MyriadPro-Regular'" font-size="7.7688" rotate="0">.</tspan><tspan x="56.3" y="0" font-family="'MyriadPro-Regular'" font-size="7.7688" rotate="0">.</tspan><tspan x="57.9" y="0" font-family="'MyriadPro-Regular'" font-size="7.7688" rotate="0">.</tspan><tspan x="59.5" y="0" font-family="'MyriadPro-Regular'" font-size="7.7688" rotate="0">.</tspan><tspan x="61.2" y="0" font-family="'MyriadPro-Regular'" font-size="7.7688" rotate="0">.</tspan><tspan x="62.8" y="0" font-family="'MyriadPro-Regular'" font-size="7.7688" rotate="0">.</tspan><tspan x="64.4" y="0" font-family="'MyriadPro-Regular'" font-size="7.7688" rotate="0">.</tspan><tspan x="66" y="0" font-family="'MyriadPro-Regular'" font-size="7.7688" rotate="0">.</tspan><tspan x="67.6" y="0" font-family="'MyriadPro-Regular'" font-size="7.7688" rotate="0">.</tspan><tspan x="69.2" y="0" font-family="'MyriadPro-Regular'" font-size="7.7688" rotate="0">.</tspan><tspan x="70.8" y="0" font-family="'MyriadPro-Regular'" font-size="7.7688" rotate="0">.</tspan><tspan x="72.4" y="0" font-family="'MyriadPro-Regular'" font-size="7.7688" rotate="0">.</tspan><tspan x="74" y="0" font-family="'MyriadPro-Regular'" font-size="7.7688" rotate="0">.</tspan><tspan x="75.6" y="0" font-family="'MyriadPro-Regular'" font-size="7.7688" rotate="0">.</tspan><tspan x="77.3" y="0" font-family="'MyriadPro-Regular'" font-size="7.7688" rotate="0">.</tspan><tspan x="78.8" y="0" font-family="'MyriadPro-Regular'" font-size="7.7688" rotate="0">.</tspan><tspan x="80.5" y="0" font-family="'MyriadPro-Regular'" font-size="7.7688" rotate="0">.</tspan><tspan x="82.1" y="0" font-family="'MyriadPro-Regular'" font-size="7.7688" rotate="0">.</tspan><tspan x="83.7" y="0" font-family="'MyriadPro-Regular'" font-size="7.7688" rotate="0">.</tspan></text>
	<line fill="none" x1="532.7" y1="100.3" x2="544.4" y2="113.5"/>
	<text transform="matrix(0.6598 0.7515 -0.7515 0.6598 532.7656 100.292)"><tspan x="0" y="0" font-family="'MyriadPro-Regular'" font-size="7.7688">.</tspan><tspan x="1.6" y="0" font-family="'MyriadPro-Regular'" font-size="7.7688" rotate="0">.</tspan><tspan x="3.2" y="0" font-family="'MyriadPro-Regular'" font-size="7.7688" rotate="0">.</tspan><tspan x="4.8" y="0" font-family="'MyriadPro-Regular'" font-size="7.7688" rotate="0">.</tspan><tspan x="6.4" y="0" font-family="'MyriadPro-Regular'" font-size="7.7688" rotate="0">.</tspan><tspan x="8.1" y="0" font-family="'MyriadPro-Regular'" font-size="7.7688">.</tspan><tspan x="9.7" y="0" font-family="'MyriadPro-Regular'" font-size="7.7688" rotate="0">.</tspan><tspan x="11.3" y="0" font-family="'MyriadPro-Regular'" font-size="7.7688" rotate="0">.</tspan><tspan x="12.9" y="0" font-family="'MyriadPro-Regular'" font-size="7.7688" rotate="0">.</tspan><tspan x="14.5" y="0" font-family="'MyriadPro-Regular'" font-size="7.7688" rotate="0">.</tspan></text>
	<line fill="none" x1="229.7" y1="163.5" x2="220.7" y2="182"/>
	<text transform="matrix(-0.4409 0.8976 -0.8976 -0.4409 229.2168 164.6211)"><tspan x="0" y="0" font-family="'MyriadPro-Regular'" font-size="7.7688">.</tspan><tspan x="1.6" y="0" font-family="'MyriadPro-Regular'" font-size="7.7688" rotate="0">.</tspan><tspan x="3.2" y="0" font-family="'MyriadPro-Regular'" font-size="7.7688" rotate="0">.</tspan><tspan x="4.8" y="0" font-family="'MyriadPro-Regular'" font-size="7.7688" rotate="0">.</tspan><tspan x="6.4" y="0" font-family="'MyriadPro-Regular'" font-size="7.7688" rotate="0">.</tspan><tspan x="8" y="0" font-family="'MyriadPro-Regular'" font-size="7.7688" rotate="0">.</tspan><tspan x="9.7" y="0" font-family="'MyriadPro-Regular'" font-size="7.7688" rotate="0">.</tspan><tspan x="11.2" y="0" font-family="'MyriadPro-Regular'" font-size="7.7688" rotate="0">.</tspan><tspan x="12.9" y="0" font-family="'MyriadPro-Regular'" font-size="7.7688" rotate="0">.</tspan><tspan x="14.5" y="0" font-family="'MyriadPro-Regular'" font-size="7.7688" rotate="0">.</tspan><tspan x="16.1" y="0" font-family="'MyriadPro-Regular'" font-size="7.7688" rotate="0">.</tspan><tspan x="17.7" y="0" font-family="'MyriadPro-Regular'" font-size="7.7688">.</tspan></text>
	<path fill="none" d="M255,182.8c0,0-6.6-2.3-6.6-5.2c0-2.9-0.8-13.3-0.8-13.3"/>
	<text transform="matrix(-0.9289 -0.3703 0.3703 -0.9289 255.0083 182.8208)"><tspan x="0" y="0" font-family="'MyriadPro-Regular'" font-size="7.7688">.</tspan><tspan x="1.5" y="0" font-family="'MyriadPro-Regular'" font-size="7.7688" rotate="3.7">.</tspan><tspan x="3" y="0.1" font-family="'MyriadPro-Regular'" font-size="7.7688" rotate="8.4">.</tspan><tspan x="4.4" y="0.3" font-family="'MyriadPro-Regular'" font-size="7.7688" rotate="15.6">.</tspan><tspan x="5.7" y="0.5" font-family="'MyriadPro-Regular'" font-size="7.7688" rotate="27.2">.</tspan><tspan x="6.8" y="1" font-family="'MyriadPro-Regular'" font-size="7.7688" rotate="43.7">.</tspan><tspan x="7.7" y="1.9" font-family="'MyriadPro-Regular'" font-size="7.7688" rotate="58.3">.</tspan><tspan x="8.4" y="3.1" font-family="'MyriadPro-Regular'" font-size="7.7688" rotate="66">.</tspan><tspan x="9.1" y="4.6" font-family="'MyriadPro-Regular'" font-size="7.7688" rotate="65.2">.</tspan><tspan x="9.8" y="6.1" font-family="'MyriadPro-Regular'" font-size="7.7688" rotate="64.8">.</tspan><tspan x="10.4" y="7.5" font-family="'MyriadPro-Regular'" font-size="7.7688" rotate="64.5">.</tspan><tspan x="11.1" y="9" font-family="'MyriadPro-Regular'" font-size="7.7688" rotate="64.3">.</tspan><tspan x="11.8" y="10.4" font-family="'MyriadPro-Regular'" font-size="7.7688" rotate="64.2">.</tspan><tspan x="12.5" y="11.9" font-family="'MyriadPro-Regular'" font-size="7.7688" rotate="64">.</tspan></text>
	<polyline fill="none" stroke="#000000" stroke-miterlimit="10" points="278.5,80.7 326.9,93.3 351.1,84.6 	"/>
	<polyline fill="none" stroke="#000000" stroke-miterlimit="10" points="284.1,85.4 278.3,80.7 285.7,78.9 	"/>
	<polyline fill="none" stroke="#000000" stroke-miterlimit="10" points="285.1,64.3 278.5,63 282.5,59.1 	"/>
	<polyline fill="none" stroke="#000000" stroke-miterlimit="10" points="279.1,62.4 329.6,48.5 351.1,57.9 	"/>
	<line fill="none" stroke="#000000" stroke-miterlimit="10" x1="470" y1="71.5" x2="419" y2="71.5"/>
	<polyline fill="none" stroke="#000000" stroke-miterlimit="10" points="463.2,68.8 469.9,71.8 463.2,75.5 	"/>
	<line fill="none" stroke="#000000" stroke-miterlimit="10" x1="89.3" y1="509.1" x2="118.9" y2="475.4"/>
	<polygon fill="none" stroke="#000000" stroke-miterlimit="10" points="116.3,472.8 121.6,477.4 126.8,467.8 	"/>
	<polygon fill="none" stroke="#000000" stroke-miterlimit="10" points="68.2,557.5 76.6,557.5 72.4,547 	"/>
	<line fill="none" stroke="#000000" stroke-miterlimit="10" x1="72.5" y1="558" x2="72.5" y2="574"/>
	<polygon fill="none" stroke="#000000" stroke-miterlimit="10" points="153.2,479 160.3,475.4 151.6,467.8 	"/>
	<polyline fill="none" stroke="#000000" stroke-miterlimit="10" points="157.1,477.4 169.4,503.4 182.5,509.1 	"/>
	<polyline fill="none" stroke="#000000" stroke-miterlimit="10" points="164.4,474.3 163.2,467.8 168.6,469.4 	"/>
	<line fill="none" stroke="#000000" stroke-miterlimit="10" x1="164" y1="468.1" x2="205.1" y2="509.1"/>
	<polygon fill="none" stroke="#000000" stroke-miterlimit="10" points="490.7,408.5 496,414.2 500.6,404.2 	"/>
	<line fill="none" stroke="#000000" stroke-miterlimit="10" x1="492.8" y1="410.8" x2="471.6" y2="429.5"/>
	<polygon fill="none" stroke="#000000" stroke-miterlimit="10" points="558.3,407.6 553.9,413 548.2,404.2 	"/>
	<line fill="none" stroke="#000000" stroke-miterlimit="10" x1="556.1" y1="410.3" x2="581" y2="429.5"/>
	<polygon fill="none" stroke="#000000" stroke-miterlimit="10" points="501.5,91.5 494,99.9 501.5,102.4 	"/>
	<polygon fill="none" stroke="#000000" stroke-miterlimit="10" points="525.6,91.9 529,101.5 535.2,97.3 	"/>
	<polygon fill="none" stroke="#000000" stroke-miterlimit="10" points="243.7,163.5 251.3,163.1 246.4,153.8 	"/>
	<polygon fill="none" stroke="#000000" stroke-miterlimit="10" points="226.8,161.4 233.2,164.3 235.2,153.8 	"/>
	<polyline fill="none" stroke="#000000" stroke-miterlimit="10" points="257.6,160.5 256.9,153.8 262.5,156.3 	"/>
	<line fill="none" stroke="#000000" stroke-miterlimit="10" x1="257.4" y1="154.7" x2="275.9" y2="182"/>
	<line fill="none" stroke="#000000" stroke-miterlimit="10" x1="244.5" y1="91" x2="244.5" y2="113"/>
	<polyline fill="none" stroke="#000000" stroke-miterlimit="10" points="241.3,108.6 244.6,114.3 248,108.6 	"/>
	<polygon fill="none" stroke="#000000" stroke-miterlimit="10" points="561.9,153.2 557.8,163.5 565.4,163.5 	"/>
	<line fill="none" stroke="#000000" stroke-miterlimit="10" x1="561.6" y1="164.3" x2="561.9" y2="182.8"/>
	<polygon fill="none" stroke="#000000" stroke-miterlimit="10" points="206.1,226.5 213.9,226.5 210,236.4 	"/>
	<line fill="none" stroke="#000000" stroke-miterlimit="10" x1="210.2" y1="221" x2="210.4" y2="226.8"/>
	<polygon fill="none" stroke="#000000" stroke-miterlimit="10" points="143.3,404.5 139.4,415.5 146.3,415.5 	"/>
	<line fill="none" stroke="#000000" stroke-miterlimit="10" x1="143.5" y1="416" x2="143.5" y2="429"/>
	<g>
		<g>
			<circle fill="none" stroke="#FFFFFF" cx="361.3" cy="71" r="4.7"/>
			
				<text transform="matrix(1 0 0 1 358.9927 73.4766)" fill="none" stroke="#FFFFFF" font-family="'MyriadPro-Regular'" font-size="7.7688">C</text>
		</g>
	</g>
	<g>
		<g>
			<circle fill="none" stroke="#FFFFFF" cx="526.5" cy="133.8" r="4.7"/>
			
				<text transform="matrix(1 0 0 1 524.1387 136.2744)" fill="none" stroke="#FFFFFF" font-family="'MyriadPro-Regular'" font-size="7.7688">C</text>
		</g>
	</g>
	<g>
		<g>
			<circle fill="none" stroke="#FFFFFF" cx="534.2" cy="201.7" r="4.7"/>
			
				<text transform="matrix(1 0 0 1 531.8486 204.252)" fill="none" stroke="#FFFFFF" font-family="'MyriadPro-Regular'" font-size="7.7688">C</text>
		</g>
	</g>
	<g>
		<g>
			<circle fill="none" stroke="#FFFFFF" cx="481.8" cy="385.6" r="4.7"/>
			
				<text transform="matrix(1 0 0 1 479.4087 388.1143)" fill="none" stroke="#FFFFFF" font-family="'MyriadPro-Regular'" font-size="7.7688">C</text>
		</g>
	</g>
	<g>
		<g>
			<circle fill="none" stroke="#FFFFFF" cx="390.5" cy="449.7" r="4.7"/>
			
				<text transform="matrix(1 0 0 1 388.126 452.207)" fill="none" stroke="#FFFFFF" font-family="'MyriadPro-Regular'" font-size="7.7688">C</text>
		</g>
	</g>
	<g>
		<g>
			<circle fill="none" stroke="#FFFFFF" cx="171.7" cy="528" r="4.7"/>
			
				<text transform="matrix(1 0 0 1 169.3604 530.543)" fill="none" stroke="#FFFFFF" font-family="'MyriadPro-Regular'" font-size="7.7688">C</text>
		</g>
	</g>
	<g>
		<g>
			<circle fill="none" stroke="#FFFFFF" cx="26.6" cy="528" r="4.7"/>
			
				<text transform="matrix(1 0 0 1 24.2852 530.543)" fill="none" stroke="#FFFFFF" font-family="'MyriadPro-Regular'" font-size="7.7688">C</text>
		</g>
	</g>
	<g>
		<g>
			<circle fill="none" stroke="#FFFFFF" cx="29.2" cy="594.1" r="4.7"/>
			
				<text transform="matrix(1 0 0 1 26.8745 596.5781)" fill="none" stroke="#FFFFFF" font-family="'MyriadPro-Regular'" font-size="7.7688">C</text>
		</g>
	</g>
	<g>
		<g>
			<circle fill="none" stroke="#FFFFFF" cx="112.1" cy="447.8" r="4.7"/>
			
				<text transform="matrix(1 0 0 1 109.8003 450.2637)" fill="none" stroke="#FFFFFF" font-family="'MyriadPro-Regular'" font-size="7.7688">C</text>
		</g>
	</g>
	<g>
		<g>
			<circle fill="none" stroke="#FFFFFF" cx="116.6" cy="385.6" r="4.7"/>
			
				<text transform="matrix(1 0 0 1 114.2734 388.1143)" fill="none" stroke="#FFFFFF" font-family="'MyriadPro-Regular'" font-size="7.7688">C</text>
		</g>
	</g>
	<g>
		<g>
			<circle fill="none" stroke="#FFFFFF" stroke-width="2" cx="548.4" cy="449.7" r="4.7"/>
			
				<text transform="matrix(1 0 0 1 546.0908 452.207)" fill="none" stroke="#FFFFFF" stroke-width="2" font-family="'MyriadPro-Regular'" font-size="7.7688">C</text>
		</g>
	</g>
	<g>
		<g>
			<circle fill="none" stroke="#FFFFFF" cx="432.5" cy="201.7" r="4.7"/>
			
				<text transform="matrix(1 0 0 1 430.2061 204.252)" fill="none" stroke="#FFFFFF" font-family="'MyriadPro-Regular'" font-size="7.7688">C</text>
		</g>
	</g>
	<g>
		<circle fill="none" stroke="#FFFFFF" stroke-miterlimit="10" cx="218.3" cy="71" r="4.7"/>
		<text transform="matrix(1 0 0 1 215.916 73.4766)" stroke="#FFFFFF" font-family="'MyriadPro-Regular'" font-size="7.7688">C</text>
	</g>
	<g>
		<circle fill="none" stroke="#FFFFFF" stroke-miterlimit="10" cx="213.7" cy="133.8" r="4.7"/>
		<text transform="matrix(1 0 0 1 211.3843 136.2744)" stroke="#FFFFFF" font-family="'MyriadPro-Regular'" font-size="7.7688">C</text>
	</g>
	<g>
		<circle fill="none" stroke="#FFFFFF" stroke-miterlimit="10" cx="183.3" cy="201.7" r="4.7"/>
		<text transform="matrix(1 0 0 1 180.9561 204.252)" stroke="#FFFFFF" font-family="'MyriadPro-Regular'" font-size="7.7688">C</text>
	</g>
	<g>
		<circle fill="none" stroke="#FFFFFF" stroke-miterlimit="10" cx="262.3" cy="201.7" r="4.7"/>
		<text transform="matrix(1 0 0 1 259.9395 204.252)" stroke="#FFFFFF" font-family="'MyriadPro-Regular'" font-size="7.7688">C</text>
	</g>
	<g>
		<circle fill="none" stroke="#FFFFFF" stroke-miterlimit="10" cx="183.3" cy="256.8" r="4.7"/>
		<text transform="matrix(1 0 0 1 180.9561 259.2813)" stroke="#FFFFFF" font-family="'MyriadPro-Regular'" font-size="7.7688">C</text>
	</g>
	<g>
		<circle fill="none" stroke="#FFFFFF" stroke-miterlimit="10" cx="183.3" cy="307.3" r="4.7"/>
		<text transform="matrix(1 0 0 1 180.9561 309.7783)" stroke="#FFFFFF" font-family="'MyriadPro-Regular'" font-size="7.7688">C</text>
	</g>
	<g>
		<circle fill="none" stroke="#FFFFFF" cx="483" cy="72" r="4.7"/>
		
			<text transform="matrix(1 0 0 1 481.9063 74.2324)" fill="none" stroke="#FFFFFF" font-family="'MyriadPro-Regular'" font-size="7.7688">I</text>
	</g>
	<g>
		<rect x="503" y="373" fill="#FFFFFF" width="38" height="2"/>
		<rect x="503" y="392" fill="#FFFFFF" width="38" height="3"/>
		<rect x="491" y="382" fill="#FFFFFF" width="62" height="4"/>
	</g>
	<g>
		<rect x="576" y="438" fill="#FFFFFF" width="62" height="3"/>
		<rect x="576" y="458" fill="#FFFFFF" width="62" height="3"/>
		<rect x="557" y="448" fill="#FFFFFF" width="99" height="4"/>
	</g>
	<g>
		<rect x="422" y="438" fill="#FFFFFF" width="52" height="3"/>
		<rect x="422" y="458" fill="#FFFFFF" width="52" height="3"/>
		<rect x="407" y="448" fill="#FFFFFF" width="81" height="4"/>
	</g>
	<g>
		<rect x="549" y="123" fill="#FFFFFF" width="25" height="2"/>
		<rect x="549" y="141" fill="#FFFFFF" width="25" height="4"/>
		<rect x="541" y="131" fill="#FFFFFF" width="40" height="4"/>
	</g>
	<g>
		<rect x="549" y="190" fill="#FFFFFF" width="23" height="4"/>
		<rect x="549" y="210" fill="#FFFFFF" width="23" height="4"/>
		<rect x="542" y="200" fill="#FFFFFF" width="36" height="4"/>
	</g>
	<g>
		<rect x="448" y="191" fill="#FFFFFF" width="26" height="3"/>
		<rect x="448" y="211" fill="#FFFFFF" width="26" height="3"/>
		<rect x="441" y="201" fill="#FFFFFF" width="40" height="4"/>
	</g>
	<g>
		<rect x="276" y="191" fill="#FFFFFF" width="23" height="3"/>
		<rect x="276" y="211" fill="#FFFFFF" width="23" height="3"/>
		<rect x="269" y="201" fill="#FFFFFF" width="36" height="4"/>
	</g>
	<g>
		<rect x="198" y="191" fill="#FFFFFF" width="23" height="3"/>
		<rect x="198" y="211" fill="#FFFFFF" width="23" height="3"/>
		<rect x="191" y="201" fill="#FFFFFF" width="37" height="4"/>
	</g>
	<g>
		<rect x="198" y="246" fill="#FFFFFF" width="23" height="3"/>
		<rect x="198" y="265" fill="#FFFFFF" width="23" height="3"/>
		<rect x="191" y="255" fill="#FFFFFF" width="37" height="4"/>
	</g>
	<g>
		<rect x="198" y="296" fill="#FFFFFF" width="23" height="3"/>
		<rect x="198" y="315" fill="#FFFFFF" width="23" height="3"/>
		<rect x="191" y="306" fill="#FFFFFF" width="37" height="4"/>
	</g>
	<g>
		<rect x="132" y="374" fill="#FFFFFF" width="21" height="4"/>
		<rect x="132" y="394" fill="#FFFFFF" width="21" height="4"/>
		<rect x="126" y="384" fill="#FFFFFF" width="33" height="4"/>
	</g>
	<g>
		<rect x="130" y="436" fill="#FFFFFF" width="25" height="3"/>
		<rect x="130" y="456" fill="#FFFFFF" width="25" height="3"/>
		<rect x="122" y="446" fill="#FFFFFF" width="41" height="4"/>
	</g>
	<g>
		<rect x="51" y="517" fill="#FFFFFF" width="40" height="3"/>
		<rect x="51" y="536" fill="#FFFFFF" width="40" height="3"/>
		<rect x="39" y="526" fill="#FFFFFF" width="64" height="4"/>
	</g>
	<g>
		<rect x="50" y="583" fill="#FFFFFF" width="43" height="4"/>
		<rect x="50" y="602" fill="#FFFFFF" width="43" height="4"/>
		<rect x="37" y="592" fill="#FFFFFF" width="68" height="4"/>
	</g>
	<g>
		<rect x="199" y="517" fill="#FFFFFF" width="54" height="3"/>
		<rect x="199" y="536" fill="#FFFFFF" width="54" height="3"/>
		<rect x="184" y="526" fill="#FFFFFF" width="82" height="4"/>
	</g>
	<g>
		<rect x="498" y="60" fill="#FFFFFF" width="23" height="3"/>
		<rect x="498" y="79" fill="#FFFFFF" width="23" height="3"/>
		<rect x="490" y="69" fill="#FFFFFF" width="38" height="4"/>
	</g>
	<g>
		<rect x="378" y="61" fill="#FFFFFF" width="20" height="3"/>
		<rect x="378" y="80" fill="#FFFFFF" width="20" height="3"/>
		<rect x="372" y="70" fill="#FFFFFF" width="31" height="4"/>
	</g>
	<g>
		<rect x="233" y="61" fill="#FFFFFF" width="22" height="3"/>
		<rect x="233" y="80" fill="#FFFFFF" width="22" height="3"/>
		<rect x="227" y="70" fill="#FFFFFF" width="33" height="4"/>
	</g>
	<g>
		<rect x="231" y="123" fill="#FFFFFF" width="26" height="2"/>
		<rect x="231" y="141" fill="#FFFFFF" width="26" height="4"/>
		<rect x="224" y="131" fill="#FFFFFF" width="39" height="4"/>
	</g>
	<rect fill="#153D71" width="690" height="22"/>
	<rect x="19" y="35" fill="#153D71" width="31" height="13"/>
	<rect x="62" y="35" fill="#153D71" width="31" height="13"/>
	<rect x="104" y="35" fill="#153D71" width="31" height="13"/>
	<rect x="147" y="35" fill="#153D71" width="31" height="13"/>
	<rect x="673" y="6" fill="none" stroke="#FFFFFF" stroke-width="2" stroke-miterlimit="10" width="12" height="12"/>
	<rect x="656" y="6" fill="none" stroke="#FFFFFF" stroke-width="2" stroke-miterlimit="10" width="12" height="12"/>
	<rect x="639" y="6" fill="none" stroke="#FFFFFF" stroke-width="2" stroke-miterlimit="10" width="12" height="12"/>
</g>
<g>
	<g>
		<rect x="231" y="171" fill="#FFFFFF" width="686" height="639"/>
		<path fill="#153D71" d="M915,173v635H233V173H915 M919,169H229v643h690V169L919,169z"/>
	</g>
	<g>
		<rect x="407" y="230" fill="#153D71" width="494" height="564"/>
	</g>
	<rect x="248" y="230" fill="#153D71" width="152" height="564"/>
	<rect x="277" y="247" fill="#FFFFFF" width="84" height="9"/>
	<rect x="294" y="321" fill="#FFFFFF" width="84" height="9"/>
	<rect x="277" y="395" fill="#FFFFFF" width="84" height="9"/>
	<rect x="311" y="432" fill="#FFFFFF" width="84" height="9"/>
	<rect x="277" y="469" fill="#FFFFFF" width="84" height="9"/>
	<rect x="294" y="284" fill="#FFFFFF" width="84" height="9"/>
	<rect x="277" y="358" fill="#FFFFFF" width="84" height="9"/>
	<rect x="277" y="265" fill="#FFFFFF" width="84" height="9"/>
	<rect x="294" y="339" fill="#FFFFFF" width="84" height="9"/>
	<rect x="294" y="413" fill="#FFFFFF" width="84" height="9"/>
	<rect x="294" y="450" fill="#FFFFFF" width="84" height="9"/>
	<rect x="277" y="487" fill="#FFFFFF" width="84" height="9"/>
	<rect x="294" y="302" fill="#FFFFFF" width="84" height="9"/>
	<rect x="277" y="376" fill="#FFFFFF" width="84" height="9"/>
	<rect x="431" y="247" fill="#FFFFFF" width="166" height="9"/>
	<rect x="442" y="262" fill="#FFFFFF" width="166" height="9"/>
	<rect x="451" y="278" fill="#FFFFFF" width="89" height="9"/>
	<rect x="436" y="293" fill="#FFFFFF" width="51" height="9"/>
	<rect x="442" y="308" fill="#FFFFFF" width="188" height="9"/>
	<rect x="439" y="354" fill="#FFFFFF" width="33" height="9"/>
	<rect x="443" y="369" fill="#FFFFFF" width="179" height="9"/>
	<rect x="451" y="384" fill="#FFFFFF" width="56" height="9"/>
	<rect x="456" y="400" fill="#FFFFFF" width="134" height="9"/>
	<rect x="472" y="415" fill="#FFFFFF" width="415" height="9"/>
	<rect x="473" y="430" fill="#FFFFFF" width="150" height="9"/>
	<rect x="462" y="445" fill="#FFFFFF" width="35" height="9"/>
	<rect x="465" y="461" fill="#FFFFFF" width="110" height="9"/>
	<rect x="472" y="476" fill="#FFFFFF" width="309" height="9"/>
	<rect x="480" y="491" fill="#FFFFFF" width="248" height="9"/>
	<rect x="469" y="522" fill="#FFFFFF" width="210" height="9"/>
	<rect x="467" y="537" fill="#FFFFFF" width="26" height="9"/>
	<rect x="460" y="552" fill="#FFFFFF" width="120" height="9"/>
	<rect x="473" y="568" fill="#FFFFFF" width="255" height="9"/>
	<rect x="480" y="583" fill="#FFFFFF" width="255" height="9"/>
	<rect x="473" y="598" fill="#FFFFFF" width="17" height="9"/>
	<rect x="471" y="613" fill="#FFFFFF" width="160" height="9"/>
	<rect x="462" y="629" fill="#FFFFFF" width="26" height="9"/>
	<rect x="462" y="644" fill="#FFFFFF" width="129" height="9"/>
	<rect x="475" y="659" fill="#FFFFFF" width="310" height="9"/>
	<rect x="483" y="674" fill="#FFFFFF" width="271" height="9"/>
	<rect x="468" y="690" fill="#FFFFFF" width="24" height="9"/>
	<rect x="464" y="720" fill="#FFFFFF" width="24" height="9"/>
	<rect x="455" y="735" fill="#FFFFFF" width="24" height="9"/>
	<rect x="444" y="751" fill="#FFFFFF" width="24" height="9"/>
	<rect x="432" y="766" fill="#FFFFFF" width="51" height="9"/>
	<rect x="476" y="705" fill="#FFFFFF" width="232" height="9"/>
	<rect x="472" y="507" fill="#FFFFFF" width="16" height="9"/>
	<rect x="451" y="323" fill="#FFFFFF" width="21" height="9"/>
	<rect x="451" y="339" fill="#FFFFFF" width="21" height="9"/>
	<rect x="229" y="169" fill="#153D71" width="690" height="22"/>
	<rect x="248" y="204" fill="#153D71" width="31" height="13"/>
	<rect x="291" y="204" fill="#153D71" width="31" height="13"/>
	<rect x="333" y="204" fill="#153D71" width="31" height="13"/>
	<rect x="376" y="204" fill="#153D71" width="31" height="13"/>
	<rect x="902" y="175" fill="none" stroke="#FFFFFF" stroke-width="2" stroke-miterlimit="10" width="12" height="12"/>
	<rect x="885" y="175" fill="none" stroke="#FFFFFF" stroke-width="2" stroke-miterlimit="10" width="12" height="12"/>
	<rect x="868" y="175" fill="none" stroke="#FFFFFF" stroke-width="2" stroke-miterlimit="10" width="12" height="12"/>
</g>
</svg>
