<?xml version="1.0" encoding="utf-8"?>
<!-- Generator: Adobe Illustrator 16.0.0, SVG Export Plug-In . SVG Version: 6.00 Build 0)  -->
<!DOCTYPE svg PUBLIC "-//W3C//DTD SVG 1.1//EN" "http://www.w3.org/Graphics/SVG/1.1/DTD/svg11.dtd">
<svg version="1.1" xmlns="http://www.w3.org/2000/svg" xmlns:xlink="http://www.w3.org/1999/xlink" x="0px" y="0px"
	 width="348.2260742px" height="205.4501953px" viewBox="0 0 348.2260742 205.4501953"
	 enable-background="new 0 0 348.2260742 205.4501953" xml:space="preserve">
<g id="Computer">
	<path fill="#194175" d="M246.6386719,185.0751953l-106.5,6.3330078l-20.5839844,4.3339844l-2.8544922,3.1455078l3.25,5.75
		l20.0625,0.8125l93.2089844-6.625c0.125-1-1.5-2.4580078-1.5-2.4580078l-8.4169922-0.625
		c2.0830078-1.25,16.6669922-2.75,16.6669922-2.75L246.6386719,185.0751953z"/>
	<polygon fill="#194175" points="312.0546875,192.9736328 289.7021484,200.0380859 240.4521484,200.0380859 
		240.4521484,196.6630859 265.4521484,188.7880859 288.5771484,188.7880859 289.8271484,183.5380859 286.8271484,172.9130859 
		246.3271484,177.2880859 235.7021484,176.5380859 244.4521484,33.5380859 348.2260742,51.7773438 336.7231445,165.4873047 
		310.2231445,169.7236328 313.8862305,181.1289063 	"/>
</g>
<g id="Person">
	<path fill-rule="evenodd" clip-rule="evenodd" fill="#194175" d="M114.4428711,191.9091797
		c0,0,3.3344727,1.8339844,3.3344727,3.5839844s-2.3789063,5.5966797-2.3789063,5.5966797H72.6176758v-8.2607422
		L114.4428711,191.9091797z"/>
	<path fill-rule="evenodd" clip-rule="evenodd" fill="#194175" d="M164.5400391,172.5566406
		c0,0,34.0678711,17.53125,51.0673828,16.53125c17.0009766-1,18.6689453-13.7480469,17.5009766-18.9160156
		c-1.1660156-5.1660156-4.5820313-18.0839844-6.2504883-21.9179688c-1.6660156-3.8320313-3-2-3.6665039-4.3320313
		c-0.6679688-2.3339844-4.1679688-7.6679688-4.1679688-7.6679688s-3.5820313-7.5-5.6660156-9.8320313
		c-2.0820313-2.3339844-6.331543-6.4179688-6.331543-6.4179688s-4.75-11.8320313-4.9179688-13.3320313
		c0,0-3.5722656-3.9667969-9.8530273-4.9980469c0,0-4.0625-3.09375-5.09375-4.6875s-3.21875-2.1464844-5.0527344-4.2304688
		c-1.8339844-2.0820313-7.5-9.5410156-7.5-9.5410156s-3.3339844-8.9589844-5.7089844-9.5
		c-2.3730469-0.5410156-4.0390625-0.5839844-4.6430664-0.9589844c-0.6035156-0.375-2.375-0.6875-3.4589844-0.5195313
		c-1.0820313,0.1660156-2.456543,0.5820313-2.456543,0.5820313s-1.5976563-0.5-2.4765625-0.5410156
		c-0.875-0.0410156-3.875,1.4160156-3.875,1.4160156s-4.6884766,0.5839844-4.8349609,0.1679688c0,0-1.0405273-0.28125-0.9780273-1
		l-0.7709961-0.2519531c0.1269531-0.625-0.78125-1.53125-0.78125-1.53125s1.5620117-1.4375,1.5307617-1.84375l-0.7592773-6.8417969
		c0,0,5.9433594-0.5234375,6.0058594-3.1816406c0.0644531-2.6582031-2.9477539-9.8251953-2.7524414-10.9160156
		c0.375-2.0976563,3.2504883-6.0273438,3.4594727-7.1113281s-1.0195313-6.3691406-1.0195313-6.3691406
		c-0.03125-1.1572266-3.3149414-11.4482422-3.5029297-11.9794922c-0.1875-0.53125,2.5649414-9.4765625,1.0004883-11.3222656
		c-1.5649414-1.8457031-10.8891602-11.4287109-22.7543945-11.5117188
		c-11.8652344-0.0839844-28.1210938,4.0673828-32.515625,6.828125c-4.4042969,2.765625-10.3300781,18.0566406-9.8203125,27.7001953
		c0.4570313,8.6503906,0.8613281,14.4394531,1.71875,18.0654297c0.8554688,3.6269531,4.2304688,10.0244141,4.3808594,13.7001953
		c0.1523438,3.6777344,0.4541016,6.75-2.1152344,7.9589844c-2.5683594,1.2089844-4.253418,4.5712891-5.5698242,6.1572266
		c-1.5537109,1.8720703-3.0361328,3.6796875-4.875,4.0625c-1.8388672,0.3808594-2.324707,0.6376953-2.324707,0.6376953
		s-6.5083008,2.8037109-11.0708008,3.5703125c-3.6904297,0.6201172-4.4199219,1.8613281-7.8022461,2.2578125
		c-2.0810547,0.2421875-15.8886719,2.2539063-18.0410156,1.9765625C35.6464844,92.6386719,35.0566406,93.75,35.0566406,93.75
		s-3.6425781-1.0761719-6.8339844,4.1621094c-3.1923828,5.2421875-6.9990234,11.8027344-5.6152344,16.0371094
		c0,0-7.6855469,13.9570313-8.4472656,17.4804688c0,0-2.8554688-0.0957031-3.2363281,4.5214844
		c0,0-1.953125,4.4765625-2.6191406,6.4746094c0,0-1.6660156,0.953125-2.5703125,2.3320313
		c-0.9042969,1.3808594-2.8745117,11.7275391-4.6362305,12.9658203c-0.9370117,0.6572266-2.5112305,9.8095703-2.25,21.875
		c0.2299805,10.6171875,6.0600586,11.1005859,8.125,11.8730469s37.4960938,7.9697266,37.4960938,7.9697266l11.7539063,0.7197266
		l2.1557617,0.1103516c1.0488281,0.0859375,11.8710938,0.6972656,13.3115234,0.2167969
		c1.4404297-0.4785156,2.5751953-3.1855469,6.8955078-2.8789063c4.3203125,0.3046875,7.0263672,3.9277344,10.6054688,3.9277344
		c3.578125,0,5.9785156-0.0878906,5.9785156-0.0878906S96,201.1425781,96.3925781,199.921875
		c0.3925781-1.2226563,0.3046875-2.0507813,0.3046875-2.0507813s3.3623047,3.578125,4.6279297,3.578125
		s4.6264648,0.1328125,5.2358398-0.21875s0.84375-0.6015625,1.0058594-0.9648438l0.4477539-2.0439453
		c0,0,3.9404297-0.8486328,4.75-1.7060547c1.4169922-1.5,1.1669922-4.25,1.1669922-4.25s2.4165039-0.4160156,3.5-1.7910156
		l42.8588867-3.4638672L164.5400391,172.5566406z"/>
	
		<path fill-rule="evenodd" clip-rule="evenodd" fill="none" stroke="#FFFFFF" stroke-width="2" stroke-linecap="square" stroke-miterlimit="10" d="
		M54.4921875,197.1699219c1.1665039,0.25,1,1.125,1.7709961,1.875s8.7080078,1.625,8.7080078,1.625s3.8959961,0.0205078,5.125-0.25
		s3.2504883-1.6875,4.2919922-2.2294922s3.3125-0.8535156,4.8125-0.625s4.75,1.875,5.875,2.6669922s5.0625,1.1875,5.6875,1.2919922
		s3.5830078-0.4169922,4.5625-1.5214844s0.5205078-2.2080078,0.5205078-2.2080078s2.0209961,2.2285156,3.5004883,3.1875
		c1.4804688,0.9589844,6.4995117-0.1669922,7.1459961-0.625c0.6445313-0.4580078,1.2070313-2.8740234,1.2070313-2.8740234
		s2.75,0,4.5-1.1669922c1.7495117-1.1669922,1.0424805-4.625,1.0424805-4.625s2.5820313-0.4169922,3.4160156-1.0419922
		c0.8320313-0.625,0.875-1.6660156,0.9594727-3.125c0.0820313-1.4589844-11.0625-12.1669922-12.4375-13.7294922
		s-8.3129883-0.4375-9.4379883-0.5625s-2.5625-1.125-2.5625-1.125s-6.0625,0.0625-10.6875,0.375s-13.4375,4.4375-13.4375,4.4375
		l-4.9970703-0.8544922c0,0-2.375-2.8535156-8.5625-3.9580078s-3.5625-1.6044922-6.3125-1.9169922s-5.25,0.5-5.25,0.5
		s-1.9375-0.8125-2.5-1.3125s5.3125-7.0625,4.3125-10s0.9375-1.875,1.25-3.9375s1.6875-11.25,1.6875-11.25"/>
	
		<path fill-rule="evenodd" clip-rule="evenodd" fill="none" stroke="#FFFFFF" stroke-width="2" stroke-linecap="square" stroke-miterlimit="10" d="
		M90.2421875,175.9707031c0,0,7.9375,1.125,9.0625,1.875c1.1259766,0.75,3.3134766,3.5625,3.5634766,3.75
		s4.3120117,4.125,6.3120117,5.625c0,0,4.3549805,4.03125,4.4780273,4.2509766"/>
	
		<path fill-rule="evenodd" clip-rule="evenodd" fill="none" stroke="#FFFFFF" stroke-width="2" stroke-linecap="square" stroke-miterlimit="10" d="
		M83.2836914,180.5966797c0,0,5.9169922,2.4570313,7.6669922,2.6660156s1.5830078,1.8330078,1.7915039,2
		s15.246582,11.7900391,15.5415039,12.9589844"/>
	
		<path fill-rule="evenodd" clip-rule="evenodd" fill="none" stroke="#FFFFFF" stroke-width="2" stroke-linecap="square" stroke-miterlimit="10" d="
		M74.7836914,186.5126953c0,0,4.8339844,2.1660156,7.2919922,2.125s2.125,2.8339844,3.125,3.3339844
		s10.027832,4.015625,11,5.3330078"/>
	
		<path fill-rule="evenodd" clip-rule="evenodd" fill="none" stroke="#FFFFFF" stroke-width="2" stroke-linecap="square" stroke-miterlimit="10" d="
		M187.1572266,144.5371094c-0.5839844-0.3339844-3.5820313-6-3.5-7.4169922c0.0839844-1.4169922-1.4453125-2.9648438-1.7910156-3.5
		c-0.3076172-0.4755859-11.4179688-14.4580078-11-15.8330078c0.4160156-1.375,1.6660156-2.2929688,2.2910156-2.5009766
		c0,0-3.6035156-4.4160156-4.1035156-6.3535156s-4.3125-1.375-5.1879883-1.59375c0,0-6.4370117,0.40625-8.0307617-0.6875
		s-7.7407227-5.5927734-7.7407227-5.5927734s-1.5839844-0.3330078-2.125-1c-0.5561523-0.7197266-4.0214844-6.0830078-4.1660156-6.75
		c-0.1464844-0.6669922-1.4995117-3.5625-1.4584961-3.8125c0,0-1.8134766,1.8330078-3.7294922,1.8125
		s-2.6464844-2.0205078-2.6464844-2.0205078s-0.8222656-7.1679688-0.4472656-8.2617188s0.71875-2.3125,0.96875-3.03125
		s0.84375-1.4375,1-1.46875s0.875-4.0625,3.0625-4.34375c2.1884766-0.28125,3.8447266,0.46875,3.8447266,0.46875
		s4.4370117,1.03125,4.5927734,1.46875"/>
	
		<path fill-rule="evenodd" clip-rule="evenodd" fill="none" stroke="#FFFFFF" stroke-width="2" stroke-linecap="square" stroke-miterlimit="10" d="
		M147.887207,101.0087891c0,0,1.3535156-0.3886719,2.0820313-1.1591797
		c0.7290039-0.7705078,0.9165039-2.0419922,0.8540039-2.0419922s2.25,3.0830078,3.0839844,3.3330078
		c0.8320313,0.25,3.1464844-0.1767578,3.4902344-1.0517578c0.2890625-0.7373047-0.0058594-3.1679688-0.4375-3.7275391
		c0,0-1.9980469-4.1982422-2.0390625-4.8232422c-0.0429688-0.625-0.375-5.9785156-0.625-6.2705078"/>
	
		<path fill-rule="evenodd" clip-rule="evenodd" fill="none" stroke="#FFFFFF" stroke-width="2" stroke-linecap="square" stroke-miterlimit="10" d="
		M160.8344727,75.0576172c-1.4057617,0.25-2.9370117,2.96875-3.8120117,4.0625c-0.90625,1.375-1.78125,5.6875-1.71875,6.78125
		s0.4003906,6.96875,0.6816406,8.09375s1.625,2.1875,2.9375,2.125c1.0385742-0.0244141,1.6147461-1.0478516,1.9897461-1.7080078
		c0.9726563-1.7060547-1.3979492-6.6660156-0.8378906-7.2919922c0.7089844-0.7919922,1.7929688-2.0400391,2.1992188-3.8837891"/>
	
		<path fill-rule="evenodd" clip-rule="evenodd" fill="none" stroke="#FFFFFF" stroke-width="2" stroke-linecap="square" stroke-miterlimit="10" d="
		M156.9599609,74.4951172c0,0-10.4067383,4.0625-10.4692383,7.21875s0.5620117,4.1875,0.5620117,4.1875
		s1.0942383,5.15625,1.0942383,6s2.1665039,5.75,2.6762695,5.90625"/>
	
		<path fill-rule="evenodd" clip-rule="evenodd" fill="none" stroke="#FFFFFF" stroke-width="2" stroke-linecap="square" stroke-miterlimit="10" d="
		M149.8032227,75.2763672c0,0-10.09375,3.5625-10.2817383,5.875c-0.1875,2.3125,0.8603516,8.5263672,0.8603516,8.5263672"/>
	
		<path fill-rule="evenodd" clip-rule="evenodd" fill="none" stroke="#FFFFFF" stroke-width="2" stroke-linecap="square" stroke-miterlimit="10" d="
		M140.9541016,77.5703125c0.5625,0.4375,0.625,1.6875,0.40625,1.78125"/>
	
		<path fill-rule="evenodd" clip-rule="evenodd" fill="none" stroke="#FFFFFF" stroke-width="2" stroke-linecap="square" stroke-miterlimit="10" d="
		M91.2441406,75.8730469c2.3125,1.1875,0.5625,8.4375,1.25,9.125s5.75,7.375,6.0625,8.375s4.9384766,10.8125,5.9379883,11.6875
		c1,0.875,4,3.0625,4.375,3.9375s4.5620117,3.375,4.4995117,6.375s-1.1245117,8.375-1.1870117,10.5625
		s-0.1035156,8.2294922,1.1870117,9.6875c1.2910156,1.4580078,6.9165039,14.625,9.1660156,15.25
		c0,0,2.7929688-9.1669922,6.6679688-12.9169922s8.6660156-10.9580078,8.6660156-11.375s-0.5991211-1.1748047-0.625-1.7080078
		c-0.0209961-0.4306641-0.3339844-1.5429688,1.6660156-2.5839844c2.0009766-1.0410156,5.2915039-4.3339844,5.2504883-6.25
		s-9.5004883-17.8740234-8.0004883-19.1240234"/>
	
		<path fill-rule="evenodd" clip-rule="evenodd" fill="none" stroke="#FFFFFF" stroke-width="2" stroke-linecap="square" stroke-miterlimit="10" d="
		M107.621582,108.1982422c0,0-1.3359375,3.5878906-2.6875,6.5c-1.3481445,2.9052734,2.5,13.75-1.0625,13.25
		c-3.5620117-0.5-5.6308594-3.8359375-7.25-6.75c-1.8149414-3.2666016-2.375-6-2.375-6.1875s-2.0288086-10.6337891-2.5-13.8125
		c-0.5024414-3.390625-1.6557617-12.0654297-2.5-15.375c-0.746582-2.9267578-1.125-7.875-0.75-8.25"/>
	
		<path fill-rule="evenodd" clip-rule="evenodd" fill="none" stroke="#FFFFFF" stroke-width="2" stroke-linecap="square" stroke-miterlimit="10" d="
		M122.7460938,151.7607422c0,0-3.1245117,8.0625-3.6245117,12.375s0.2246094,21.4375-1.4199219,22.875"/>
	
		<path fill-rule="evenodd" clip-rule="evenodd" fill="none" stroke="#FFFFFF" stroke-width="2" stroke-linecap="square" stroke-miterlimit="10" d="
		M130.7050781,96.5732422c0,0-0.9160156,9.4160156-2.5,11.6660156s-5.3339844,11-5.6679688,13.5
		c-0.3320313,2.5-0.8320313,14.4169922-0.8320313,14.4169922"/>
	
		<path fill-rule="evenodd" clip-rule="evenodd" fill="none" stroke="#FFFFFF" stroke-width="2" stroke-linecap="square" stroke-miterlimit="10" d="
		M106.121582,68.5078125c0,0-1.1660156,6.8398438,1.5,9.0654297s18.8334961,12.7255859,21.3334961,14.2255859
		s8.9980469,3.25,11.3330078,0"/>
</g>
</svg>
