<?xml version="1.0" encoding="utf-8"?>
<!-- Generator: Adobe Illustrator 16.0.0, SVG Export Plug-In . SVG Version: 6.00 Build 0)  -->
<!DOCTYPE svg PUBLIC "-//W3C//DTD SVG 1.1//EN" "http://www.w3.org/Graphics/SVG/1.1/DTD/svg11.dtd">
<svg version="1.1" id="Icon" xmlns="http://www.w3.org/2000/svg" xmlns:xlink="http://www.w3.org/1999/xlink" x="0px" y="0px"
	 width="186px" height="133.848px" viewBox="0 0 186 133.848" enable-background="new 0 0 186 133.848" xml:space="preserve">
<path id="Border" fill="#EEEADF" d="M186.031,121.801c0,6.627-5.372,12-12,12h-162c-6.627,0-12-5.373-12-12V11.953
	c0-6.627,5.373-12,12-12h162c6.628,0,12,5.373,12,12V121.801z"/>
<path id="M_2_" fill="#EB3E30" d="M167.001,31.598v102.25h7c6.628,0,12-5.373,12-12V12c0-6.627-5.372-12-12-12l-1.125,0.291
	L93,59.083L13.125,0.291L12,0C5.373,0,0,5.373,0,12v109.848c0,6.627,5.373,12,12,12h7V31.598l74,53.819L167.001,31.598z"/>
<path id="M_1_" fill="#8D8D8D" d="M167.001,31.598v102.25h7c6.628,0,12-5.373,12-12V12c0-6.627-5.372-12-12-12l-1.125,0.291
	L93,59.083L13.125,0.291L12,0C5.373,0,0,5.373,0,12v109.848c0,6.627,5.373,12,12,12h7V31.598l74,53.819L167.001,31.598z"/>
<polygon id="Darken_2_" fill="#ACACA2" points="91.674,84.413 19,132.014 19,133.868 93.015,85.389 "/>
<polyline id="Darken_1_" fill="#ACACA2" points="166.999,133.848 93,85.415 166.999,31.598 166.999,133.848 "/>
<path id="Darken" fill="#AC3E30" d="M185.999,17.792v104.076c0,6.627-5.372,12-12,12h-7V31.617L185.999,17.792z"/>
<path id="Darken_3_" fill="#6D6D6D" d="M185.999,17.772v104.076c0,6.627-5.372,12-12,12h-7V31.598L185.999,17.772z"/>
</svg>
