<?xml version="1.0" encoding="utf-8"?>
<!-- Generator: Adobe Illustrator 16.0.0, SVG Export Plug-In . SVG Version: 6.00 Build 0)  -->
<!DOCTYPE svg PUBLIC "-//W3C//DTD SVG 1.1//EN" "http://www.w3.org/Graphics/SVG/1.1/DTD/svg11.dtd">
<svg version="1.1" id="Icon" xmlns="http://www.w3.org/2000/svg" xmlns:xlink="http://www.w3.org/1999/xlink" x="0px" y="0px"
	 viewBox="0 0 120.7749023 117.793457"
	 enable-background="new 0 0 120.7749023 117.793457" xml:space="preserve">
<g id="Mark">
	<path d="M60.3876953,0C27.0410156,0,0,27.0351563,0,60.387207
		c0,26.6816406,17.3027344,49.3164063,41.296875,57.3027344c3.0175781,0.5585938,4.1259766-1.3105469,4.1259766-2.90625
		c0-1.4394531-0.0556641-6.1972656-0.0820313-11.2421875c-16.7998047,3.6523438-20.3447266-7.125-20.3447266-7.125
		c-2.7470703-6.9804688-6.7050781-8.8359375-6.7050781-8.8359375c-5.4794922-3.7480469,0.4130859-3.671875,0.4130859-3.671875
		c6.0634766,0.4257813,9.2568359,6.2246094,9.2568359,6.2246094c5.3857422,9.2304688,14.1269531,6.5625,17.5732422,5.0195313
		c0.5419922-3.9023438,2.1064453-6.5683594,3.8339844-8.0761719c-13.4130859-1.5253906-27.5136719-6.7050781-27.5136719-29.8432617
		c0-6.5927734,2.359375-11.9794922,6.2226563-16.2089844c-0.6269531-1.5214844-2.6943359-7.6630859,0.5849609-15.9814453
		c0,0,5.0712891-1.6220703,16.6103516,6.1904297c4.8173828-1.3378906,9.9833984-2.0087891,15.1152344-2.0322266
		c5.1313477,0.0234375,10.3012695,0.6943359,15.1274414,2.0322266c11.5273438-7.8125,16.5898438-6.1904297,16.5898438-6.1904297
		c3.2871094,8.3183594,1.2207031,14.4599609,0.59375,15.9814453c3.8710938,4.2294922,6.2148438,9.6162109,6.2148438,16.2089844
		c0,23.1948242-14.1269531,28.300293-27.5742188,29.7963867c2.1660156,1.8730469,4.0957031,5.5488281,4.0957031,11.1816406
		c0,8.0800781-0.0703125,14.5839844-0.0703125,16.5722656c0,1.6074219,1.0878906,3.4902344,4.1484375,2.8984375
		c23.9804688-7.9941406,41.2617188-30.6230469,41.2617188-57.2949219C120.7749023,27.0351563,93.737793,0,60.3876953,0z"/>
	<path d="M22.8720703,86.7036133c-0.1328125,0.3007813-0.6054688,0.390625-1.0351563,0.1835938
		c-0.4384766-0.1972656-0.6835938-0.6054688-0.5419922-0.90625c0.1298828-0.3085938,0.6025391-0.3945313,1.0400391-0.1894531
		C22.7734375,85.9887695,23.0234375,86.402832,22.8720703,86.7036133L22.8720703,86.7036133z M22.1289063,86.152832"/>
	<path d="M25.3183594,89.4321289c-0.2880859,0.265625-0.8515625,0.1425781-1.2333984-0.2792969
		c-0.3955078-0.421875-0.46875-0.984375-0.1767578-1.2558594c0.296875-0.265625,0.8427734-0.140625,1.2382813,0.2792969
		C25.5419922,88.6020508,25.6191406,89.1606445,25.3183594,89.4321289L25.3183594,89.4321289z M24.7421875,88.8129883"/>
	<path d="M27.6992188,92.9086914c-0.3701172,0.2578125-0.9755859,0.0175781-1.3496094-0.5195313
		c-0.3701172-0.5371094-0.3701172-1.1816406,0.0087891-1.4394531c0.3740234-0.2578125,0.9707031-0.0253906,1.3496094,0.5058594
		C28.0771484,92.0024414,28.0771484,92.6469727,27.6992188,92.9086914L27.6992188,92.9086914z M27.6992188,92.9086914"/>
	<path d="M30.9609375,96.2700195c-0.3310547,0.3652344-1.0361328,0.265625-1.5517578-0.2324219
		c-0.5283203-0.4863281-0.6748047-1.1777344-0.34375-1.5429688c0.3359375-0.3652344,1.0449219-0.2617188,1.5644531,0.2324219
		C31.1542969,95.2133789,31.3134766,95.9086914,30.9609375,96.2700195L30.9609375,96.2700195z M30.9609375,96.2700195"/>
	<path d="M35.4609375,98.2211914c-0.1464844,0.4726563-0.8251953,0.6875-1.5087891,0.4863281
		c-0.6835938-0.2070313-1.1298828-0.7617188-0.9921875-1.2382813c0.1416016-0.4765625,0.8242188-0.7011719,1.5126953-0.4863281
		C35.1552734,97.1899414,35.6025391,97.7387695,35.4609375,98.2211914L35.4609375,98.2211914z M35.4609375,98.2211914"/>
	<path d="M40.4033203,98.5825195c0.0166016,0.4980469-0.5634766,0.9101563-1.28125,0.9199219
		c-0.7216797,0.015625-1.3066406-0.3867188-1.3144531-0.8769531c0-0.5039063,0.5673828-0.9121094,1.2890625-0.9238281
		C39.8144531,97.6879883,40.4033203,98.0883789,40.4033203,98.5825195L40.4033203,98.5825195z M40.4033203,98.5825195"/>
	<path d="M45.0019531,97.7993164c0.0859375,0.4863281-0.4130859,0.984375-1.1259766,1.1171875
		c-0.7011719,0.1289063-1.3496094-0.171875-1.4394531-0.6523438c-0.0869141-0.4980469,0.4208984-0.9980469,1.1210938-1.1269531
		C44.2714844,97.0141602,44.9111328,97.3051758,45.0019531,97.7993164L45.0019531,97.7993164z M45.0019531,97.7993164"/>
</g>
</svg>
