<?xml version="1.0" encoding="utf-8"?>
<!-- Generator: Adobe Illustrator 16.0.0, SVG Export Plug-In . SVG Version: 6.00 Build 0)  -->
<!DOCTYPE svg PUBLIC "-//W3C//DTD SVG 1.1//EN" "http://www.w3.org/Graphics/SVG/1.1/DTD/svg11.dtd">
<svg version="1.1" id="Logo" xmlns="http://www.w3.org/2000/svg" xmlns:xlink="http://www.w3.org/1999/xlink" x="0px" y="0px"
	 viewBox="11.75 10.583 67.75 68.25" enable-background="new 11.75 10.583 67.75 68.25"
	 xml:space="preserve">
<g display="none">
	<path display="inline" d="M93.334,87.333c0,3.301-2.7,6-6,6H6c-3.3,0-6-2.699-6-6V6c0-3.3,2.7-6,6-6h81.334
		c3.3,0,6,2.7,6,6V87.333z"/>
</g>
<path d="M65.5,78.833h14v-22v-4V47c0-8.333-4.75-14.209-15-14.209c-11.5,0-15,5.542-15,5.542v-4.5h-14v45h14v-24.5
	c0,0,1.771-9.083,9.604-9.083c6.146,0,6.396,6.208,6.396,6.208V78.833z"/>
<rect x="14.5" y="33.833" width="13" height="45"/>
<circle cx="20.75" cy="19.583" r="9"/>
</svg>
