<?xml version="1.0" encoding="utf-8"?>
<!-- Generator: Adobe Illustrator 16.0.0, SVG Export Plug-In . SVG Version: 6.00 Build 0)  -->
<!DOCTYPE svg PUBLIC "-//W3C//DTD SVG 1.1//EN" "http://www.w3.org/Graphics/SVG/1.1/DTD/svg11.dtd">
<svg version="1.1" id="Icon" xmlns="http://www.w3.org/2000/svg" xmlns:xlink="http://www.w3.org/1999/xlink" x="0px" y="0px"
	 width="117px" height="235px" viewBox="0 0 117 235" enable-background="new 0 0 117 235" xml:space="preserve">
<rect y="0.6523438" display="none" width="117" height="235"/>
<path fill="#FFFFFF" d="M102,0H15C6.75,0,0,6.75,0,15v205c0,8.25,6.75,15,15,15h87c8.25,0,15-6.75,15-15V15C117,6.75,110.25,0,102,0
	z M87,4.934082c1.4589844,0,2.6455078,1.1870117,2.6455078,2.6455078S88.4589844,10.2250977,87,10.2250977
	s-2.6455078-1.1870117-2.6455078-2.6455078S85.5410156,4.934082,87,4.934082z M43.4169922,7.4350586c0-1.1000977,0.8999023-2,2-2
	h26.1660156c1.0996094,0,2,0.8999023,2,2v0.2910156c0,1.1000977-0.9003906,2-2,2H45.4169922c-1.1000977,0-2-0.8999023-2-2V7.4350586
	z M74.0830078,220.6660156c0,1.3789063-1.1210938,2.5-2.5,2.5H45.4169922c-1.378418,0-2.5-1.1210938-2.5-2.5v-3.3320313
	c0-1.3789063,1.121582-2.5,2.5-2.5h26.1660156c1.3789063,0,2.5,1.1210938,2.5,2.5V220.6660156z M113,208.0830078H4V28.222168h109
	V208.0830078z"/>
<path fill="#FFFFFF" d="M45.4174805,217.9189453c0-0.5498047,0.4501953-1,1-1h24.1655273c0.5498047,0,1,0.4501953,1,1v2.1621094
	c0,0.5498047-0.4501953,1-1,1H46.4174805c-0.5498047,0-1-0.4501953-1-1V217.9189453z"/>
</svg>
