<svg version="1.1" id="{{skill.obj.name}}" xmlns="http://www.w3.org/2000/svg" xmlns:xlink="http://www.w3.org/1999/xlink" x="0px" y="0px" width="519.9px" height="53px" viewBox="0 0 519.9 53" enable-background="new 0 0 519.9 53" xml:space="preserve">

    <g>
      <linearGradient id="label_{{skill.obj.name}}" gradientUnits="userSpaceOnUse" x1="-4.882813e-004" y1="26.5" x2="64.1187" y2="26.5">
            <stop  offset="0" stop-color="{{SkillsCtrl.getGradientStop(skill)[0][0]}}"/>
            <stop  offset="1" stop-color="{{SkillsCtrl.getGradientStop(skill)[0][1]}}"/>
        </linearGradient>
        <linearGradient id="beginner_{{skill.obj.name}}" gradientUnits="userSpaceOnUse" x1="71.2998" y1="27.5" x2="125.4497" y2="27.5" gradientTransform="matrix(1 0 0 -1 0 54)">
            <stop  offset="0" stop-color="{{SkillsCtrl.getGradientStop(skill)[1][0]}}"/>
            <stop  offset="1" stop-color="{{SkillsCtrl.getGradientStop(skill)[1][1]}}"/>
        </linearGradient>
        <linearGradient id="familiar_{{skill.obj.name}}" gradientUnits="userSpaceOnUse" x1="186.6001" y1="27.5" x2="240.8496" y2="27.5" gradientTransform="matrix(1 0 0 -1 0 54)">
            <stop  offset="0" stop-color="{{SkillsCtrl.getGradientStop(skill)[2][0]}}"/>
            <stop  offset="1" stop-color="{{SkillsCtrl.getGradientStop(skill)[2][1]}}"/>
        </linearGradient>
        <linearGradient id="proficient_{{skill.obj.name}}" gradientUnits="userSpaceOnUse" x1="186.5776" y1="26.5" x2="289.2583" y2="26.5">
            <stop  offset="0" stop-color="{{SkillsCtrl.getGradientStop(skill)[3][0]}}"/>
            <stop  offset="1" stop-color="{{SkillsCtrl.getGradientStop(skill)[3][1]}}"/>
        </linearGradient>
        <linearGradient id="instructor_{{skill.obj.name}}" gradientUnits="userSpaceOnUse" x1="301.8911" y1="26.5" x2="404.5703" y2="26.5">
            <stop  offset="0" stop-color="{{SkillsCtrl.getGradientStop(skill)[4][0]}}"/>
            <stop  offset="1" stop-color="{{SkillsCtrl.getGradientStop(skill)[4][0]}}"/>
        </linearGradient>
    </g>

    <g>
        <polygon fill="url(#label_{{skill.obj.name}})" points="0,53 45.7,53 64.1,26.6 45.7,0 0,0 	" />
        <polygon fill="url(#beginner_{{skill.obj.name}})" points="119.75,18 71.3,18 77.1,26.5 71.4,35 119.75,35 125.45,26.6 " ng-show="SkillsCtrl.showMeter(skill.level, 1)"/>
        <polygon fill="url(#beginner_{{skill.obj.name}})" points="168.2,18 71.3,18 77.1,26.5 71.4,35 168.2,35 173.9,26.6 	" ng-show="SkillsCtrl.showMeter(skill.level, 2)"/>
        <polygon fill="url(#familiar_{{skill.obj.name}})" points="235.05,18 186.6,18 192.4,26.5 186.7,35 235.05,35 240.85,26.6 " ng-show="SkillsCtrl.showMeter(skill.level, 3)"/>
        <polygon fill="url(#familiar_{{skill.obj.name}})" points="283.5,18 186.6,18 192.4,26.5 186.7,35 283.5,35 289.3,26.6 	" ng-show="SkillsCtrl.showMeter(skill.level, 4)" />
        <polygon fill="url(#proficient_{{skill.obj.name}})" points="350.35,18 301.899,18 307.7,26.5 302,35 350.35,35 356.149,26.6 " ng-show="SkillsCtrl.showMeter(skill.level, 5)"/>
        <polygon fill="url(#proficient_{{skill.obj.name}})" points="398.8,18 301.9,18 307.7,26.5 302,35 398.8,35 404.6,26.6 	" ng-show="SkillsCtrl.showMeter(skill.level, 6)"/>
        <polygon fill="url(#instructor_{{skill.obj.name}})" points="471.45,26.6 465.75,35 417.3,35 423,26.5 417.2,18 465.649,18 " ng-show="SkillsCtrl.showMeter(skill.level, 7)"/>
        <polygon fill="url(#instructor_{{skill.obj.name}})" points="519.9,26.6 514.2,35 417.3,35 423,26.5 417.2,18 514.1,18 	" ng-show="SkillsCtrl.showMeter(skill.level, 8)" />
    </g>
</svg>