<?xml version="1.0" encoding="utf-8"?>
<!-- Generator: Adobe Illustrator 16.0.0, SVG Export Plug-In . SVG Version: 6.00 Build 0)  -->
<!DOCTYPE svg PUBLIC "-//W3C//DTD SVG 1.1//EN" "http://www.w3.org/Graphics/SVG/1.1/DTD/svg11.dtd">
<svg version="1.1" id="Layer_1" xmlns="http://www.w3.org/2000/svg" xmlns:xlink="http://www.w3.org/1999/xlink" x="0px" y="0px"
	 width="918.5px" height="812px" viewBox="0 0 918.5 812" enable-background="new 0 0 918.5 812" xml:space="preserve">
<g>
	<g>
		<rect x="2" y="2" fill="#FFFFFF" width="686" height="639"/>
		<path fill="#153D71" d="M686,4v635H4V4H686 M690,0H0v643h690V0L690,0z"/>
	</g>
	<g>
		<g>
			<path fill="#153D71" d="M322,213c0,4.4-3.6,8-8,8h-51c-4.4,0-8-3.6-8-8v-22c0-4.4,3.6-8,8-8h51c4.4,0,8,3.6,8,8V213z"/>
			<path fill="none" stroke="#000000" stroke-miterlimit="10" d="M321.5,212.5c0,4.4-3.6,8-8,8h-51c-4.4,0-8-3.6-8-8v-22
				c0-4.4,3.6-8,8-8h51c4.4,0,8,3.6,8,8V212.5z"/>
		</g>
		<g>
			<path fill="#153D71" d="M244,213c0,4.4-3.6,8-8,8h-51c-4.4,0-8-3.6-8-8v-22c0-4.4,3.6-8,8-8h51c4.4,0,8,3.6,8,8V213z"/>
			<path fill="none" stroke="#000000" stroke-miterlimit="10" d="M243.5,212.5c0,4.4-3.6,8-8,8h-51c-4.4,0-8-3.6-8-8v-22
				c0-4.4,3.6-8,8-8h51c4.4,0,8,3.6,8,8V212.5z"/>
		</g>
		<g>
			<path fill="#153D71" d="M284,145c0,4.4-3.6,8-8,8h-62c-4.4,0-8-3.6-8-8v-22c0-4.4,3.6-8,8-8h62c4.4,0,8,3.6,8,8V145z"/>
			<path fill="none" stroke="#000000" stroke-miterlimit="10" d="M283.5,144.5c0,4.4-3.6,8-8,8h-62c-4.4,0-8-3.6-8-8v-22
				c0-4.4,3.6-8,8-8h62c4.4,0,8,3.6,8,8V144.5z"/>
		</g>
		<g>
			<path fill="#153D71" d="M278,82c0,4.4-3.6,8-8,8h-50c-4.4,0-8-3.6-8-8V60c0-4.4,3.6-8,8-8h50c4.4,0,8,3.6,8,8V82z"/>
			<path fill="none" stroke="#000000" stroke-miterlimit="10" d="M277.5,82.5c0,4.4-3.6,8-8,8h-50c-4.4,0-8-3.6-8-8v-22
				c0-4.4,3.6-8,8-8h50c4.4,0,8,3.6,8,8V82.5z"/>
		</g>
		<g>
			<path fill="#153D71" d="M421,82c0,4.4-3.6,8-8,8h-50c-4.4,0-8-3.6-8-8V60c0-4.4,3.6-8,8-8h50c4.4,0,8,3.6,8,8V82z"/>
			<path fill="none" stroke="#000000" stroke-miterlimit="10" d="M420.5,82.5c0,4.4-3.6,8-8,8h-50c-4.4,0-8-3.6-8-8v-22
				c0-4.4,3.6-8,8-8h50c4.4,0,8,3.6,8,8V82.5z"/>
		</g>
		<g>
			<path fill="#153D71" d="M547,82c0,4.4-3.6,8-8,8h-60c-4.4,0-8-3.6-8-8V60c0-4.4,3.6-8,8-8h60c4.4,0,8,3.6,8,8V82z"/>
			<path fill="none" stroke="#000000" stroke-miterlimit="10" d="M547.5,82.5c0,4.4-3.6,8-8,8h-60c-4.4,0-8-3.6-8-8v-22
				c0-4.4,3.6-8,8-8h60c4.4,0,8,3.6,8,8V82.5z"/>
		</g>
		<g>
			<path fill="#153D71" d="M607,145c0,4.4-3.6,8-8,8h-74c-4.4,0-8-3.6-8-8v-22c0-4.4,3.6-8,8-8h74c4.4,0,8,3.6,8,8V145z"/>
			<path fill="none" stroke="#000000" stroke-miterlimit="10" d="M606.5,144.5c0,4.4-3.6,8-8,8h-74c-4.4,0-8-3.6-8-8v-22
				c0-4.4,3.6-8,8-8h74c4.4,0,8,3.6,8,8V144.5z"/>
		</g>
		<g>
			<path fill="#153D71" d="M596,213c0,4.4-3.6,8-8,8h-53c-4.4,0-8-3.6-8-8v-22c0-4.4,3.6-8,8-8h53c4.4,0,8,3.6,8,8V213z"/>
			<path fill="none" stroke="#000000" stroke-miterlimit="10" d="M595.5,212.5c0,4.4-3.6,8-8,8h-53c-4.4,0-8-3.6-8-8v-22
				c0-4.4,3.6-8,8-8h53c4.4,0,8,3.6,8,8V212.5z"/>
		</g>
		<g>
			<path fill="#153D71" d="M500,213c0,4.4-3.6,8-8,8h-60c-4.4,0-8-3.6-8-8v-22c0-4.4,3.6-8,8-8h60c4.4,0,8,3.6,8,8V213z"/>
			<path fill="none" stroke="#000000" stroke-miterlimit="10" d="M499.5,212.5c0,4.4-3.6,8-8,8h-60c-4.4,0-8-3.6-8-8v-22
				c0-4.4,3.6-8,8-8h60c4.4,0,8,3.6,8,8V212.5z"/>
		</g>
		<g>
			<path fill="#153D71" d="M244,268c0,4.4-3.6,8-8,8h-51c-4.4,0-8-3.6-8-8v-22c0-4.4,3.6-8,8-8h51c4.4,0,8,3.6,8,8V268z"/>
			<path fill="none" stroke="#000000" stroke-miterlimit="10" d="M243.5,267.5c0,4.4-3.6,8-8,8h-51c-4.4,0-8-3.6-8-8v-22
				c0-4.4,3.6-8,8-8h51c4.4,0,8,3.6,8,8V267.5z"/>
		</g>
		<g>
			<path fill="#153D71" d="M244,319c0,4.4-3.6,8-8,8h-51c-4.4,0-8-3.6-8-8v-22c0-4.4,3.6-8,8-8h51c4.4,0,8,3.6,8,8V319z"/>
			<path fill="none" stroke="#000000" stroke-width="2" stroke-miterlimit="10" d="M244,319c0,4.4-3.6,8-8,8h-51c-4.4,0-8-3.6-8-8
				v-22c0-4.4,3.6-8,8-8h51c4.4,0,8,3.6,8,8V319z"/>
		</g>
		<g>
			<path fill="#153D71" d="M177,397c0,4.4-3.6,8-8,8h-52c-4.4,0-8-3.6-8-8v-22c0-4.4,3.6-8,8-8h52c4.4,0,8,3.6,8,8V397z"/>
			<path fill="none" stroke="#000000" stroke-miterlimit="10" d="M176.5,396.5c0,4.4-3.6,8-8,8h-52c-4.4,0-8-3.6-8-8v-22
				c0-4.4,3.6-8,8-8h52c4.4,0,8,3.6,8,8V396.5z"/>
		</g>
		<g>
			<path fill="#153D71" d="M183,459c0,4.4-3.6,8-8,8h-65c-4.4,0-8-3.6-8-8v-22c0-4.4,3.6-8,8-8h65c4.4,0,8,3.6,8,8V459z"/>
			<path fill="none" stroke="#000000" stroke-miterlimit="10" d="M183.5,458.5c0,4.4-3.6,8-8,8h-65c-4.4,0-8-3.6-8-8v-22
				c0-4.4,3.6-8,8-8h65c4.4,0,8,3.6,8,8V458.5z"/>
		</g>
		<g>
			<path fill="#153D71" d="M127,539c0,4.4-3.6,8-8,8H25c-4.4,0-8-3.6-8-8v-22c0-4.4,3.6-8,8-8h94c4.4,0,8,3.6,8,8V539z"/>
			<path fill="none" stroke="#000000" stroke-miterlimit="10" d="M126.5,539.5c0,4.4-3.6,8-8,8h-94c-4.4,0-8-3.6-8-8v-22
				c0-4.4,3.6-8,8-8h94c4.4,0,8,3.6,8,8V539.5z"/>
		</g>
		<g>
			<path fill="#153D71" d="M123,605c0,4.4-3.6,8-8,8H30c-4.4,0-8-3.6-8-8v-22c0-4.4,3.6-8,8-8h85c4.4,0,8,3.6,8,8V605z"/>
			<path fill="none" stroke="#000000" stroke-miterlimit="10" d="M122.5,605.5c0,4.4-3.6,8-8,8h-85c-4.4,0-8-3.6-8-8v-22
				c0-4.4,3.6-8,8-8h85c4.4,0,8,3.6,8,8V605.5z"/>
		</g>
		<g>
			<path fill="#153D71" d="M287,539c0,4.4-3.6,8-8,8H170c-4.4,0-8-3.6-8-8v-22c0-4.4,3.6-8,8-8h109c4.4,0,8,3.6,8,8V539z"/>
			<path fill="none" stroke="#000000" stroke-miterlimit="10" d="M287.5,539.5c0,4.4-3.6,8-8,8h-109c-4.4,0-8-3.6-8-8v-22
				c0-4.4,3.6-8,8-8h109c4.4,0,8,3.6,8,8V539.5z"/>
		</g>
		<g>
			<path fill="#153D71" d="M575,397c0,4.4-3.6,8-8,8h-88c-4.4,0-8-3.6-8-8v-22c0-4.4,3.6-8,8-8h88c4.4,0,8,3.6,8,8V397z"/>
			<path fill="none" stroke="#000000" stroke-miterlimit="10" d="M574.5,396.5c0,4.4-3.6,8-8,8h-88c-4.4,0-8-3.6-8-8v-22
				c0-4.4,3.6-8,8-8h88c4.4,0,8,3.6,8,8V396.5z"/>
		</g>
		<g>
			<path fill="#153D71" d="M513,461c0,4.4-3.6,8-8,8H392c-4.4,0-8-3.6-8-8v-22c0-4.4,3.6-8,8-8h113c4.4,0,8,3.6,8,8V461z"/>
			<path fill="none" stroke="#000000" stroke-miterlimit="10" d="M512.5,460.5c0,4.4-3.6,8-8,8h-113c-4.4,0-8-3.6-8-8v-22
				c0-4.4,3.6-8,8-8h113c4.4,0,8,3.6,8,8V460.5z"/>
		</g>
		<g>
			<path fill="#153D71" d="M676,461c0,4.4-3.6,8-8,8H546c-4.4,0-8-3.6-8-8v-22c0-4.4,3.6-8,8-8h122c4.4,0,8,3.6,8,8V461z"/>
			<path fill="none" stroke="#000000" stroke-miterlimit="10" d="M675.5,460.5c0,4.4-3.6,8-8,8h-122c-4.4,0-8-3.6-8-8v-22
				c0-4.4,3.6-8,8-8h122c4.4,0,8,3.6,8,8V460.5z"/>
		</g>
		<line fill="none" x1="468.1" y1="182.8" x2="497.9" y2="101.1"/>
		<text transform="matrix(0.3426 -0.9395 0.9395 0.3426 468.1113 182.7734)" font-family="'MyriadPro-Regular'" font-size="7.7688">.</text>
		<text transform="matrix(0.3426 -0.9395 0.9395 0.3426 468.6592 181.2705)" font-family="'MyriadPro-Regular'" font-size="7.7688">.</text>
		<text transform="matrix(0.3426 -0.9395 0.9395 0.3426 469.207 179.7676)" font-family="'MyriadPro-Regular'" font-size="7.7688">.</text>
		<text transform="matrix(0.3426 -0.9395 0.9395 0.3426 469.7549 178.2637)" font-family="'MyriadPro-Regular'" font-size="7.7688">.</text>
		<text transform="matrix(0.3426 -0.9395 0.9395 0.3426 470.3037 176.7607)" font-family="'MyriadPro-Regular'" font-size="7.7688">.</text>
		<text transform="matrix(0.3426 -0.9395 0.9395 0.3426 470.8857 175.1641)" font-family="'MyriadPro-Regular'" font-size="7.7688">.</text>
		<text transform="matrix(0.3426 -0.9395 0.9395 0.3426 471.4336 173.6602)" font-family="'MyriadPro-Regular'" font-size="7.7688">.</text>
		<text transform="matrix(0.3426 -0.9395 0.9395 0.3426 471.9824 172.1572)" font-family="'MyriadPro-Regular'" font-size="7.7688">.</text>
		<text transform="matrix(0.3426 -0.9395 0.9395 0.3426 472.5303 170.6543)" font-family="'MyriadPro-Regular'" font-size="7.7688">.</text>
		<text transform="matrix(0.3426 -0.9395 0.9395 0.3426 473.0781 169.1504)" font-family="'MyriadPro-Regular'" font-size="7.7688">.</text>
		<text transform="matrix(0.3426 -0.9395 0.9395 0.3426 473.627 167.6475)" font-family="'MyriadPro-Regular'" font-size="7.7688">.</text>
		<text transform="matrix(0.3426 -0.9395 0.9395 0.3426 474.1748 166.1445)" font-family="'MyriadPro-Regular'" font-size="7.7688">.</text>
		<text transform="matrix(0.3426 -0.9395 0.9395 0.3426 474.7227 164.6406)" font-family="'MyriadPro-Regular'" font-size="7.7688">.</text>
		<text transform="matrix(0.3426 -0.9395 0.9395 0.3426 475.2715 163.1377)" font-family="'MyriadPro-Regular'" font-size="7.7688">.</text>
		<text transform="matrix(0.3426 -0.9395 0.9395 0.3426 475.8193 161.6348)" font-family="'MyriadPro-Regular'" font-size="7.7688">.</text>
		<text transform="matrix(0.3426 -0.9395 0.9395 0.3426 476.3672 160.1309)" font-family="'MyriadPro-Regular'" font-size="7.7688">.</text>
		<text transform="matrix(0.3426 -0.9395 0.9395 0.3426 476.9502 158.5342)" font-family="'MyriadPro-Regular'" font-size="7.7688">.</text>
		<text transform="matrix(0.3426 -0.9395 0.9395 0.3426 477.498 157.0313)" font-family="'MyriadPro-Regular'" font-size="7.7688">.</text>
		<text transform="matrix(0.3426 -0.9395 0.9395 0.3426 478.0459 155.5273)" font-family="'MyriadPro-Regular'" font-size="7.7688">.</text>
		<text transform="matrix(0.3426 -0.9395 0.9395 0.3426 478.5947 154.0244)" font-family="'MyriadPro-Regular'" font-size="7.7688">.</text>
		<text transform="matrix(0.3426 -0.9395 0.9395 0.3426 479.1426 152.5215)" font-family="'MyriadPro-Regular'" font-size="7.7688">.</text>
		<text transform="matrix(0.3426 -0.9395 0.9395 0.3426 479.6904 151.0186)" font-family="'MyriadPro-Regular'" font-size="7.7688">.</text>
		<text transform="matrix(0.3426 -0.9395 0.9395 0.3426 480.2393 149.5156)" font-family="'MyriadPro-Regular'" font-size="7.7688">.</text>
		<text transform="matrix(0.3426 -0.9395 0.9395 0.3426 480.7871 148.0117)" font-family="'MyriadPro-Regular'" font-size="7.7688">.</text>
		<text transform="matrix(0.3426 -0.9395 0.9395 0.3426 481.335 146.5088)" font-family="'MyriadPro-Regular'" font-size="7.7688">.</text>
		<text transform="matrix(0.3426 -0.9395 0.9395 0.3426 481.8838 145.0059)" font-family="'MyriadPro-Regular'" font-size="7.7688">.</text>
		<text transform="matrix(0.3426 -0.9395 0.9395 0.3426 482.4316 143.502)" font-family="'MyriadPro-Regular'" font-size="7.7688">.</text>
		<text transform="matrix(0.3426 -0.9395 0.9395 0.3426 483.0137 141.9053)" font-family="'MyriadPro-Regular'" font-size="7.7688">.</text>
		<text transform="matrix(0.3426 -0.9395 0.9395 0.3426 483.5625 140.4023)" font-family="'MyriadPro-Regular'" font-size="7.7688">.</text>
		<text transform="matrix(0.3426 -0.9395 0.9395 0.3426 484.1104 138.8984)" font-family="'MyriadPro-Regular'" font-size="7.7688">.</text>
		<text transform="matrix(0.3426 -0.9395 0.9395 0.3426 484.6582 137.3955)" font-family="'MyriadPro-Regular'" font-size="7.7688">.</text>
		<text transform="matrix(0.3426 -0.9395 0.9395 0.3426 485.207 135.8926)" font-family="'MyriadPro-Regular'" font-size="7.7688">.</text>
		<text transform="matrix(0.3426 -0.9395 0.9395 0.3426 485.7549 134.3887)" font-family="'MyriadPro-Regular'" font-size="7.7688">.</text>
		<text transform="matrix(0.3426 -0.9395 0.9395 0.3426 486.3027 132.8857)" font-family="'MyriadPro-Regular'" font-size="7.7688">.</text>
		<text transform="matrix(0.3426 -0.9395 0.9395 0.3426 486.8516 131.3828)" font-family="'MyriadPro-Regular'" font-size="7.7688">.</text>
		<text transform="matrix(0.3426 -0.9395 0.9395 0.3426 487.3994 129.8799)" font-family="'MyriadPro-Regular'" font-size="7.7688">.</text>
		<text transform="matrix(0.3426 -0.9395 0.9395 0.3426 487.9473 128.377)" font-family="'MyriadPro-Regular'" font-size="7.7688">.</text>
		<text transform="matrix(0.3426 -0.9395 0.9395 0.3426 488.4951 126.873)" font-family="'MyriadPro-Regular'" font-size="7.7688">.</text>
		<text transform="matrix(0.3426 -0.9395 0.9395 0.3426 489.0781 125.2754)" font-family="'MyriadPro-Regular'" font-size="7.7688">.</text>
		<text transform="matrix(0.3426 -0.9395 0.9395 0.3426 489.626 123.7734)" font-family="'MyriadPro-Regular'" font-size="7.7688">.</text>
		<text transform="matrix(0.3426 -0.9395 0.9395 0.3426 490.1738 122.2695)" font-family="'MyriadPro-Regular'" font-size="7.7688">.</text>
		<text transform="matrix(0.3426 -0.9395 0.9395 0.3426 490.7227 120.7666)" font-family="'MyriadPro-Regular'" font-size="7.7688">.</text>
		<text transform="matrix(0.3426 -0.9395 0.9395 0.3426 491.2705 119.2637)" font-family="'MyriadPro-Regular'" font-size="7.7688">.</text>
		<text transform="matrix(0.3426 -0.9395 0.9395 0.3426 491.8184 117.7598)" font-family="'MyriadPro-Regular'" font-size="7.7688">.</text>
		<text transform="matrix(0.3426 -0.9395 0.9395 0.3426 492.3672 116.2568)" font-family="'MyriadPro-Regular'" font-size="7.7688">.</text>
		<text transform="matrix(0.3426 -0.9395 0.9395 0.3426 492.915 114.7539)" font-family="'MyriadPro-Regular'" font-size="7.7688">.</text>
		<text transform="matrix(0.3426 -0.9395 0.9395 0.3426 493.4629 113.25)" font-family="'MyriadPro-Regular'" font-size="7.7688">.</text>
		<text transform="matrix(0.3426 -0.9395 0.9395 0.3426 494.0117 111.7471)" font-family="'MyriadPro-Regular'" font-size="7.7688">.</text>
		<text transform="matrix(0.3426 -0.9395 0.9395 0.3426 494.5938 110.1504)" font-family="'MyriadPro-Regular'" font-size="7.7688">.</text>
		<text transform="matrix(0.3426 -0.9395 0.9395 0.3426 495.1074 108.7402)" font-family="'MyriadPro-Regular'" font-size="7.7688">.</text>
		<text transform="matrix(0.3426 -0.9395 0.9395 0.3426 495.6904 107.1436)" font-family="'MyriadPro-Regular'" font-size="7.7688">.</text>
		<text transform="matrix(0.3426 -0.9395 0.9395 0.3426 496.2383 105.6406)" font-family="'MyriadPro-Regular'" font-size="7.7688">.</text>
		<text transform="matrix(0.3426 -0.9395 0.9395 0.3426 496.7861 104.1367)" font-family="'MyriadPro-Regular'" font-size="7.7688">.</text>
		<line fill="none" x1="532.7" y1="100.3" x2="544.4" y2="113.5"/>
		<text transform="matrix(0.6598 0.7515 -0.7515 0.6598 532.7656 100.292)" font-family="'MyriadPro-Regular'" font-size="7.7691">.</text>
		<text transform="matrix(0.6598 0.7515 -0.7515 0.6598 533.8223 101.4946)" font-family="'MyriadPro-Regular'" font-size="7.7691">.</text>
		<text transform="matrix(0.6598 0.7515 -0.7515 0.6598 534.877 102.6973)" font-family="'MyriadPro-Regular'" font-size="7.7691">.</text>
		<text transform="matrix(0.6598 0.7515 -0.7515 0.6598 535.9336 103.8994)" font-family="'MyriadPro-Regular'" font-size="7.7691">.</text>
		<text transform="matrix(0.6598 0.7515 -0.7515 0.6598 536.9883 105.1016)" font-family="'MyriadPro-Regular'" font-size="7.7691">.</text>
		<text transform="matrix(0.6598 0.7515 -0.7515 0.6598 538.1104 106.3784)" font-family="'MyriadPro-Regular'" font-size="7.7691">.</text>
		<text transform="matrix(0.6598 0.7515 -0.7515 0.6598 539.166 107.5815)" font-family="'MyriadPro-Regular'" font-size="7.7691">.</text>
		<text transform="matrix(0.6598 0.7515 -0.7515 0.6598 540.2227 108.7842)" font-family="'MyriadPro-Regular'" font-size="7.7691">.</text>
		<text transform="matrix(0.6598 0.7515 -0.7515 0.6598 541.2764 109.9858)" font-family="'MyriadPro-Regular'" font-size="7.7691">.</text>
		<text transform="matrix(0.6598 0.7515 -0.7515 0.6598 542.333 111.188)" font-family="'MyriadPro-Regular'" font-size="7.7691">.</text>
		<line fill="none" x1="229.7" y1="163.5" x2="220.7" y2="182"/>
		
			<text transform="matrix(-0.4409 0.8976 -0.8976 -0.4409 229.2168 164.6216)" font-family="'MyriadPro-Regular'" font-size="7.7691">.</text>
		
			<text transform="matrix(-0.4409 0.8976 -0.8976 -0.4409 228.5117 166.0571)" font-family="'MyriadPro-Regular'" font-size="7.7691">.</text>
		
			<text transform="matrix(-0.4409 0.8976 -0.8976 -0.4409 227.8062 167.4932)" font-family="'MyriadPro-Regular'" font-size="7.7691">.</text>
		
			<text transform="matrix(-0.4409 0.8976 -0.8976 -0.4409 227.1006 168.9287)" font-family="'MyriadPro-Regular'" font-size="7.7691">.</text>
		
			<text transform="matrix(-0.4409 0.8976 -0.8976 -0.4409 226.395 170.3657)" font-family="'MyriadPro-Regular'" font-size="7.7691">.</text>
		
			<text transform="matrix(-0.4409 0.8976 -0.8976 -0.4409 225.6895 171.8018)" font-family="'MyriadPro-Regular'" font-size="7.7691">.</text>
		
			<text transform="matrix(-0.4409 0.8976 -0.8976 -0.4409 224.9424 173.3276)" font-family="'MyriadPro-Regular'" font-size="7.7691">.</text>
		
			<text transform="matrix(-0.4409 0.8976 -0.8976 -0.4409 224.2793 174.6748)" font-family="'MyriadPro-Regular'" font-size="7.7691">.</text>
		
			<text transform="matrix(-0.4409 0.8976 -0.8976 -0.4409 223.5288 176.2002)" font-family="'MyriadPro-Regular'" font-size="7.7691">.</text>
		
			<text transform="matrix(-0.4409 0.8976 -0.8976 -0.4409 222.8242 177.6357)" font-family="'MyriadPro-Regular'" font-size="7.7691">.</text>
		
			<text transform="matrix(-0.4409 0.8976 -0.8976 -0.4409 222.1182 179.0723)" font-family="'MyriadPro-Regular'" font-size="7.7691">.</text>
		
			<text transform="matrix(-0.4409 0.8976 -0.8976 -0.4409 221.415 180.5083)" font-family="'MyriadPro-Regular'" font-size="7.7691">.</text>
		<path fill="none" d="M255,182.8c0,0-6.6-2.3-6.6-5.2s-0.8-13.3-0.8-13.3"/>
		
			<text transform="matrix(-0.9289 -0.3703 0.3703 -0.9289 255.0083 182.8203)" font-family="'MyriadPro-Regular'" font-size="7.7688">.</text>
		
			<text transform="matrix(-0.9289 -0.3703 0.3703 -0.9289 253.6147 182.2656)" font-family="'MyriadPro-Regular'" font-size="7.7688">.</text>
		
			<text transform="matrix(-0.9289 -0.3703 0.3703 -0.9289 252.2583 181.6172)" font-family="'MyriadPro-Regular'" font-size="7.7688">.</text>
		
			<text transform="matrix(-0.9289 -0.3703 0.3703 -0.9289 251.0317 180.9121)" font-family="'MyriadPro-Regular'" font-size="7.7688">.</text>
		
			<text transform="matrix(-0.9289 -0.3703 0.3703 -0.9289 249.8989 180.2461)" font-family="'MyriadPro-Regular'" font-size="7.7688">.</text>
		<text transform="matrix(-0.9289 -0.3703 0.3703 -0.9289 249.062 179.373)" font-family="'MyriadPro-Regular'" font-size="7.7688">.</text>
		
			<text transform="matrix(-0.9289 -0.3703 0.3703 -0.9289 248.5591 178.2051)" font-family="'MyriadPro-Regular'" font-size="7.7688">.</text>
		
			<text transform="matrix(-0.9289 -0.3703 0.3703 -0.9289 248.354 176.8301)" font-family="'MyriadPro-Regular'" font-size="7.7688">.</text>
		
			<text transform="matrix(-0.9289 -0.3703 0.3703 -0.9289 248.2583 175.1777)" font-family="'MyriadPro-Regular'" font-size="7.7688">.</text>
		
			<text transform="matrix(-0.9289 -0.3703 0.3703 -0.9289 248.1646 173.5254)" font-family="'MyriadPro-Regular'" font-size="7.7688">.</text>
		
			<text transform="matrix(-0.9289 -0.3703 0.3703 -0.9289 248.1255 172.002)" font-family="'MyriadPro-Regular'" font-size="7.7688">.</text>
		
			<text transform="matrix(-0.9289 -0.3703 0.3703 -0.9289 248.0298 170.3496)" font-family="'MyriadPro-Regular'" font-size="7.7688">.</text>
		
			<text transform="matrix(-0.9289 -0.3703 0.3703 -0.9289 247.8989 168.791)" font-family="'MyriadPro-Regular'" font-size="7.7688">.</text>
		
			<text transform="matrix(-0.9289 -0.3703 0.3703 -0.9289 247.8032 167.1387)" font-family="'MyriadPro-Regular'" font-size="7.7688">.</text>
		<polyline fill="none" stroke="#000000" stroke-miterlimit="10" points="278.5,80.7 326.9,93.3 351.1,84.6 		"/>
		<polyline fill="none" stroke="#000000" stroke-miterlimit="10" points="284.1,85.4 278.3,80.7 285.7,78.9 		"/>
		<polyline fill="none" stroke="#000000" stroke-miterlimit="10" points="285.1,64.3 278.5,63 282.5,59.1 		"/>
		<polyline fill="none" stroke="#000000" stroke-miterlimit="10" points="279.1,62.4 329.6,48.5 351.1,57.9 		"/>
		<line fill="none" stroke="#000000" stroke-miterlimit="10" x1="470" y1="71.5" x2="419" y2="71.5"/>
		<polyline fill="none" stroke="#000000" stroke-miterlimit="10" points="463.2,68.8 469.9,71.8 463.2,75.5 		"/>
		<line fill="none" stroke="#000000" stroke-miterlimit="10" x1="89.3" y1="509.1" x2="118.9" y2="475.4"/>
		<polygon fill="none" stroke="#000000" stroke-miterlimit="10" points="116.3,472.8 121.6,477.4 126.8,467.8 		"/>
		<polygon fill="none" stroke="#000000" stroke-miterlimit="10" points="68.2,557.5 76.6,557.5 72.4,547 		"/>
		<line fill="none" stroke="#000000" stroke-miterlimit="10" x1="72.5" y1="558" x2="72.5" y2="574"/>
		<polygon fill="none" stroke="#000000" stroke-miterlimit="10" points="153.2,479 160.3,475.4 151.6,467.8 		"/>
		<polyline fill="none" stroke="#000000" stroke-miterlimit="10" points="157.1,477.4 169.4,503.4 182.5,509.1 		"/>
		<polyline fill="none" stroke="#000000" stroke-miterlimit="10" points="164.4,474.3 163.2,467.8 168.6,469.4 		"/>
		<line fill="none" stroke="#000000" stroke-miterlimit="10" x1="164" y1="468.1" x2="205.1" y2="509.1"/>
		<polygon fill="none" stroke="#000000" stroke-miterlimit="10" points="490.7,408.5 496,414.2 500.6,404.2 		"/>
		<line fill="none" stroke="#000000" stroke-miterlimit="10" x1="492.8" y1="410.8" x2="471.6" y2="429.5"/>
		<polygon fill="none" stroke="#000000" stroke-miterlimit="10" points="558.3,407.6 553.9,413 548.2,404.2 		"/>
		<line fill="none" stroke="#000000" stroke-miterlimit="10" x1="556.1" y1="410.3" x2="581" y2="429.5"/>
		<polygon fill="none" stroke="#000000" stroke-miterlimit="10" points="501.5,91.5 494,99.9 501.5,102.4 		"/>
		<polygon fill="none" stroke="#000000" stroke-miterlimit="10" points="525.6,91.9 529,101.5 535.2,97.3 		"/>
		<polygon fill="none" stroke="#000000" stroke-miterlimit="10" points="243.7,163.5 251.3,163.1 246.4,153.8 		"/>
		<polygon fill="none" stroke="#000000" stroke-miterlimit="10" points="226.8,161.4 233.2,164.3 235.2,153.8 		"/>
		<polyline fill="none" stroke="#000000" stroke-miterlimit="10" points="257.6,160.5 256.9,153.8 262.5,156.3 		"/>
		<line fill="none" stroke="#000000" stroke-miterlimit="10" x1="257.4" y1="154.7" x2="275.9" y2="182"/>
		<line fill="none" stroke="#000000" stroke-miterlimit="10" x1="244.5" y1="91" x2="244.5" y2="113"/>
		<polyline fill="none" stroke="#000000" stroke-miterlimit="10" points="241.3,108.6 244.6,114.3 248,108.6 		"/>
		<polygon fill="none" stroke="#000000" stroke-miterlimit="10" points="561.9,153.2 557.8,163.5 565.4,163.5 		"/>
		<line fill="none" stroke="#000000" stroke-miterlimit="10" x1="561.6" y1="164.3" x2="561.9" y2="182.8"/>
		<polygon fill="none" stroke="#000000" stroke-miterlimit="10" points="206.1,226.5 213.9,226.5 210,236.4 		"/>
		<line fill="none" stroke="#000000" stroke-miterlimit="10" x1="210.2" y1="221" x2="210.4" y2="226.8"/>
		<polygon fill="none" stroke="#000000" stroke-miterlimit="10" points="143.3,404.5 139.4,415.5 146.3,415.5 		"/>
		<line fill="none" stroke="#000000" stroke-miterlimit="10" x1="143.5" y1="416" x2="143.5" y2="429"/>
		<g>
			<g>
				<circle fill="none" stroke="#FFFFFF" cx="361.3" cy="71" r="4.7"/>
				
					<text transform="matrix(1 0 0 1 358.9927 73.4766)" fill="none" stroke="#FFFFFF" font-family="'MyriadPro-Regular'" font-size="7.7688">C</text>
			</g>
		</g>
		<g>
			<g>
				<circle fill="none" stroke="#FFFFFF" cx="524.5" cy="133.8" r="4.7"/>
				
					<text transform="matrix(1 0 0 1 522.1387 136.2744)" fill="none" stroke="#FFFFFF" font-family="'MyriadPro-Regular'" font-size="7.7688">C</text>
			</g>
		</g>
		<g>
			<g>
				<circle fill="none" stroke="#FFFFFF" cx="534.2" cy="201.7" r="4.7"/>
				
					<text transform="matrix(1 0 0 1 531.8486 204.252)" fill="none" stroke="#FFFFFF" font-family="'MyriadPro-Regular'" font-size="7.7688">C</text>
			</g>
		</g>
		<g>
			<g>
				<circle fill="none" stroke="#FFFFFF" cx="481.8" cy="385.6" r="4.7"/>
				
					<text transform="matrix(1 0 0 1 479.4082 388.1143)" fill="none" stroke="#FFFFFF" font-family="'MyriadPro-Regular'" font-size="7.7688">C</text>
			</g>
		</g>
		<g>
			<g>
				<circle fill="none" stroke="#FFFFFF" cx="390.5" cy="449.7" r="4.7"/>
				
					<text transform="matrix(1 0 0 1 388.126 452.207)" fill="none" stroke="#FFFFFF" font-family="'MyriadPro-Regular'" font-size="7.7688">C</text>
			</g>
		</g>
		<g>
			<g>
				<circle fill="none" stroke="#FFFFFF" cx="169.7" cy="528" r="4.7"/>
				
					<text transform="matrix(1 0 0 1 167.3604 530.543)" fill="none" stroke="#FFFFFF" font-family="'MyriadPro-Regular'" font-size="7.7688">C</text>
			</g>
		</g>
		<g>
			<g>
				<circle fill="none" stroke="#FFFFFF" cx="26.6" cy="528" r="4.7"/>
				
					<text transform="matrix(1 0 0 1 24.2852 530.543)" fill="none" stroke="#FFFFFF" font-family="'MyriadPro-Regular'" font-size="7.7688">C</text>
			</g>
		</g>
		<g>
			<g>
				<circle fill="none" stroke="#FFFFFF" cx="29.2" cy="594.1" r="4.7"/>
				
					<text transform="matrix(1 0 0 1 26.8745 596.5781)" fill="none" stroke="#FFFFFF" font-family="'MyriadPro-Regular'" font-size="7.7688">C</text>
			</g>
		</g>
		<g>
			<g>
				<circle fill="none" stroke="#FFFFFF" cx="110.1" cy="447.8" r="4.7"/>
				
					<text transform="matrix(1 0 0 1 107.8003 450.2637)" fill="none" stroke="#FFFFFF" font-family="'MyriadPro-Regular'" font-size="7.7688">C</text>
			</g>
		</g>
		<g>
			<g>
				<circle fill="none" stroke="#FFFFFF" cx="116.6" cy="385.6" r="4.7"/>
				
					<text transform="matrix(1 0 0 1 114.2734 388.1143)" fill="none" stroke="#FFFFFF" font-family="'MyriadPro-Regular'" font-size="7.7688">C</text>
			</g>
		</g>
		<g>
			<g>
				<circle fill="none" stroke="#FFFFFF" stroke-width="2" cx="548.4" cy="449.7" r="4.7"/>
				
					<text transform="matrix(1 0 0 1 546.0908 452.207)" fill="none" stroke="#FFFFFF" stroke-width="2" font-family="'MyriadPro-Regular'" font-size="7.7688">C</text>
			</g>
		</g>
		<g>
			<g>
				<circle fill="none" stroke="#FFFFFF" cx="432.5" cy="201.7" r="4.7"/>
				
					<text transform="matrix(1 0 0 1 430.2061 204.252)" fill="none" stroke="#FFFFFF" font-family="'MyriadPro-Regular'" font-size="7.7688">C</text>
			</g>
		</g>
		<g>
			<circle fill="none" stroke="#FFFFFF" stroke-miterlimit="10" cx="218.3" cy="71" r="4.7"/>
			<text transform="matrix(1 0 0 1 215.916 73.4766)" font-family="'MyriadPro-Regular'" font-size="7.7688">C</text>
			
				<text transform="matrix(1 0 0 1 215.916 73.4766)" fill="none" stroke="#FFFFFF" font-family="'MyriadPro-Regular'" font-size="7.7688">C</text>
		</g>
		<g>
			<circle fill="none" stroke="#FFFFFF" stroke-miterlimit="10" cx="213.7" cy="133.8" r="4.7"/>
			<text transform="matrix(1 0 0 1 211.3843 136.2744)" font-family="'MyriadPro-Regular'" font-size="7.7688">C</text>
			
				<text transform="matrix(1 0 0 1 211.3843 136.2744)" fill="none" stroke="#FFFFFF" font-family="'MyriadPro-Regular'" font-size="7.7688">C</text>
		</g>
		<g>
			<circle fill="none" stroke="#FFFFFF" stroke-miterlimit="10" cx="183.3" cy="201.7" r="4.7"/>
			<text transform="matrix(1 0 0 1 180.9561 204.252)" font-family="'MyriadPro-Regular'" font-size="7.7688">C</text>
			
				<text transform="matrix(1 0 0 1 180.9561 204.252)" fill="none" stroke="#FFFFFF" font-family="'MyriadPro-Regular'" font-size="7.7688">C</text>
		</g>
		<g>
			<circle fill="none" stroke="#FFFFFF" stroke-miterlimit="10" cx="262.3" cy="201.7" r="4.7"/>
			<text transform="matrix(1 0 0 1 259.9395 204.252)" font-family="'MyriadPro-Regular'" font-size="7.7688">C</text>
			
				<text transform="matrix(1 0 0 1 259.9395 204.252)" fill="none" stroke="#FFFFFF" font-family="'MyriadPro-Regular'" font-size="7.7688">C</text>
		</g>
		<g>
			<circle fill="none" stroke="#FFFFFF" stroke-miterlimit="10" cx="183.3" cy="256.8" r="4.7"/>
			<text transform="matrix(1 0 0 1 180.9561 259.2813)" font-family="'MyriadPro-Regular'" font-size="7.7688">C</text>
			
				<text transform="matrix(1 0 0 1 180.9561 259.2813)" fill="none" stroke="#FFFFFF" font-family="'MyriadPro-Regular'" font-size="7.7688">C</text>
		</g>
		<g>
			<circle fill="none" stroke="#FFFFFF" stroke-miterlimit="10" cx="183.3" cy="307.3" r="4.7"/>
			<text transform="matrix(1 0 0 1 180.9561 309.7783)" font-family="'MyriadPro-Regular'" font-size="7.7688">C</text>
			
				<text transform="matrix(1 0 0 1 180.9561 309.7783)" fill="none" stroke="#FFFFFF" font-family="'MyriadPro-Regular'" font-size="7.7688">C</text>
		</g>
		<g>
			<circle fill="none" stroke="#FFFFFF" cx="483" cy="72" r="4.7"/>
			
				<text transform="matrix(1 0 0 1 481.9063 74.2324)" fill="none" stroke="#FFFFFF" font-family="'MyriadPro-Regular'" font-size="7.7688">I</text>
		</g>
		<g>
			<rect x="503" y="373" fill="none" stroke="#FFFFFF" stroke-width="2" stroke-miterlimit="10" width="38" height="2"/>
			<rect x="503" y="392" fill="none" stroke="#FFFFFF" stroke-width="2" stroke-miterlimit="10" width="38" height="3"/>
			<rect x="491" y="382" fill="none" stroke="#FFFFFF" stroke-width="2" stroke-miterlimit="10" width="62" height="4"/>
		</g>
		<g>
			<rect x="576" y="438" fill="none" stroke="#FFFFFF" stroke-width="2" stroke-miterlimit="10" width="62" height="3"/>
			<rect x="576" y="458" fill="none" stroke="#FFFFFF" stroke-width="2" stroke-miterlimit="10" width="62" height="3"/>
			<rect x="557" y="448" fill="none" stroke="#FFFFFF" stroke-width="2" stroke-miterlimit="10" width="99" height="4"/>
		</g>
		<g>
			<rect x="422" y="438" fill="none" stroke="#FFFFFF" stroke-width="2" stroke-miterlimit="10" width="52" height="3"/>
			<rect x="422" y="458" fill="none" stroke="#FFFFFF" stroke-width="2" stroke-miterlimit="10" width="52" height="3"/>
			<rect x="407" y="448" fill="none" stroke="#FFFFFF" stroke-width="2" stroke-miterlimit="10" width="81" height="4"/>
		</g>
		<g>
			<rect x="549" y="123" fill="none" stroke="#FFFFFF" stroke-width="2" stroke-miterlimit="10" width="25" height="2"/>
			<rect x="549" y="141" fill="none" stroke="#FFFFFF" stroke-width="2" stroke-miterlimit="10" width="25" height="4"/>
			<rect x="541" y="131" fill="none" stroke="#FFFFFF" stroke-width="2" stroke-miterlimit="10" width="40" height="4"/>
		</g>
		<g>
			<rect x="549" y="190" fill="none" stroke="#FFFFFF" stroke-width="2" stroke-miterlimit="10" width="23" height="4"/>
			<rect x="549" y="210" fill="none" stroke="#FFFFFF" stroke-width="2" stroke-miterlimit="10" width="23" height="4"/>
			<rect x="542" y="200" fill="none" stroke="#FFFFFF" stroke-width="2" stroke-miterlimit="10" width="36" height="4"/>
		</g>
		<g>
			<rect x="448" y="191" fill="none" stroke="#FFFFFF" stroke-width="2" stroke-miterlimit="10" width="26" height="3"/>
			<rect x="448" y="211" fill="none" stroke="#FFFFFF" stroke-width="2" stroke-miterlimit="10" width="26" height="3"/>
			<rect x="441" y="201" fill="none" stroke="#FFFFFF" stroke-width="2" stroke-miterlimit="10" width="40" height="4"/>
		</g>
		<g>
			<rect x="276" y="191" fill="none" stroke="#FFFFFF" stroke-width="2" stroke-miterlimit="10" width="23" height="3"/>
			<rect x="276" y="211" fill="none" stroke="#FFFFFF" stroke-width="2" stroke-miterlimit="10" width="23" height="3"/>
			<rect x="269" y="201" fill="none" stroke="#FFFFFF" stroke-width="2" stroke-miterlimit="10" width="36" height="4"/>
		</g>
		<g>
			<rect x="198" y="191" fill="none" stroke="#FFFFFF" stroke-width="2" stroke-miterlimit="10" width="23" height="3"/>
			<rect x="198" y="211" fill="none" stroke="#FFFFFF" stroke-width="2" stroke-miterlimit="10" width="23" height="3"/>
			<rect x="191" y="201" fill="none" stroke="#FFFFFF" stroke-width="2" stroke-miterlimit="10" width="37" height="4"/>
		</g>
		<g>
			<rect x="198" y="246" fill="none" stroke="#FFFFFF" stroke-width="2" stroke-miterlimit="10" width="23" height="3"/>
			<rect x="198" y="265" fill="none" stroke="#FFFFFF" stroke-width="2" stroke-miterlimit="10" width="23" height="3"/>
			<rect x="191" y="255" fill="none" stroke="#FFFFFF" stroke-width="2" stroke-miterlimit="10" width="37" height="4"/>
		</g>
		<g>
			<rect x="198.5" y="295.5" fill="none" stroke="#FFFFFF" stroke-miterlimit="10" width="23" height="3"/>
			<rect x="198.5" y="314.5" fill="none" stroke="#FFFFFF" stroke-miterlimit="10" width="23" height="3"/>
			<rect x="191.5" y="305.5" fill="none" stroke="#FFFFFF" stroke-miterlimit="10" width="37" height="4"/>
		</g>
		<g>
			<rect x="132" y="374" fill="none" stroke="#FFFFFF" stroke-width="2" stroke-miterlimit="10" width="21" height="4"/>
			<rect x="132" y="394" fill="none" stroke="#FFFFFF" stroke-width="2" stroke-miterlimit="10" width="21" height="4"/>
			<rect x="126" y="384" fill="none" stroke="#FFFFFF" stroke-width="2" stroke-miterlimit="10" width="33" height="4"/>
		</g>
		<g>
			<rect x="130" y="436" fill="none" stroke="#FFFFFF" stroke-width="2" stroke-miterlimit="10" width="25" height="3"/>
			<rect x="130" y="456" fill="none" stroke="#FFFFFF" stroke-width="2" stroke-miterlimit="10" width="25" height="3"/>
			<rect x="122" y="446" fill="none" stroke="#FFFFFF" stroke-width="2" stroke-miterlimit="10" width="41" height="4"/>
		</g>
		<g>
			<rect x="51" y="517" fill="none" stroke="#FFFFFF" stroke-width="2" stroke-miterlimit="10" width="40" height="3"/>
			<rect x="51" y="536" fill="none" stroke="#FFFFFF" stroke-width="2" stroke-miterlimit="10" width="40" height="3"/>
			<rect x="39" y="526" fill="none" stroke="#FFFFFF" stroke-width="2" stroke-miterlimit="10" width="64" height="4"/>
		</g>
		<g>
			<rect x="50" y="583" fill="none" stroke="#FFFFFF" stroke-width="2" stroke-miterlimit="10" width="43" height="4"/>
			<rect x="50" y="602" fill="none" stroke="#FFFFFF" stroke-width="2" stroke-miterlimit="10" width="43" height="4"/>
			<rect x="37" y="592" fill="none" stroke="#FFFFFF" stroke-width="2" stroke-miterlimit="10" width="68" height="4"/>
		</g>
		<g>
			<rect x="199" y="517" fill="none" stroke="#FFFFFF" stroke-width="2" stroke-miterlimit="10" width="54" height="3"/>
			<rect x="199" y="536" fill="none" stroke="#FFFFFF" stroke-width="2" stroke-miterlimit="10" width="54" height="3"/>
			<rect x="184" y="526" fill="none" stroke="#FFFFFF" stroke-width="2" stroke-miterlimit="10" width="82" height="4"/>
		</g>
		<g>
			<rect x="498" y="60" fill="none" stroke="#FFFFFF" stroke-width="2" stroke-miterlimit="10" width="23" height="3"/>
			<rect x="498" y="79" fill="none" stroke="#FFFFFF" stroke-width="2" stroke-miterlimit="10" width="23" height="3"/>
			<rect x="490" y="69" fill="none" stroke="#FFFFFF" stroke-width="2" stroke-miterlimit="10" width="38" height="4"/>
		</g>
		<g>
			<rect x="378" y="61" fill="none" stroke="#FFFFFF" stroke-width="2" stroke-miterlimit="10" width="20" height="3"/>
			<rect x="378" y="80" fill="none" stroke="#FFFFFF" stroke-width="2" stroke-miterlimit="10" width="20" height="3"/>
			<rect x="372" y="70" fill="none" stroke="#FFFFFF" stroke-width="2" stroke-miterlimit="10" width="31" height="4"/>
		</g>
		<g>
			<rect x="233" y="61" fill="none" stroke="#FFFFFF" stroke-width="2" stroke-miterlimit="10" width="22" height="3"/>
			<rect x="233" y="80" fill="none" stroke="#FFFFFF" stroke-width="2" stroke-miterlimit="10" width="22" height="3"/>
			<rect x="227" y="70" fill="none" stroke="#FFFFFF" stroke-width="2" stroke-miterlimit="10" width="33" height="4"/>
		</g>
		<g>
			<rect x="231" y="123" fill="none" stroke="#FFFFFF" stroke-width="2" stroke-miterlimit="10" width="26" height="2"/>
			<rect x="231" y="141" fill="none" stroke="#FFFFFF" stroke-width="2" stroke-miterlimit="10" width="26" height="4"/>
			<rect x="224" y="131" fill="none" stroke="#FFFFFF" stroke-width="2" stroke-miterlimit="10" width="39" height="4"/>
		</g>
	</g>
	<rect fill="#153D71" width="690" height="22"/>
	<rect x="19" y="35" fill="#153D71" width="31" height="13"/>
	<rect x="62" y="35" fill="#153D71" width="31" height="13"/>
	<rect x="104" y="35" fill="#153D71" width="31" height="13"/>
	<rect x="147" y="35" fill="#153D71" width="31" height="13"/>
	<rect x="673" y="6" fill="none" stroke="#FFFFFF" stroke-width="2" stroke-miterlimit="10" width="12" height="12"/>
	<rect x="656" y="6" fill="none" stroke="#FFFFFF" stroke-width="2" stroke-miterlimit="10" width="12" height="12"/>
	<rect x="639" y="6" fill="none" stroke="#FFFFFF" stroke-width="2" stroke-miterlimit="10" width="12" height="12"/>
</g>
<g>
	<g>
		<rect x="233" y="171" fill="#FFFFFF" width="686" height="639"/>
		<path fill="#153D71" d="M917,173v635H235V173H917 M921,169H231v643h690V169L921,169z"/>
	</g>
	<g>
		<rect x="409" y="230" fill="#153D71" width="494" height="564"/>
	</g>
	<rect x="250" y="230" fill="#153D71" width="152" height="564"/>
	<rect x="279" y="247" fill="#FFFFFF" width="84" height="9"/>
	<rect x="296" y="321" fill="#FFFFFF" width="84" height="9"/>
	<rect x="279" y="395" fill="#FFFFFF" width="84" height="9"/>
	<rect x="313" y="432" fill="#FFFFFF" width="84" height="9"/>
	<rect x="279" y="469" fill="#FFFFFF" width="84" height="9"/>
	<rect x="296" y="284" fill="#FFFFFF" width="84" height="9"/>
	<rect x="279" y="358" fill="#FFFFFF" width="84" height="9"/>
	<rect x="279" y="265" fill="#FFFFFF" width="84" height="9"/>
	<rect x="296" y="339" fill="#FFFFFF" width="84" height="9"/>
	<rect x="296" y="413" fill="#FFFFFF" width="84" height="9"/>
	<rect x="296" y="450" fill="#FFFFFF" width="84" height="9"/>
	<rect x="279" y="487" fill="#FFFFFF" width="84" height="9"/>
	<rect x="296" y="302" fill="#FFFFFF" width="84" height="9"/>
	<rect x="279" y="376" fill="#FFFFFF" width="84" height="9"/>
	<rect x="433" y="247" fill="#FFFFFF" width="166" height="9"/>
	<rect x="444" y="262" fill="#FFFFFF" width="166" height="9"/>
	<rect x="453" y="278" fill="#FFFFFF" width="89" height="9"/>
	<rect x="438" y="293" fill="#FFFFFF" width="51" height="9"/>
	<rect x="444" y="308" fill="#FFFFFF" width="188" height="9"/>
	<rect x="441" y="354" fill="#FFFFFF" width="33" height="9"/>
	<rect x="445" y="369" fill="#FFFFFF" width="179" height="9"/>
	<rect x="453" y="384" fill="#FFFFFF" width="56" height="9"/>
	<rect x="458" y="400" fill="#FFFFFF" width="134" height="9"/>
	<rect x="474" y="415" fill="#FFFFFF" width="415" height="9"/>
	<rect x="475" y="430" fill="#FFFFFF" width="150" height="9"/>
	<rect x="464" y="445" fill="#FFFFFF" width="35" height="9"/>
	<rect x="467" y="461" fill="#FFFFFF" width="110" height="9"/>
	<rect x="474" y="476" fill="#FFFFFF" width="309" height="9"/>
	<rect x="482" y="491" fill="#FFFFFF" width="248" height="9"/>
	<rect x="471" y="522" fill="#FFFFFF" width="210" height="9"/>
	<rect x="469" y="537" fill="#FFFFFF" width="26" height="9"/>
	<rect x="462" y="552" fill="#FFFFFF" width="120" height="9"/>
	<rect x="475" y="568" fill="#FFFFFF" width="255" height="9"/>
	<rect x="482" y="583" fill="#FFFFFF" width="255" height="9"/>
	<rect x="475" y="598" fill="#FFFFFF" width="17" height="9"/>
	<rect x="473" y="613" fill="#FFFFFF" width="160" height="9"/>
	<rect x="464" y="629" fill="#FFFFFF" width="26" height="9"/>
	<rect x="464" y="644" fill="#FFFFFF" width="129" height="9"/>
	<rect x="477" y="659" fill="#FFFFFF" width="310" height="9"/>
	<rect x="485" y="674" fill="#FFFFFF" width="271" height="9"/>
	<rect x="470" y="690" fill="#FFFFFF" width="24" height="9"/>
	<rect x="466" y="720" fill="#FFFFFF" width="24" height="9"/>
	<rect x="457" y="735" fill="#FFFFFF" width="24" height="9"/>
	<rect x="446" y="751" fill="#FFFFFF" width="24" height="9"/>
	<rect x="434" y="766" fill="#FFFFFF" width="51" height="9"/>
	<rect x="478" y="705" fill="#FFFFFF" width="232" height="9"/>
	<rect x="474" y="507" fill="#FFFFFF" width="16" height="9"/>
	<rect x="453" y="323" fill="#FFFFFF" width="21" height="9"/>
	<rect x="453" y="339" fill="#FFFFFF" width="21" height="9"/>
	<rect x="231" y="169" fill="#153D71" width="690" height="22"/>
	<rect x="250" y="204" fill="#153D71" width="31" height="13"/>
	<rect x="293" y="204" fill="#153D71" width="31" height="13"/>
	<rect x="335" y="204" fill="#153D71" width="31" height="13"/>
	<rect x="378" y="204" fill="#153D71" width="31" height="13"/>
	<rect x="904" y="175" fill="none" stroke="#FFFFFF" stroke-width="2" stroke-miterlimit="10" width="12" height="12"/>
	<rect x="887" y="175" fill="none" stroke="#FFFFFF" stroke-width="2" stroke-miterlimit="10" width="12" height="12"/>
	<rect x="870" y="175" fill="none" stroke="#FFFFFF" stroke-width="2" stroke-miterlimit="10" width="12" height="12"/>
</g>
</svg>
