<?xml version="1.0" encoding="utf-8"?>
<!-- Generator: Adobe Illustrator 16.0.0, SVG Export Plug-In . SVG Version: 6.00 Build 0)  -->
<!DOCTYPE svg PUBLIC "-//W3C//DTD SVG 1.1//EN" "http://www.w3.org/Graphics/SVG/1.1/DTD/svg11.dtd">
<svg version="1.1" id="play" xmlns="http://www.w3.org/2000/svg" xmlns:xlink="http://www.w3.org/1999/xlink" x="0px" y="0px"
	 width="667.1px" height="578.9px" viewBox="0 0 667.1 578.9" enable-background="new 0 0 667.1 578.9" xml:space="preserve">
<g id="Cup">
	<path fill="#194175" d="M494.9,92.1c2.9-0.5,18,5.3,31,5.2s22.4-9.1,22.4-9.1s3.7-18,2.9-19.8s-7.4-6.9-14.1-8.8
		c-6.4-1.8-23.6-3.5-25-3.7c0.1-1.5,0.2-3.1,0.2-4.7C512.3,23,489.2,0,460.7,0C438.2,0,419,14.3,412,34.3l0,0l-13.7,38.5
		c0,0-9.7,32.1,20.2,48.5s53.9,0.8,53.9,0.8L494.9,92.1"/>
	<g>
		<path fill="#FFFFFF" d="M460.1,4.8c25.8,0,46.8,20.9,46.8,46.5s-21,46.5-46.8,46.5S413.3,77,413.3,51.4S434.3,4.8,460.1,4.8
			 M460.1,2.8c-26.9,0-48.8,21.7-48.8,48.5s21.8,48.5,48.8,48.5s48.8-21.7,48.8-48.5S487,2.8,460.1,2.8L460.1,2.8z"/>
	</g>
	<path fill="none" stroke="#FFFFFF" stroke-miterlimit="10" d="M493.4,70.9"/>
	<path fill="none" stroke="#FFFFFF" stroke-width="2" stroke-linecap="round" stroke-miterlimit="10" d="M413.3,41.4
		c7.7-14.1,21.5-22.7,38.7-22.7c25.1,0,45.5,20.4,45.5,45.5c0,9.7-3.1,17.6-8.3,25"/>
	<path fill="none" stroke="#FFFFFF" stroke-width="2" stroke-linecap="round" stroke-miterlimit="10" d="M505.3,75.1
		c0,0,19.3-0.3,23.6,0.6s13.7,2.7,15.4,8.2"/>
	<path fill="none" stroke="#FFFFFF" stroke-width="2" stroke-linecap="round" stroke-miterlimit="10" d="M533.4,80
		c0,0-6.9,1.4-11.1,1.4s-14-1.5-14-1.5"/>
</g>
<g id="Tablet">
	<g>
		<path fill="#194175" d="M387.3,143.9c0-5.5-4.5-10-10-10h-367c-5.5,0-10,4.5-10,10v212c0,5.5,4.5,10,10,10h367c5.5,0,10-4.5,10-10
			V143.9z"/>
		<path fill="none" stroke="#194175" stroke-miterlimit="10" d="M386.8,143.4c0-5.5-4.5-10-10-10H9.8c-5.5,0-10,4.5-10,10v212
			c0,5.5,4.5,10,10,10h367c5.5,0,10-4.5,10-10V143.4z"/>
	</g>
	<g>
		<path fill="#194175" d="M312.3,169.9c0-5.5-4.5-10-10-10h-252c-5.5,0-10,4.5-10,10v159c0,5.5,4.5,10,10,10h252c5.5,0,10-4.5,10-10
			V169.9z"/>
		<path fill="none" stroke="#FFFFFF" stroke-miterlimit="10" d="M311.8,170.4c0-5.5-4.5-10-10-10h-252c-5.5,0-10,4.5-10,10v159
			c0,5.5,4.5,10,10,10h252c5.5,0,10-4.5,10-10V170.4z"/>
	</g>
	<polyline fill="none" stroke="#FFFFFF" stroke-miterlimit="10" points="64.9,196.6 64.9,184.6 76.9,184.6 	"/>
	<polyline fill="none" stroke="#FFFFFF" stroke-miterlimit="10" points="76.9,318.2 64.9,318.2 64.9,306.2 	"/>
</g>
<g id="Pen">
	<path fill="#194175" stroke="#FFFFFF" stroke-miterlimit="10" d="M57.5,147.9c2.6-1.8,6.6,4.4,6.6,4.4c0.6-0.4,1.7-0.3,1.7-0.3
		l94.5,123.2l6.2,24.4L145.2,286L58.7,157c0,0,0.2-1,0.8-1.5C59.6,155.6,55,149.8,57.5,147.9z"/>
	<path fill="none" stroke="#FFFFFF" stroke-linecap="round" stroke-miterlimit="10" d="M145.1,285.8c1.8-2.3,4-4.5,6.7-6.4
		c2.7-1.9,5.5-3.4,8.3-4.3"/>
	<path fill="none" stroke="#FFFFFF" stroke-linecap="round" stroke-miterlimit="10" d="M102.9,222.9c1.2-1.9,2.8-3.6,4.8-5.1
		c2-1.4,4.2-2.4,6.4-2.9"/>
	<path fill="none" stroke="#FFFFFF" stroke-linecap="round" stroke-miterlimit="10" d="M60,158.9c0.8-1.1,1.9-2.2,3.2-3.1
		c1.3-0.9,2.6-1.6,3.9-2"/>
</g>
<g>
	<g>
		
			<rect x="206.9" y="163.7" transform="matrix(-0.5566 0.8307 -0.8307 -0.5566 821.2728 145.0659)" fill="#FFFFFF" width="330.1" height="256"/>
		<path fill="#194175" d="M357.6,84l211.9,142L386.3,499.4l-211.9-142L357.6,84 M357.3,82.6L173,357.7l213.5,143.1l184.3-275.1
			L357.3,82.6L357.3,82.6z"/>
	</g>
	<g>
		
			<rect x="269" y="227.2" transform="matrix(-0.8004 0.5994 -0.5994 -0.8004 995.9252 379.8184)" fill="#FFFFFF" width="331.4" height="257"/>
		<path fill="#194175" d="M490.2,154.2l153.5,204.9L379.2,557.2L225.8,352.2L490.2,154.2 M490.4,152.8L224.4,352L379,558.6
			l266.1-199.3L490.4,152.8L490.4,152.8z"/>
	</g>
	<g>
		
			<rect x="303.9" y="277" transform="matrix(-0.9531 0.3028 -0.3028 -0.9531 1039.9618 649.8999)" fill="#FFFFFF" width="331.4" height="257"/>
		<path fill="#194175" d="M588.3,233.5l77.5,244l-314.9,100l-77.5-244L588.3,233.5 M588.9,232.3L272.1,332.9l78.1,245.9l316.8-100.7
			L588.9,232.3L588.9,232.3z"/>
	</g>
	<g>
		
			<rect x="383.8" y="308.9" transform="matrix(0.3028 0.953 -0.953 0.3028 608.6731 -157.6337)" fill="#FFFFFF" stroke="#194175" stroke-miterlimit="10" width="56.6" height="56.6"/>
		
			<rect x="442.3" y="320.2" transform="matrix(0.3028 0.9531 -0.9531 0.3028 746.9003 -262.9799)" fill="#FFFFFF" stroke="#194175" stroke-miterlimit="10" width="221.7" height="117.6"/>
		
			<rect x="491.4" y="352" transform="matrix(0.3028 0.9531 -0.9531 0.3028 698.0231 -223.0786)" fill="#194175" width="20.2" height="27.2"/>
		
			<rect x="534.9" y="331.4" transform="matrix(0.3028 0.9531 -0.9531 0.3028 743.6833 -253.3688)" fill="#194175" width="20.2" height="100.4"/>
		
			<rect x="522.6" y="387.2" transform="matrix(0.3028 0.953 -0.953 0.3028 767.2849 -218.0397)" fill="#194175" width="20.2" height="56.4"/>
		
			<rect x="536.9" y="406.5" transform="matrix(0.3028 0.9531 -0.9531 0.3028 801.4426 -214.0436)" fill="#194175" width="20.2" height="68.4"/>
		
			<rect x="502.4" y="297.9" transform="matrix(0.3028 0.9531 -0.9531 0.3028 673.874 -256.8788)" fill="#194175" width="20.2" height="68.4"/>
		
			<rect x="408.8" y="387.6" transform="matrix(0.3028 0.9531 -0.9531 0.3028 701.0981 -126.5992)" fill="#FFFFFF" stroke="#194175" stroke-miterlimit="10" width="56.6" height="56.6"/>
		
			<rect x="433.8" y="466.3" transform="matrix(0.3028 0.9531 -0.9531 0.3028 793.5195 -95.5665)" fill="#FFFFFF" stroke="#194175" stroke-miterlimit="10" width="56.6" height="56.6"/>
		
			<rect x="303.7" y="334.4" transform="matrix(0.3028 0.9531 -0.9531 0.3028 577.0715 -63.5082)" fill="#FFFFFF" stroke="#194175" stroke-miterlimit="10" width="56.6" height="56.6"/>
		
			<rect x="328.7" y="413.1" transform="matrix(0.3028 0.9531 -0.9531 0.3028 669.5008 -32.4703)" fill="#FFFFFF" stroke="#194175" stroke-miterlimit="10" width="56.6" height="56.6"/>
		
			<rect x="353.8" y="491.7" transform="matrix(0.3028 0.9531 -0.9531 0.3028 761.9708 -1.5759)" fill="#FFFFFF" stroke="#194175" stroke-miterlimit="10" width="56.6" height="56.6"/>
		<polyline fill="#194175" points="388.5,324.4 412.3,331.2 397.3,346.2 421.5,345.6 403.6,361 		"/>
		<polyline fill="#FFFFFF" stroke="#194175" stroke-miterlimit="10" points="385.3,320.7 407.5,322.8 394.5,339.8 419.3,338.5 
			405.2,348.7 418.2,356.4 402.2,363.9 		"/>
		
			<rect x="358" y="434.1" transform="matrix(0.3028 0.9531 -0.9531 0.3028 677.3638 -55.8843)" fill="#194175" width="37.8" height="1.7"/>
		
			<rect x="350.8" y="436.4" transform="matrix(0.3028 0.9531 -0.9531 0.3028 674.5406 -47.4918)" fill="#194175" width="37.8" height="1.8"/>
		
			<rect x="343.7" y="438.7" transform="matrix(0.3028 0.9531 -0.9531 0.3028 671.725 -39.0932)" fill="#194175" width="37.8" height="1.8"/>
		
			<rect x="336.5" y="441" transform="matrix(0.3028 0.9531 -0.9531 0.3028 668.9023 -30.7004)" fill="#194175" width="37.8" height="1.8"/>
		
			<rect x="329.4" y="443.2" transform="matrix(0.3028 0.9531 -0.9531 0.3028 666.087 -22.3014)" fill="#194175" width="37.8" height="1.7"/>
		
			<rect x="322.2" y="445.5" transform="matrix(0.3028 0.9531 -0.9531 0.3028 663.2641 -13.9089)" fill="#194175" width="37.8" height="1.8"/>
		<polygon fill="none" stroke="#194175" stroke-miterlimit="10" points="429.5,437.1 450.1,411.8 418.7,403 		"/>
		<circle fill="#194175" cx="450.1" cy="411.8" r="3.2"/>
		<circle fill="#194175" cx="429.3" cy="436.5" r="3.2"/>
		<circle fill="#194175" cx="418.7" cy="403" r="3.2"/>
		
			<rect x="332.4" y="338.7" transform="matrix(-0.953 0.3029 -0.3029 -0.953 759.813 571.4322)" fill="#194175" width="6.3" height="11.9"/>
		
			<rect x="328.8" y="340.6" transform="matrix(-0.9531 0.3027 -0.3027 -0.9531 758.1035 607.8325)" fill="#194175" width="6.3" height="44.1"/>
		
			<rect x="317.3" y="343.8" transform="matrix(-0.953 0.3029 -0.3029 -0.953 733.8029 598.5459)" fill="#194175" width="6.3" height="24.8"/>
		
			<rect x="309.6" y="346.4" transform="matrix(-0.9531 0.3028 -0.3028 -0.9531 720.2665 611.119)" fill="#194175" width="6.3" height="30"/>
		
			<rect x="343.7" y="335.5" transform="matrix(-0.9531 0.3028 -0.3028 -0.9531 783.5958 579.6319)" fill="#194175" width="6.3" height="30"/>
		
			<rect x="363.6" y="505.8" transform="matrix(0.3028 0.9531 -0.9531 0.3028 753.521 3.3959)" fill="none" stroke="#194175" stroke-miterlimit="10" width="21.7" height="21.7"/>
		
			<rect x="363.6" y="505.9" transform="matrix(0.3028 0.9531 -0.9531 0.3028 753.5389 3.4047)" fill="none" stroke="#194175" stroke-miterlimit="10" width="21.8" height="21.7"/>
		
			<rect x="377.2" y="512.9" transform="matrix(0.3028 0.9531 -0.9531 0.3028 769.7823 -4.6906)" fill="none" stroke="#194175" stroke-miterlimit="10" width="21.7" height="21.8"/>
		<line fill="none" stroke="#194175" stroke-miterlimit="10" x1="381" y1="537.5" x2="367.4" y2="530.4"/>
		<line fill="#FFFFFF" stroke="#194175" stroke-miterlimit="10" x1="360.8" y1="509.7" x2="374.4" y2="516.7"/>
		<line fill="#FFFFFF" stroke="#194175" stroke-miterlimit="10" x1="381.5" y1="503.1" x2="395.2" y2="510.1"/>
		<line fill="#FFFFFF" stroke="#194175" stroke-miterlimit="10" x1="388.1" y1="523.8" x2="401.8" y2="530.9"/>
		<g>
			<circle fill="#FFFFFF" stroke="#194175" stroke-miterlimit="10" cx="462.1" cy="494.6" r="17.2"/>
			<path fill="#194175" d="M445.6,499.8c2.9,9.1,12.6,14.1,21.7,11.2l-5.2-16.4L445.6,499.8z"/>
		</g>
	</g>
</g>
<g id="Pencil_1_">
	<g>
		<path fill="#194175" d="M326.2,337.8l-0.1-0.6c-0.4-2.4-1.9-11.1-1.2-22.7c0.1-1.6,0.2-3.3,0.4-5c0.4-3.7,1-7.3,1.8-10.8
			c4.7-21.1,10-37.4,10-37.6l14.8-63.7l4.3-19.3c0.1-0.5,0.4-0.9,1.5-1.3l0.5-2.4c0.1-0.6,0.8-1.4,2.9-1.4c0.8,0,1.6,0.1,2.5,0.3
			c0.8,0.2,4.9,1.2,4.4,3.3l-0.5,2.4c0.9,0.8,1,1.3,0.9,1.7l-3.9,17.5l2.3,7.9l-9,35.1l-2.4,0.3l-4.8,22.7c0,0.1-2.1,17.1-6.8,38.2
			c-0.8,3.5-1.7,6.9-2.9,10.3c-0.6,1.8-1.3,3.6-1.9,5.3c-4.1,10.2-8.7,17.2-10.5,19.8l-0.4,0.5L326.2,337.8z"/>
		<path fill="#FFFFFF" d="M361.1,173.5c0.7,0,1.6,0.1,2.4,0.3c1.6,0.4,4.3,1.3,4,2.7l-0.6,2.7c1,0.9,1,1.3,0.9,1.4l0,0.1l-3.9,17.5
			l2.3,7.8l-8.9,34.7l-2.1,0.3l0.1-2l-5.3,25.1c0,0.1-2.1,17.1-6.8,38.2c-0.8,3.4-1.7,6.9-2.9,10.2c-0.6,1.8-1.3,3.6-1.9,5.2
			c-4.1,10.2-8.7,17.2-10.4,19.7l-0.2,0.3l-1.3-0.3l-0.1-0.3c-0.4-2.4-1.9-11.1-1.2-22.6c0.1-1.6,0.2-3.3,0.4-4.9
			c0.4-3.7,1-7.3,1.8-10.8c4.7-21.1,9.9-37.4,10-37.5l14.8-63.8l4.3-19.3c0.1-0.2,0.1-0.6,1.5-1l0.6-2.7
			C358.8,174,359.3,173.5,361.1,173.5 M356.4,233.9l0.8-1l5.6-25.9l-0.5-1.2L356.4,233.9 M361.1,172.5c-2.4,0-3.2,1-3.3,1.8
			l-0.5,2.2c-1,0.4-1.4,0.8-1.6,1.5l-4.3,19.3L336.6,261c-0.3,0.9-5.5,17-10,37.6c-0.8,3.5-1.4,7.2-1.8,10.9c-0.2,1.7-0.3,3.4-0.4,5
			c-0.7,11.6,0.7,20.4,1.2,22.8l0.1,0.3l0.1,0.6l0.6,0.1l1.3,0.3l0.7,0.1l0.4-0.5l0.2-0.3c1.8-2.5,6.5-9.6,10.6-19.9
			c0.7-1.7,1.3-3.4,1.9-5.3c1.1-3.4,2.1-6.9,2.9-10.3c4.5-20.5,6.6-37.2,6.8-38.2l4.7-22.3l1.7-0.2l0.7-0.1l0.2-0.7l8.9-34.7
			l0.1-0.3l-0.1-0.3l-2.2-7.6l3.8-17.2l0-0.1c0.1-0.7-0.1-1.3-0.8-2l0.5-2.2c0.6-2.5-3.5-3.6-4.8-3.9
			C362.8,172.6,361.9,172.5,361.1,172.5L361.1,172.5z"/>
	</g>
	<path fill="none" stroke="#FFFFFF" stroke-linecap="round" stroke-miterlimit="10" d="M357.1,178.3c-0.1,0.3,0.3,0.7,1,1.1
		c0.9,0.5,2.2,1,3.8,1.3c1.6,0.3,3,0.5,4,0.4c0.8,0,1.3-0.2,1.4-0.5"/>
	<path fill="none" stroke="#FFFFFF" stroke-linecap="round" stroke-miterlimit="10" d="M367,176.4c-0.1,0.7-2,0.8-4.2,0.4
		c-2.2-0.5-3.8-1.4-3.6-2.1"/>
	<path fill="none" stroke="#FFFFFF" stroke-linecap="round" stroke-miterlimit="10" d="M325.9,314.5c1.7,0.9,3.9,1.7,6.5,2.3
		c2,0.5,4,0.7,5.7,0.7"/>
	<path fill="none" stroke="#FFFFFF" stroke-linecap="round" stroke-miterlimit="10" d="M337.9,262c1.6,0.9,3.7,1.7,6.2,2.2
		c1.9,0.4,3.8,0.6,5.4,0.7"/>
	<path fill="none" stroke="#FFFFFF" stroke-linecap="round" stroke-miterlimit="10" d="M353.3,195.5c1.4,0.8,3.3,1.6,5.4,2.1
		c1.7,0.4,3.3,0.5,4.8,0.5"/>
</g>
<g id="Pencil">
	<g>
		<path fill="#194175" d="M406.4,303c0.1-0.3,1.5-7.8,5.9-14.7c3.2-5.2,8-12.2,9.9-14.9l1.4-2l74.7-102.2l1.1,0.2l0.9-1.3l0-1.3
			l4.5-6.2l2.1-0.3l6.4,4.7l0.4,2.1l-4.5,6.2l-1.2,0.4l-0.9,1.3l0.5,1l-5.3,7.2l3.2,2.4l-25.6,33.6l-3.4,0.9l0-1.6l-43.7,59.7
			c0,0-0.6,0.8-1.5,2c-2.6,3.3-7.4,9.4-11.2,13.9c-5.3,6.2-12,9.9-12.3,10.1l-1.9,1L406.4,303z"/>
		<path fill="#FFFFFF" d="M506.8,160.8l6.1,4.5l0.3,1.7l-4.3,5.9l-1.2,0.4l-1.2,1.6l0.5,1l-5.4,7.4l3.2,2.4l-25.2,33l-2.6,0.7
			L477,217l-44.5,60.9c0,0-0.6,0.8-1.5,2c-2.6,3.3-7.4,9.4-11.2,13.9c-5.3,6.2-12.1,9.9-12.1,9.9l-0.9,0.5l0.2-1
			c0-0.1,1.5-7.6,5.8-14.5c3.2-5.2,8-12.2,9.8-14.9l1.4-2l1-1.4l73.6-100.5l1.1,0.2l1.2-1.6l0-1.3l4.3-5.9L506.8,160.8 M479.6,213.5
			l2.4-1.7l9-12.8l1.2-2.8L479.6,213.5 M507.1,159.8l-0.4,0.1l-1.7,0.2l-0.4,0.1l-0.3,0.3l-4.3,5.9l-0.2,0.2l0,0.3l0,1l-0.7,0.9
			l-0.5-0.1l-0.6-0.1l-0.4,0.5l-73.6,100.5l-1,1.4l-1.4,2c-1.9,2.8-6.6,9.7-9.9,14.9c-4.4,7-5.9,14.6-5.9,14.9l-0.2,1l-0.4,2.1
			l1.8-1l0.9-0.5c0.3-0.2,7.1-3.9,12.4-10.2c3.8-4.4,8.6-10.6,11.2-13.9c0.9-1.2,1.5-2,1.6-2l42.8-58.5l0,0.8l1.2-0.3l2.6-0.7
			l0.3-0.1l0.2-0.3l25.2-33l0.6-0.8l-0.8-0.6l-2.4-1.8l4.8-6.6l0.4-0.5l-0.3-0.6l-0.2-0.4l0.7-0.9l0.9-0.3l0.3-0.1l0.2-0.2l4.3-5.9
			l0.3-0.4l-0.1-0.4l-0.3-1.7l-0.1-0.4l-0.3-0.2l-6.1-4.5L507.1,159.8L507.1,159.8z"/>
	</g>
	<path fill="none" stroke="#FFFFFF" stroke-linecap="round" stroke-miterlimit="10" d="M433.1,276.2c-1.1-0.9-2.3-1.9-3.6-2.8
		c-1.4-1.1-2.8-2-4.2-2.8"/>
	<path fill="none" stroke="#FFFFFF" stroke-linecap="round" stroke-miterlimit="10" d="M507.4,173c-0.8-0.8-1.8-1.5-2.8-2.3
		c-1.1-0.8-2.3-1.6-3.3-2.2"/>
	<path fill="none" stroke="#FFFFFF" stroke-linecap="round" stroke-miterlimit="10" d="M512.8,166.8c-1-0.9-2.2-1.8-3.4-2.7
		c-1.4-1-2.7-1.9-3.9-2.6"/>
	<path fill="none" stroke="#FFFFFF" stroke-linecap="round" stroke-miterlimit="10" d="M506.2,174.7c-0.8-0.8-1.8-1.5-2.8-2.3
		c-1.1-0.8-2.3-1.6-3.3-2.2"/>
</g>
</svg>
