<?xml version="1.0" encoding="utf-8"?>
<!-- Generator: Adobe Illustrator 16.0.0, SVG Export Plug-In . SVG Version: 6.00 Build 0)  -->
<!DOCTYPE svg PUBLIC "-//W3C//DTD SVG 1.1//EN" "http://www.w3.org/Graphics/SVG/1.1/DTD/svg11.dtd">
<svg version="1.1" id="Icon" xmlns="http://www.w3.org/2000/svg" xmlns:xlink="http://www.w3.org/1999/xlink" x="0px" y="0px"
	 width="121.4px" height="156px" viewBox="0 0 121.4 156" enable-background="new 0 0 121.4 156" xml:space="preserve">
<rect fill="#FFFFFF" width="121.4" height="156"/>
<linearGradient id="SVGID_1_" gradientUnits="userSpaceOnUse" x1="318.7227" y1="-269.0371" x2="462.1976" y2="-412.5121" gradientTransform="matrix(1 0 0 -1 -290 -223)">
	<stop  offset="0" style="stop-color:#003895"/>
	<stop  offset="0.5" style="stop-color:#3A6BB6"/>
	<stop  offset="1" style="stop-color:#607CAB"/>
</linearGradient>
<path fill="url(#SVGID_1_)" d="M117.5,3.9v148.2H3.9V3.9H117.5 M121.4,0H0v156h121.4V0L121.4,0z"/>
<linearGradient id="SVGID_2_" gradientUnits="userSpaceOnUse" x1="292.0771" y1="-242.3916" x2="460.267" y2="-410.5814" gradientTransform="matrix(1 0 0 -1 -290 -223)">
	<stop  offset="0" style="stop-color:#003895"/>
	<stop  offset="0.5" style="stop-color:#3A6BB6"/>
	<stop  offset="1" style="stop-color:#607CAB"/>
</linearGradient>
<path fill="url(#SVGID_2_)" d="M10.9,10.5v134.9h99.5V10.5H10.9z M60.3,141.6H14.8v-63h45.4V141.6z M106.5,77.4H61.1v-63h45.4V77.4z
	"/>
<path fill="#FFFFFF" d="M76.1,124.2c2.2,1.3,5.3,2.3,8.6,2.3c4.9,0,7.8-2.5,7.8-6c0-3.3-2-5.2-7-7c-6.1-2-9.9-5-9.9-10
	c0-5.5,4.8-9.6,12.1-9.6c3.8,0,6.6,0.8,8.3,1.7l-1.3,3.7c-1.2-0.6-3.7-1.7-7.1-1.7c-5.1,0-7,2.9-7,5.3c0,3.3,2.3,4.9,7.4,6.8
	c6.3,2.3,9.5,5.2,9.5,10.4c0,5.5-4.3,10.2-13.1,10.2c-3.6,0-7.5-1-9.5-2.3L76.1,124.2z"/>
<path fill="#FFFFFF" d="M24.8,27.3h4.8V45h0.2c1-1.4,2-2.7,2.9-3.9l11.3-13.8h5.9L36.4,42.9l14.4,21.2h-5.6L33,46l-3.5,4v14h-4.8
	V27.3z"/>
</svg>
