<?xml version="1.0" encoding="utf-8"?>
<!-- Generator: Adobe Illustrator 16.0.0, SVG Export Plug-In . SVG Version: 6.00 Build 0)  -->
<!DOCTYPE svg PUBLIC "-//W3C//DTD SVG 1.1//EN" "http://www.w3.org/Graphics/SVG/1.1/DTD/svg11.dtd">
<svg version="1.1" id="Icon" xmlns="http://www.w3.org/2000/svg" xmlns:xlink="http://www.w3.org/1999/xlink" x="0px" y="0px" viewBox="0 0 117 180.2" enable-background="new 0 0 117 180.2" xml:space="preserve">
<rect y="-54.1" display="none" width="117" height="235"/>
<path d="M102,0H15C6.8,0,0,6.8,0,15v150.2c0,8.3,6.8,15,15,15h87c8.3,0,15-6.8,15-15V15C117,6.8,110.3,0,102,0z
	 M87,4.9c1.5,0,2.6,1.2,2.6,2.6s-1.2,2.6-2.6,2.6S84.4,9,84.4,7.6S85.5,4.9,87,4.9z M43.4,7.4c0-1.1,0.9-2,2-2h26.2c1.1,0,2,0.9,2,2
	v0.3c0,1.1-0.9,2-2,2H45.4c-1.1,0-2-0.9-2-2V7.4z M74.1,165.9c0,1.4-1.1,2.5-2.5,2.5H45.4c-1.4,0-2.5-1.1-2.5-2.5v-3.3
	c0-1.4,1.1-2.5,2.5-2.5h26.2c1.4,0,2.5,1.1,2.5,2.5V165.9z M110.3,153.3H6.8V28.2h103.5V153.3z"/>
<path d="M45.4,163.1c0-0.5,0.5-1,1-1h24.2c0.5,0,1,0.5,1,1v2.2c0,0.5-0.5,1-1,1H46.4c-0.5,0-1-0.5-1-1V163.1z"/>
</svg>
