<?xml version="1.0" encoding="utf-8"?>
<!-- Generator: Adobe Illustrator 16.0.0, SVG Export Plug-In . SVG Version: 6.00 Build 0)  -->
<!DOCTYPE svg PUBLIC "-//W3C//DTD SVG 1.1//EN" "http://www.w3.org/Graphics/SVG/1.1/DTD/svg11.dtd">
<svg version="1.1" id="Layer_1" xmlns="http://www.w3.org/2000/svg" xmlns:xlink="http://www.w3.org/1999/xlink" x="0px" y="0px"
	 width="33.9px" height="31.8px" viewBox="0 0 33.9 31.8" enable-background="new 0 0 33.9 31.8" xml:space="preserve">
<g>
	<path id="Outer" d="M0,10.8c0,0,0.8-3.6,0.8-3.8c0-0.2,0.3-0.7,0.6-0.8c0,0,21.5-4.8,21.6-4.8c0.1,0,0.6-0.1,0.8,0
		c0.2,0,7.7,2.6,7.9,2.7c0.3,0.2,0.4,0.2,0.6,0.6c0.2,0.4,1.5,4.3,1.5,4.4c0.1,0.2,0.1,0.2,0.1,0.5c0,0.2-1.2,11.9-1.2,12.1
		c0,0.2,0,0.6-0.5,0.8c-0.5,0.2-23.5,9.2-23.7,9.3c-0.1,0.1-0.4,0.2-0.8,0c-0.4-0.2-6.6-8.2-6.6-8.2L0,10.8z"/>
	<polygon id="Middle" fill="#292929" points="1.9,7.5 1.1,11.3 2.2,23.5 8.1,30.9 31.7,21.8 32.9,9.9 31.3,5.4 23.5,2.7 	"/>
	<polygon id="Inner" fill="#353535" points="3.2,8.7 2.5,12.1 3.5,23 8.6,29.1 30.4,20.8 31.5,9.9 30.2,6.4 23.4,4.1 	"/>
	<path id="G" fill="#FFFFFF" d="M22.6,18.2l1-1l3.6-0.7l-0.5,0.6l0.1,3.1c0,0-4.2,2.6-6.6,2.5c-2.4,0-3.9-1.3-4.9-4.3
		c-1-3-0.2-8.9,5.8-9.7c1.2-0.1,4.8,0.3,5.3,1.1l-1.4,1.5l-0.6,0.2l0.4-0.7c0,0-1.7-1.3-3.2-1.4c-1.4-0.1-5.4,0.5-4.8,7
		c0.2,2.2,2.4,5.9,5.9,5.1c0.2,0,2.2-0.8,2.3-1.1c0-0.4-0.1-2.8-0.1-2.8L22.6,18.2z"/>
	<g id="Gradient_Highlight">
		<defs>
			<path id="SVGID_1_" d="M1.9,7.2l3.6,2.6l-0.2,1c0,0,2.2,3.3,2.3,7c0.1,3.8,0.6,11,0.6,11L31.7,20v1.5L8.2,30.6l-5.9-7.4L1.1,11
				L1.9,7.2z"/>
		</defs>
		<clipPath id="SVGID_2_">
			<use xlink:href="#SVGID_1_"  overflow="visible"/>
		</clipPath>
		<radialGradient id="Middle_2_" cx="2.9707" cy="23.5078" r="17.8383" gradientUnits="userSpaceOnUse">
			<stop  offset="0.364" style="stop-color:#666666"/>
			<stop  offset="1" style="stop-color:#666666;stop-opacity:0"/>
		</radialGradient>
		<polygon id="Middle_1_" clip-path="url(#SVGID_2_)" fill="url(#Middle_2_)" fill-opacity="0.8" points="1.9,7.5 1.1,11.3 
			2.2,23.5 8.1,30.9 31.7,21.8 32.9,9.9 31.3,5.4 23.5,2.7 		"/>
	</g>
	<polygon id="Top_Highlight" fill="#FFFFFF" fill-opacity="0.2" points="1.9,7.2 23.5,2.4 31.3,5 5.8,10.6 	"/>
	<polygon id="Lid_Shadow" opacity="0.7" fill="#010101" points="8.1,18.4 2.3,11.2 2.9,11.2 2.9,11.7 8.8,18.8 32.9,11.8 32.9,11.4 
			"/>
	<polygon id="Lid_Highlight" opacity="0.7" fill="#FFFFFF" points="1.6,11.5 1.6,11.9 7.7,18.7 32.3,11.6 32.3,11.3 7.8,18.5 	"/>
	<path id="Top_Edge_Highlight" opacity="0.7" fill="#FFFFFF" d="M26,6.2C26,6.2,25.9,6.2,26,6.2L6.3,10.5H6.1c0,0,0-0.1-0.1-0.2
		c-0.1-0.1-0.2-0.1-0.2-0.1s0-0.3,0-0.5c0-0.3-1.9-1.7-2.4-2C2.9,7.5,2.3,7.5,2.3,7.5l-0.9,3.4c0,0,0,0,0,0l0.8-3.2l3.2,2l-0.2,1
		c0,0,0.2,0.2,0.2,0.3l0.1,0L26,6.3C26,6.3,26,6.3,26,6.2z"/>
	<linearGradient id="Highlight_Medium_1_" gradientUnits="userSpaceOnUse" x1="1.9771" y1="8.3452" x2="9.1235" y2="26.1039">
		<stop  offset="0" style="stop-color:#FFFFFF"/>
		<stop  offset="1" style="stop-color:#FFFFFF;stop-opacity:0"/>
	</linearGradient>
	<path id="Highlight_Medium" fill="url(#Highlight_Medium_1_)" d="M7.1,14.4c-0.9-2.9-1.5-3-1.5-3l0,0l-0.1,0c0-0.1-0.2-0.3-0.2-0.3
		l0.2-1L2.3,8l-0.8,3.3c5.3,6,6.4,14.4,6.4,14.4s0,4,0,4.2c0,0.2,0.4,0.5,0.4,0.5L7.8,18.3C7.8,18.3,7.8,16.5,7.1,14.4z"/>
	<path id="Left_Face_Highlight" fill="#FFFFFF" d="M5.7,11.3c0,0,1.9,3.6,1.9,6.5l0.1,4.8H7.3c0,0,0.4,1.6,0.5,2.2l0,0.4
		c0,0.1,0,0.1,0,0.1s0,0.1,0,0.3l0.2,4.3c0.1,0.1,0.2,0.2,0.2,0.2S7.8,18.6,7.8,18c0-1.3-0.6-3.4-0.7-3.9
		C6.8,13.2,5.7,11.3,5.7,11.3z"/>
	<path id="Base" fill="#0A293B" d="M10.3,5.8l0.1,1.5c0,0,1.6,0.1,1.7-1.1c0-0.4-0.7-2.4-0.7-2.5s0-0.2,0.1-0.3
		c0.1-0.1,7.8-1.5,8.2-1.5c0.3,0,0.5,0.1,0.6,0.2c0,0.1,0.4,1.3,0.9,1.5c0.2,0.1,0.5,0.1,0.5,0.1s0.2,1,0.3,1.1
		c0.1,0.1,0.5,0.1,0.8,0.1c0.2,0,0.6-0.5,0.6-0.7c0-0.1-1.3-3-1.6-3.3c-0.4-0.3-1-0.7-1.7-0.8c-0.7,0-9.9,1.6-9.9,1.6
		S9.3,2.1,9.2,3.1c-0.1,0.5,0,0.7,0,0.7l0.6,1.8c0,0,0.2,0.1,0.3,0.1C10.3,5.7,10.3,5.8,10.3,5.8z"/>
	<path id="Highlight_Middle_Dark" fill="none" d="M22.8,3.9l-1.1-2.5c-0.3-0.6-0.6-0.8-1.1-0.8c-0.3,0-9.4,1.5-9.6,1.5
		c-0.6,0.2-0.8,0.2-0.8,0.7l1.3,3.4c0,0.2-0.1,0.4-0.1,0.5c0.4-0.1,0.5-0.4,0.6-1c0-0.4-0.7-2.4-0.7-2.5c0-0.1,0.1-0.3,0.1-0.4
		c0.1-0.1,7.9-1.5,8.3-1.5c0.3,0,0.6,0.1,0.7,0.2c0,0.1,0.5,1.2,0.7,1.5c0.1,0.1,0.8,0.3,0.8,0.3s0,0.8,0.1,1
		c0.1,0.1,0.5,0.1,0.8,0.1c0.1,0,0.4-0.1,0.4-0.3C23,4,22.8,3.9,22.8,3.9z"/>
	<path id="Highlight_Middle" fill="#3D525F" d="M10.2,3c0.1-0.6,0.3-0.6,0.8-0.8c0.3-0.1,9.3-1.6,9.6-1.5c0.5,0,0.7,0.2,1.1,0.8
		l1.1,2.5c0,0,0.1,0.1,0.2,0.1c0.1-0.1,0.1-0.2,0.1-0.2L21.7,1c0,0-0.4-0.6-1-0.8C20.1,0,19.9,0,19.6,0c0,0-9.3,1.4-9.4,1.4
		c-0.1,0-0.8,0.7-0.8,0.9s-0.1,0.9-0.1,1S9.9,5.1,10,5.1c0.1,0,0.2-0.1,0.3,0c0.1,0.1,0.3,0.3,0.3,0.4c0,0.1-0.1,1.2,0.1,1.3
		c0.4,0.1,0.8-0.3,0.8-0.4L10.2,3z"/>
	<path id="Highlight_1_" fill="#FFFFFF" d="M9.5,4.2c0,0-0.1-1.2,0-1.5c0.1-0.3,0.5-0.8,0.8-0.9s8.8-1.3,8.8-1.3s0,0,0.1,0
		c0,0,0,0.1,0,0.1s-8.6,1.5-8.9,1.6C9.9,2.3,9.7,2.7,9.7,2.8C9.6,3,9.6,4,9.6,4S9.6,4.2,9.5,4.2z"/>
</g>
</svg>
