<?xml version="1.0" encoding="utf-8"?>
<!-- Generator: Adobe Illustrator 16.0.0, SVG Export Plug-In . SVG Version: 6.00 Build 0)  -->
<!DOCTYPE svg PUBLIC "-//W3C//DTD SVG 1.1//EN" "http://www.w3.org/Graphics/SVG/1.1/DTD/svg11.dtd">
<svg version="1.1" id="Layer_1" xmlns="http://www.w3.org/2000/svg" xmlns:xlink="http://www.w3.org/1999/xlink" x="0px" y="0px"
	 width="31.5px" height="32px" viewBox="0 0 31.5 32" enable-background="new 0 0 31.5 32" xml:space="preserve">
<g>
	<circle fill="#949494" cx="4.6" cy="16.2" r="4.6"/>
	<path fill="#FFFFFF" d="M4,24c7.1,0,8.4-6.3,8.4-6.3V8.5H4c-2.2,0-4-1.8-4-4s1.8-4,4-4h16.5v17.3c0,0-1.9,14.3-16.5,14.3
		c-2.2,0-4-1.8-4-4C0,25.8,1.8,24,4,24"/>
	<path fill="#FFFFFF" d="M27.5,0c-2.2,0-4,1.8-4,4v23.8c0,2.2,1.8,4,4,4c2.2,0,4-1.8,4-4V4C31.5,1.8,29.7,0,27.5,0z"/>
</g>
</svg>
