<?xml version="1.0" encoding="utf-8"?>
<!-- Generator: Adobe Illustrator 22.1.0, SVG Export Plug-In . SVG Version: 6.00 Build 0)  -->
<svg version="1.1" id="Layer_1" xmlns="http://www.w3.org/2000/svg" xmlns:xlink="http://www.w3.org/1999/xlink" x="0px" y="0px"
	 viewBox="0 0 201.5 152" enable-background="new 0 0 201.5 152" xml:space="preserve">
<path fill="#FFFFFF" d="M105.3,83.9L105.3,83.9c-2.1,1.6-5,1.7-7.2,0.1l0,0L9.5,18.2C5.6,15.3,0,18.1,0,23v123c0,3.3,2.7,6,6,6
	h189.6c3.3,0,6-2.7,6-6V23.2c0-4.9-5.6-7.7-9.6-4.8L105.3,83.9z"/>
<path fill="#FFFFFF" d="M199.4,0H2.1c-2,0-2.9,2.5-1.2,3.6l91.6,66.4c5.3,3.8,12.4,3.8,17.7,0l90.6-66.4C202.3,2.5,201.4,0,199.4,0z
	"/>
</svg>
