<?xml version="1.0" encoding="utf-8"?>
<!-- Generator: Adobe Illustrator 16.0.0, SVG Export Plug-In . SVG Version: 6.00 Build 0)  -->
<!DOCTYPE svg PUBLIC "-//W3C//DTD SVG 1.1//EN" "http://www.w3.org/Graphics/SVG/1.1/DTD/svg11.dtd">
<svg version="1.1" id="Layer_1" xmlns="http://www.w3.org/2000/svg" xmlns:xlink="http://www.w3.org/1999/xlink" x="0px" y="0px"
	 width="28px" height="29.661px" viewBox="68.954 73.074 28 29.661" enable-background="new 68.954 73.074 28 29.661"
	 xml:space="preserve">
<polygon fill="#B3B3B3" points="82.909,73.074 68.954,77.985 71.159,96.268 82.924,102.735 94.75,96.181 96.954,77.898 "/>
<polygon fill="#3E3E3E" points="95.563,78.955 82.877,74.629 82.877,101.19 93.508,95.306 "/>
<polygon fill="#707070" points="70.52,79.033 72.41,95.385 82.876,101.19 82.876,74.629 "/>
<path fill="#F2F2F2" d="M86.369,88.769l-3.492,1.632h-3.681l-1.73,4.327l-3.218,0.061l8.628-19.195L86.369,88.769z M86.031,87.947
	L82.9,81.748l-2.568,6.092h2.545L86.031,87.947z"/>
<polygon fill="#B3B3B3" points="82.876,75.594 82.9,81.748 85.813,87.845 82.883,87.845 82.876,90.398 86.93,90.401 88.823,94.789 
	91.902,94.846 "/>
</svg>
