<?xml version="1.0" encoding="utf-8"?>
<!-- Generator: Adobe Illustrator 16.0.0, SVG Export Plug-In . SVG Version: 6.00 Build 0)  -->
<!DOCTYPE svg PUBLIC "-//W3C//DTD SVG 1.1//EN" "http://www.w3.org/Graphics/SVG/1.1/DTD/svg11.dtd">
<svg version="1.1" id="Layer_1" xmlns="http://www.w3.org/2000/svg" xmlns:xlink="http://www.w3.org/1999/xlink" x="0px" y="0px"
	 width="28.2px" height="31.9px" viewBox="0 0 28.2 31.9" enable-background="new 0 0 28.2 31.9" xml:space="preserve">
<g>
	<path id="Shape_12_" fill="#6E6E6E" d="M2.6,28.8L0,0h28.2l-2.6,28.8L14.1,32L2.6,28.8z"/>
	<path id="Shape_11_" fill="#B1B1B1" d="M14.1,29.6l9.3-2.6l2.2-24.6H14.1V29.6z"/>
	<g id="Group" transform="translate(55.000000, 142.000000)">
		<path id="Shape_10_" fill="#FFFFFF" d="M-40.9-129.2h4.7l0.3-3.6h-5v-3.5h0h8.8l-0.1,0.9l-0.9,9.7h-7.9V-129.2z"/>
		<path id="Shape_4_" fill="#EBEBEB" d="M-40.9-120L-40.9-120l-4-1.1l-0.3-2.8H-47h-1.6l0.5,5.5l7.2,2l0,0V-120z"/>
		<path id="Shape_5_" fill="#FFFFFF" d="M-36.5-125.8l-0.4,4.7l-3.9,1.1v3.7l7.2-2l0.1-0.6l0.6-6.9H-36.5z"/>
		<path id="Shape_6_" fill="#EBEBEB" d="M-40.9-136.4v2.2v1.3v0h-8.5h0l-0.1-0.8l-0.2-1.8l-0.1-0.9H-40.9z"/>
		<path id="Shape_7_" fill="#EBEBEB" d="M-40.9-129.2v2.2v1.3v0h-3.9h0l-0.1-0.8l-0.2-1.8l-0.1-0.9H-40.9z"/>
	</g>
</g>
</svg>
