<?xml version="1.0" encoding="utf-8"?>
<!-- Generator: Adobe Illustrator 16.0.0, SVG Export Plug-In . SVG Version: 6.00 Build 0)  -->
<!DOCTYPE svg PUBLIC "-//W3C//DTD SVG 1.1//EN" "http://www.w3.org/Graphics/SVG/1.1/DTD/svg11.dtd">
<svg version="1.1" id="Layer_1" xmlns="http://www.w3.org/2000/svg" xmlns:xlink="http://www.w3.org/1999/xlink" x="0px" y="0px"
	 width="35.4px" height="32px" viewBox="0 0 35.4 32" enable-background="new 0 0 35.4 32" xml:space="preserve">
<g>
	<path d="M4.5,20.2c1.8,6.7,7.9,11.5,15.2,11.5c7.2,0,13.3-4.9,15.2-11.5H4.5z"/>
	<path fill="#181818" d="M10.7,20.2c1.1,3.9,4.7,6.8,9,6.8c4.3,0,7.9-2.9,9-6.8H10.7z"/>
	<path d="M35.2,18.8c0.1-0.7,0.2-1.4,0.2-2.1H4c0,0.7,0.1,1.4,0.2,2.1H35.2z"/>
	<path d="M4.2,13.2C4.1,13.9,4,14.6,4,15.3h31.5c0-0.7-0.1-1.4-0.2-2.1H4.2z"/>
	<path d="M34.9,11.8C33,5.1,26.9,0.2,19.7,0.2c-7.2,0-13.3,4.9-15.2,11.5H34.9z"/>
	<path fill="#A4A4A4" d="M3.1,16c0-8.3,6.3-15.1,14.4-15.9C17,0,16.5,0,16,0C7.2,0,0,7.2,0,16c0,8.8,7.2,16,16,16c0.5,0,1,0,1.6-0.1
		C9.5,31.1,3.1,24.3,3.1,16z"/>
</g>
</svg>
