<?xml version="1.0" encoding="utf-8"?>
<!-- Generator: Adobe Illustrator 16.0.0, SVG Export Plug-In . SVG Version: 6.00 Build 0)  -->
<!DOCTYPE svg PUBLIC "-//W3C//DTD SVG 1.1//EN" "http://www.w3.org/Graphics/SVG/1.1/DTD/svg11.dtd">
<svg version="1.1" id="Layer_1" xmlns="http://www.w3.org/2000/svg" xmlns:xlink="http://www.w3.org/1999/xlink" x="0px" y="0px"
	 width="28.2px" height="32px" viewBox="0 0 28.2 32" enable-background="new 0 0 28.2 32" xml:space="preserve">
<g>
	<path id="Shape" fill="#616161" d="M2.6,28.8L0,0h28.2l-2.6,28.8L14.1,32L2.6,28.8z"/>
	<path id="Shape_1_" fill="#757575" d="M14.1,29.6l9.3-2.6l2.2-24.6H14.1V29.6z"/>
	<path id="Shape_2_" fill="#EBEBEB" d="M14.1,13H9.4L9.1,9.4h5V5.9h0H5.3l0.1,0.9l0.9,9.7h7.9V13z"/>
	<path id="Shape_3_" fill="#EBEBEB" d="M14.1,22.2L14.1,22.2l-3.9-1.1l-0.3-2.8H8H6.4l0.5,5.5l7.2,2l0,0V22.2z"/>
	<path id="Shape_8_" fill="#FFFFFF" d="M14.1,13v3.5h4.4L18,21.2l-3.9,1.1v3.7l7.2-2l0.1-0.6l0.8-9.3l0.1-0.9h-1H14.1z"/>
	<path id="Shape_9_" fill="#FFFFFF" d="M14.1,5.9v2.2v1.3v0h8.5h0l0.1-0.8l0.2-1.8l0.1-0.9H14.1z"/>
</g>
</svg>
