<svg version="1.1" id="Layer_1" xmlns="http://www.w3.org/2000/svg" xmlns:xlink="http://www.w3.org/1999/xlink" x="0px" y="0px"
	 width="21.6px" height="21.6px" viewBox="0 0 21.6 21.6" enable-background="new 0 0 21.6 21.6" xml:space="preserve">
    <g id="Search">
        <path id="Handle" fill="#FFFFFF" d="M13.8,13.4c0.1,0,0.2,0,0.2,0.1l6.4,5.9c0.1,0.1,0.1,0.1,0.1,0.2c0,0,0,0.1-0.1,0.2l-0.7,0.7
            c-0.1,0.1-0.1,0.1-0.2,0.1c-0.1,0-0.1,0-0.2-0.1l-5.9-6.4c-0.1-0.1-0.1-0.4,0-0.5C13.6,13.5,13.7,13.4,13.8,13.4 M13.8,12.4
            c-0.4,0-0.7,0.1-1,0.4l0,0c-0.5,0.5-0.5,1.4,0,1.9l5.9,6.4c0.3,0.3,0.6,0.4,0.9,0.4c0.3,0,0.6-0.1,0.9-0.4l0.7-0.7
            c0.5-0.5,0.5-1.3,0-1.8l-6.4-5.9C14.5,12.6,14.2,12.4,13.8,12.4L13.8,12.4z"/>
        <g id="Glass">
            <path fill="#FFFFFF" d="M7.3,1L7.3,1c1.7,0,3.3,0.7,4.4,1.8c2.5,2.5,2.5,6.4,0,8.9c-1.2,1.2-2.8,1.8-4.4,1.8
                c-1.7,0-3.3-0.7-4.4-1.8S1,9,1,7.3C1,5.6,1.7,4,2.8,2.8C4,1.7,5.6,1,7.3,1 M7.3,0C5.4,0,3.6,0.7,2.1,2.1c-2.8,2.8-2.8,7.5,0,10.3
                c1.4,1.4,3.3,2.1,5.2,2.1c1.9,0,3.7-0.7,5.2-2.1c2.8-2.8,2.8-7.5,0-10.3C11,0.7,9.2,0,7.3,0L7.3,0z"/>
        </g>
        <path id="Highlight" fill-rule="evenodd" clip-rule="evenodd" fill="#FFFFFF" d="M4.4,4.4c1.3-1.3,3-1.7,4-1
            C8.4,3.4,8.4,3.3,8.3,3.2C7.3,2.2,5.4,2.6,4,4S2.2,7.3,3.2,8.3c0.1,0.1,0.2,0.2,0.3,0.2C2.8,7.5,3.2,5.7,4.4,4.4z"/>
    </g>
</svg>
